<?xml version="1.0" encoding="utf-8"?>
<!-- Generator: Adobe Illustrator 16.0.0, SVG Export Plug-In . SVG Version: 6.00 Build 0)  -->
<!DOCTYPE svg PUBLIC "-//W3C//DTD SVG 1.1//EN" "http://www.w3.org/Graphics/SVG/1.1/DTD/svg11.dtd">
<svg version="1.1" id="Layer_1" xmlns="http://www.w3.org/2000/svg" xmlns:xlink="http://www.w3.org/1999/xlink" x="0px" y="0px"
	 width="173.319px" height="36.51px" viewBox="0 0 173.319 36.51" enable-background="new 0 0 173.319 36.51" xml:space="preserve">
<g>
	<g>
		<path fill-rule="evenodd" clip-rule="evenodd" fill="#FFFFFF" d="M0,5.551c1.86-1.895,3.689-3.759,5.443-5.546
			C11.685,2.266,17.857,2.249,24.095,0c1.759,1.792,3.59,3.655,5.447,5.547c-2.076,2.326-2.684,5.222-2.695,8.337
			c-0.009,2.823-0.005,5.653-0.196,8.467c-0.308,4.517-2.224,8.237-6.026,10.816c-1.73,1.173-3.574,2.18-5.387,3.226
			c-0.226,0.131-0.653,0.164-0.861,0.036c-2.207-1.346-4.5-2.586-6.552-4.144c-3.237-2.455-4.657-5.981-4.94-9.937
			c-0.198-2.755-0.206-5.528-0.198-8.293C2.695,10.879,2.107,7.925,0,5.551z M0.72,5.457c1.926,2.432,2.519,5.115,2.535,8.023
			c0.017,3.082,0.084,6.171,0.332,9.241c0.236,2.932,1.315,5.587,3.352,7.788c2.115,2.284,4.777,3.783,7.495,5.194
			c0.203,0.106,0.58,0.063,0.791-0.06c1.584-0.917,3.189-1.809,4.71-2.825c4.156-2.777,5.991-6.836,6.197-11.705
			c0.121-2.849,0.1-5.705,0.172-8.556c0.062-2.408,0.678-4.655,2.155-6.601c0.301-0.395,0.255-0.642-0.065-0.962
			c-1.358-1.361-2.692-2.746-4.067-4.088c-0.168-0.164-0.567-0.233-0.803-0.161c-0.809,0.248-1.57,0.691-2.39,0.852
			c-1.419,0.278-2.865,0.45-4.308,0.579c-3.69,0.33-7.305-0.003-10.801-1.323c-0.25-0.094-0.71-0.027-0.892,0.15
			C3.655,2.446,2.22,3.932,0.72,5.457z"/>
		<path fill-rule="evenodd" clip-rule="evenodd" fill="#FFFFFF" d="M13.03,20.766c0.35,0.473,0.784,0.953,1.096,1.502
			c0.781,1.377,0.074,3.123-1.564,3.637c-0.896,0.282-1.882,0.312-2.833,0.371c-0.87,0.054-1.747,0.005-2.62-0.022
			c-0.257-0.008-0.512-0.097-0.788-0.152c0.064-0.174,0.077-0.268,0.104-0.272c1.31-0.23,1.349-1.189,1.332-2.23
			c-0.026-1.572-0.022-3.146,0.016-4.719c0.019-0.789-0.123-1.386-1.043-1.489c-0.091-0.01-0.171-0.122-0.357-0.263
			c0.25-0.116,0.411-0.252,0.574-0.255c1.514-0.026,3.031-0.096,4.541-0.021c1.552,0.077,2.541,1.163,2.27,2.479
			C13.633,19.936,13.185,20.474,13.03,20.766z M9.559,23.313c0.022,0.342,0.023,0.836,0.09,1.322
			c0.129,0.942,0.997,1.344,1.798,0.831c0.728-0.466,1.01-1.192,0.958-2.015c-0.05-0.799-0.436-1.437-1.2-1.777
			c-1.193-0.53-1.656-0.229-1.646,1.055C9.56,22.873,9.559,23.018,9.559,23.313z M9.578,20.854c0.377,0,0.668,0.029,0.95-0.006
			c0.973-0.121,1.491-0.74,1.463-1.719c-0.027-0.991-0.661-1.662-1.607-1.727c-0.488-0.034-0.802,0.121-0.805,0.657
			C9.574,18.957,9.578,19.854,9.578,20.854z"/>
		<path fill-rule="evenodd" clip-rule="evenodd" fill="#FFFFFF" d="M23.74,23.613c0.258,1.393-0.285,2.331-1.417,2.618
			c-1.69,0.429-3.346,0.361-4.935-0.423c-1.715-0.847-2.536-2.304-2.591-4.144c-0.054-1.818,0.732-3.271,2.337-4.207
			c1.934-1.128,3.967-0.921,6.013-0.396c0.125,0.032,0.314,0.152,0.325,0.247c0.075,0.694,0.112,1.392,0.161,2.088
			c-0.087,0.017-0.173,0.034-0.26,0.05c-0.11-0.116-0.255-0.215-0.324-0.352c-0.724-1.435-1.711-2.02-3.19-1.875
			c-1.352,0.134-2.389,1.055-2.726,2.571c-0.331,1.485-0.247,2.941,0.561,4.304c1.187,2.004,4.32,2.477,5.588,0.087
			C23.371,24.015,23.523,23.88,23.74,23.613z"/>
		<path fill-rule="evenodd" clip-rule="evenodd" fill="#FFFFFF" d="M14.083,9.334c-0.108-0.155-0.255-0.295-0.318-0.466
			c-0.462-1.243-1.502-1.671-2.671-1.755C9.908,7.029,8.951,7.566,8.33,8.612c-0.936,1.575-0.744,4.248,0.358,5.714
			c1.264,1.683,4.146,2.022,5.341-0.201c0.099-0.184,0.264-0.333,0.438-0.546c0.32,1.123-0.162,2.17-1.095,2.461
			c-1.422,0.444-2.863,0.479-4.293,0.037c-2.243-0.693-3.561-2.488-3.511-4.737C5.617,9.125,7.04,7.398,9.313,6.761
			c1.545-0.434,3.054-0.19,4.559,0.196c0.132,0.034,0.342,0.128,0.352,0.212c0.08,0.704,0.12,1.413,0.172,2.12
			C14.291,9.304,14.187,9.319,14.083,9.334z"/>
		<path fill-rule="evenodd" clip-rule="evenodd" fill="#FFFFFF" d="M23.604,13.539c0.327,1.036-0.16,2.204-1.003,2.466
			c-2.006,0.625-3.989,0.57-5.799-0.583c-1.664-1.06-2.269-2.695-2.048-4.604c0.221-1.914,1.353-3.164,3.121-3.862
			c1.713-0.677,3.431-0.458,5.14,0.01c0.167,0.046,0.409,0.234,0.419,0.37c0.044,0.645,0.02,1.294,0.02,1.942
			c-0.072,0.022-0.144,0.044-0.215,0.066c-0.115-0.166-0.265-0.317-0.338-0.499c-0.486-1.218-1.481-1.695-2.685-1.739
			c-1.226-0.046-2.246,0.468-2.791,1.6c-0.867,1.799-0.815,3.621,0.22,5.342c1.257,2.093,4.447,2.318,5.573-0.025
			C23.288,13.876,23.425,13.761,23.604,13.539z"/>
	</g>
	<g>
		<path fill="#FFFFFF" d="M39.594,2.258l0.144,2.143h-0.144c-0.192-0.641-0.466-1.104-0.823-1.385s-0.784-0.423-1.283-0.423
			c-0.418,0-0.796,0.106-1.134,0.318c-0.337,0.212-0.604,0.551-0.797,1.016c-0.194,0.465-0.291,1.043-0.291,1.734
			c0,0.57,0.092,1.064,0.274,1.483c0.183,0.418,0.458,0.739,0.825,0.962s0.787,0.335,1.258,0.335c0.409,0,0.77-0.088,1.083-0.263
			s0.657-0.523,1.032-1.044l0.145,0.093c-0.316,0.561-0.685,0.972-1.106,1.232S37.854,8.85,37.275,8.85
			c-1.044,0-1.854-0.388-2.427-1.162c-0.428-0.577-0.642-1.255-0.642-2.036c0-0.629,0.141-1.208,0.423-1.734
			c0.282-0.527,0.67-0.935,1.164-1.225c0.494-0.29,1.035-0.435,1.62-0.435c0.456,0,0.905,0.112,1.349,0.335
			c0.13,0.068,0.223,0.102,0.278,0.102c0.084,0,0.157-0.029,0.219-0.088c0.081-0.083,0.138-0.2,0.172-0.349H39.594z"/>
		<path fill="#FFFFFF" d="M48.948,6.595h-2.44L46.08,7.59c-0.105,0.245-0.158,0.427-0.158,0.548c0,0.096,0.045,0.181,0.137,0.253
			c0.091,0.073,0.289,0.12,0.593,0.142v0.172h-1.985V8.534c0.263-0.046,0.434-0.107,0.511-0.181
			c0.158-0.149,0.333-0.451,0.526-0.907l2.217-5.188h0.163l2.194,5.244c0.177,0.422,0.337,0.695,0.481,0.821
			c0.144,0.125,0.345,0.196,0.602,0.211v0.172h-2.487V8.534c0.251-0.012,0.42-0.054,0.509-0.125s0.132-0.158,0.132-0.26
			c0-0.136-0.062-0.352-0.186-0.646L48.948,6.595z M48.818,6.251l-1.069-2.548l-1.097,2.548H48.818z"/>
		<path fill="#FFFFFF" d="M61.305,6.962l0.153,0.032l-0.539,1.711h-4.881V8.534h0.237c0.267,0,0.458-0.087,0.572-0.26
			c0.065-0.099,0.098-0.329,0.098-0.688V3.518c0-0.394-0.043-0.64-0.13-0.739c-0.121-0.137-0.301-0.205-0.54-0.205h-0.237V2.402
			h2.854v0.172c-0.335-0.003-0.569,0.028-0.705,0.093c-0.134,0.065-0.227,0.147-0.276,0.247s-0.074,0.336-0.074,0.711v3.961
			c0,0.257,0.024,0.434,0.074,0.53c0.037,0.065,0.095,0.113,0.172,0.145c0.078,0.031,0.319,0.046,0.725,0.046h0.46
			c0.483,0,0.823-0.036,1.018-0.107s0.374-0.198,0.535-0.379S61.144,7.353,61.305,6.962z"/>
		<path fill="#FFFFFF" d="M71.928,2.402v0.172c-0.223,0.04-0.392,0.111-0.507,0.214c-0.164,0.152-0.31,0.384-0.437,0.697
			L68.786,8.85h-0.172l-2.362-5.435c-0.121-0.279-0.206-0.449-0.255-0.512c-0.078-0.096-0.173-0.171-0.287-0.225
			c-0.113-0.054-0.266-0.089-0.458-0.104V2.402h2.576v0.172c-0.292,0.028-0.481,0.077-0.567,0.148
			c-0.087,0.071-0.13,0.163-0.13,0.274c0,0.155,0.071,0.397,0.214,0.725l1.604,3.696l1.487-3.649
			c0.146-0.359,0.219-0.609,0.219-0.749c0-0.089-0.045-0.176-0.135-0.258s-0.242-0.14-0.456-0.174
			c-0.016-0.003-0.042-0.007-0.079-0.014V2.402H71.928z"/>
		<path fill="#FFFFFF" d="M78.414,2.746v2.492h1.385c0.359,0,0.6-0.054,0.721-0.163c0.161-0.143,0.251-0.394,0.27-0.753h0.172v2.194
			h-0.172c-0.043-0.307-0.087-0.503-0.13-0.59c-0.056-0.108-0.147-0.194-0.274-0.255c-0.127-0.062-0.322-0.093-0.586-0.093h-1.385
			v2.078c0,0.279,0.012,0.449,0.037,0.509s0.068,0.108,0.13,0.144c0.062,0.036,0.179,0.054,0.353,0.054h1.069
			c0.356,0,0.615-0.025,0.776-0.074c0.161-0.05,0.316-0.147,0.465-0.293c0.192-0.192,0.389-0.482,0.59-0.869h0.186l-0.543,1.58
			h-4.858V8.534h0.223c0.149,0,0.29-0.036,0.423-0.107c0.099-0.049,0.166-0.124,0.202-0.223c0.036-0.099,0.053-0.302,0.053-0.609
			V3.5c0-0.4-0.041-0.646-0.121-0.739c-0.111-0.124-0.297-0.186-0.558-0.186h-0.223V2.402h4.858l0.069,1.38h-0.182
			c-0.064-0.332-0.137-0.56-0.216-0.684c-0.079-0.124-0.196-0.218-0.351-0.283c-0.124-0.046-0.343-0.07-0.655-0.07H78.414z"/>
		<path fill="#FFFFFF" d="M93.053,8.706H91.37l-2.134-2.947c-0.158,0.006-0.287,0.01-0.386,0.01c-0.041,0-0.084-0.001-0.13-0.002
			c-0.046-0.002-0.094-0.004-0.144-0.007V7.59c0,0.396,0.043,0.643,0.13,0.739c0.118,0.136,0.295,0.205,0.53,0.205h0.247v0.172
			h-2.701V8.534h0.237c0.267,0,0.457-0.087,0.572-0.26c0.065-0.096,0.098-0.324,0.098-0.683V3.518c0-0.397-0.044-0.644-0.13-0.739
			c-0.121-0.137-0.301-0.205-0.539-0.205h-0.237V2.402h2.296c0.669,0,1.163,0.048,1.481,0.146c0.317,0.098,0.587,0.277,0.809,0.54
			C91.589,3.35,91.7,3.662,91.7,4.024c0,0.388-0.126,0.724-0.379,1.009c-0.253,0.285-0.644,0.487-1.174,0.604l1.302,1.809
			c0.297,0.416,0.553,0.691,0.767,0.828c0.214,0.137,0.493,0.223,0.836,0.26V8.706z M88.576,5.466c0.059,0,0.11,0,0.153,0.002
			s0.079,0.002,0.107,0.002c0.601,0,1.055-0.13,1.36-0.391s0.458-0.592,0.458-0.995c0-0.394-0.123-0.714-0.369-0.96
			c-0.247-0.247-0.573-0.37-0.979-0.37c-0.18,0-0.423,0.03-0.73,0.088V5.466z"/>
		<path fill="#FFFFFF" d="M101.361,2.402h2.199v0.172h-0.121c-0.081,0-0.198,0.036-0.354,0.107
			c-0.155,0.071-0.295,0.173-0.423,0.307s-0.283,0.351-0.47,0.651l-1.52,2.394v1.581c0,0.388,0.043,0.629,0.13,0.726
			c0.118,0.13,0.304,0.195,0.558,0.195h0.205v0.172h-2.678V8.534h0.223c0.267,0,0.456-0.081,0.567-0.242
			c0.068-0.099,0.103-0.325,0.103-0.679V6.121l-1.729-2.64c-0.205-0.31-0.343-0.504-0.417-0.582
			c-0.073-0.078-0.224-0.17-0.453-0.279c-0.062-0.031-0.152-0.046-0.27-0.046V2.402h2.696v0.172h-0.14
			c-0.146,0-0.279,0.034-0.402,0.102c-0.122,0.068-0.184,0.17-0.184,0.307c0,0.112,0.095,0.313,0.284,0.604l1.315,2.031l1.237-1.943
			c0.186-0.292,0.279-0.508,0.279-0.651c0-0.087-0.022-0.164-0.067-0.232c-0.045-0.068-0.11-0.122-0.193-0.161
			c-0.083-0.039-0.209-0.058-0.376-0.058V2.402z"/>
		<path fill="#FFFFFF" d="M120.217,2.258l0.144,2.143h-0.144c-0.192-0.641-0.466-1.104-0.823-1.385
			c-0.357-0.282-0.784-0.423-1.283-0.423c-0.418,0-0.796,0.106-1.135,0.318c-0.338,0.212-0.604,0.551-0.797,1.016
			c-0.194,0.465-0.291,1.043-0.291,1.734c0,0.57,0.091,1.064,0.274,1.483c0.183,0.418,0.458,0.739,0.825,0.962
			c0.367,0.223,0.786,0.335,1.257,0.335c0.409,0,0.77-0.088,1.083-0.263c0.313-0.175,0.657-0.523,1.032-1.044l0.144,0.093
			c-0.316,0.561-0.685,0.972-1.106,1.232s-0.922,0.391-1.501,0.391c-1.044,0-1.854-0.388-2.427-1.162
			c-0.428-0.577-0.642-1.255-0.642-2.036c0-0.629,0.141-1.208,0.423-1.734c0.282-0.527,0.67-0.935,1.165-1.225
			c0.494-0.29,1.034-0.435,1.62-0.435c0.455,0,0.905,0.112,1.348,0.335c0.13,0.068,0.224,0.102,0.279,0.102
			c0.083,0,0.156-0.029,0.219-0.088c0.08-0.083,0.137-0.2,0.172-0.349H120.217z"/>
		<path fill="#FFFFFF" d="M127.172,5.326h2.929V3.522c0-0.323-0.02-0.535-0.061-0.637c-0.03-0.077-0.096-0.144-0.194-0.2
			c-0.134-0.074-0.274-0.111-0.424-0.111h-0.223V2.402h2.696v0.172h-0.224c-0.148,0-0.289,0.036-0.423,0.107
			c-0.099,0.049-0.167,0.125-0.202,0.225c-0.035,0.101-0.054,0.306-0.054,0.616V7.59c0,0.319,0.021,0.53,0.061,0.632
			c0.031,0.077,0.095,0.144,0.19,0.2c0.137,0.074,0.279,0.111,0.428,0.111h0.224v0.172h-2.696V8.534h0.223
			c0.258,0,0.445-0.076,0.563-0.228c0.077-0.099,0.116-0.338,0.116-0.716V5.67h-2.929v1.92c0,0.319,0.021,0.53,0.061,0.632
			c0.031,0.077,0.096,0.144,0.195,0.2c0.134,0.074,0.274,0.111,0.423,0.111h0.228v0.172h-2.7V8.534h0.223
			c0.261,0,0.449-0.076,0.567-0.228c0.074-0.099,0.111-0.338,0.111-0.716V3.522c0-0.323-0.021-0.535-0.061-0.637
			c-0.031-0.077-0.095-0.144-0.19-0.2c-0.137-0.074-0.278-0.111-0.428-0.111h-0.223V2.402h2.7v0.172h-0.228
			c-0.148,0-0.289,0.036-0.423,0.107c-0.097,0.049-0.162,0.125-0.2,0.225c-0.037,0.101-0.056,0.306-0.056,0.616V5.326z"/>
		<path fill="#FFFFFF" d="M140.826,6.595h-2.44l-0.428,0.995c-0.105,0.245-0.158,0.427-0.158,0.548c0,0.096,0.046,0.181,0.137,0.253
			c0.092,0.073,0.289,0.12,0.593,0.142v0.172h-1.984V8.534c0.263-0.046,0.434-0.107,0.511-0.181
			c0.158-0.149,0.333-0.451,0.525-0.907l2.218-5.188h0.163l2.194,5.244c0.176,0.422,0.337,0.695,0.48,0.821
			c0.145,0.125,0.345,0.196,0.603,0.211v0.172h-2.487V8.534c0.251-0.012,0.421-0.054,0.509-0.125
			c0.089-0.071,0.133-0.158,0.133-0.26c0-0.136-0.063-0.352-0.187-0.646L140.826,6.595z M140.696,6.251l-1.069-2.548l-1.098,2.548
			H140.696z"/>
		<path fill="#FFFFFF" d="M149.678,5.753V7.59c0,0.396,0.044,0.643,0.13,0.739c0.118,0.136,0.296,0.205,0.535,0.205h0.241v0.172
			h-2.701V8.534h0.237c0.267,0,0.457-0.087,0.572-0.26c0.063-0.096,0.093-0.324,0.093-0.683V3.518c0-0.397-0.042-0.644-0.125-0.739
			c-0.121-0.137-0.301-0.205-0.54-0.205h-0.237V2.402h2.312c0.563,0,1.009,0.058,1.334,0.174c0.325,0.116,0.6,0.312,0.822,0.588
			c0.224,0.276,0.335,0.603,0.335,0.981c0,0.514-0.17,0.933-0.51,1.255c-0.339,0.323-0.818,0.484-1.438,0.484
			c-0.151,0-0.315-0.011-0.492-0.033S149.879,5.797,149.678,5.753z M149.678,5.489c0.164,0.031,0.311,0.054,0.438,0.07
			c0.127,0.015,0.234,0.023,0.325,0.023c0.322,0,0.6-0.125,0.834-0.375s0.352-0.572,0.352-0.969c0-0.272-0.056-0.526-0.167-0.76
			c-0.112-0.234-0.271-0.409-0.475-0.525c-0.205-0.116-0.438-0.174-0.697-0.174c-0.158,0-0.361,0.029-0.609,0.088V5.489z"/>
		<path fill="#FFFFFF" d="M159.39,2.746v2.492h1.386c0.359,0,0.6-0.054,0.72-0.163c0.161-0.143,0.251-0.394,0.271-0.753h0.172v2.194
			h-0.172c-0.044-0.307-0.087-0.503-0.131-0.59c-0.056-0.108-0.147-0.194-0.274-0.255c-0.127-0.062-0.321-0.093-0.585-0.093h-1.386
			v2.078c0,0.279,0.013,0.449,0.037,0.509c0.025,0.061,0.068,0.108,0.13,0.144c0.063,0.036,0.18,0.054,0.354,0.054h1.069
			c0.356,0,0.615-0.025,0.776-0.074c0.161-0.05,0.316-0.147,0.465-0.293c0.192-0.192,0.389-0.482,0.59-0.869h0.187l-0.544,1.58
			h-4.858V8.534h0.224c0.148,0,0.29-0.036,0.423-0.107c0.1-0.049,0.167-0.124,0.202-0.223c0.036-0.099,0.054-0.302,0.054-0.609V3.5
			c0-0.4-0.04-0.646-0.121-0.739c-0.111-0.124-0.297-0.186-0.558-0.186h-0.224V2.402h4.858l0.069,1.38h-0.181
			c-0.065-0.332-0.138-0.56-0.217-0.684c-0.079-0.124-0.195-0.218-0.351-0.283c-0.124-0.046-0.343-0.07-0.655-0.07H159.39z"/>
		<path fill="#FFFFFF" d="M173.053,6.962l0.153,0.032l-0.539,1.711h-4.882V8.534h0.237c0.267,0,0.458-0.087,0.572-0.26
			c0.065-0.099,0.098-0.329,0.098-0.688V3.518c0-0.394-0.043-0.64-0.13-0.739c-0.121-0.137-0.301-0.205-0.54-0.205h-0.237V2.402
			h2.854v0.172c-0.334-0.003-0.569,0.028-0.704,0.093c-0.135,0.065-0.227,0.147-0.276,0.247s-0.074,0.336-0.074,0.711v3.961
			c0,0.257,0.024,0.434,0.074,0.53c0.037,0.065,0.095,0.113,0.172,0.145c0.078,0.031,0.319,0.046,0.726,0.046h0.46
			c0.483,0,0.823-0.036,1.018-0.107c0.195-0.071,0.374-0.198,0.535-0.379S172.892,7.353,173.053,6.962z"/>
	</g>
	<g>
		<path fill="#FFFFFF" d="M42.453,22.115c0.833,0.177,1.457,0.461,1.87,0.851c0.573,0.544,0.86,1.209,0.86,1.995
			c0,0.597-0.189,1.168-0.567,1.715c-0.378,0.546-0.897,0.945-1.556,1.196c-0.659,0.251-1.665,0.377-3.018,0.377h-5.673v-0.328
			h0.452c0.502,0,0.863-0.16,1.082-0.479c0.136-0.207,0.204-0.647,0.204-1.321v-7.765c0-0.745-0.085-1.215-0.257-1.41
			c-0.23-0.26-0.573-0.39-1.028-0.39h-0.452v-0.328h5.194c0.969,0,1.747,0.071,2.332,0.213c0.886,0.213,1.563,0.589,2.03,1.13
			c0.467,0.541,0.701,1.163,0.701,1.866c0,0.603-0.184,1.143-0.55,1.618S43.167,21.884,42.453,22.115z M37.808,21.636
			c0.219,0.041,0.468,0.072,0.749,0.093c0.28,0.021,0.589,0.031,0.926,0.031c0.863,0,1.511-0.093,1.946-0.279
			c0.434-0.186,0.767-0.471,0.997-0.855c0.23-0.384,0.346-0.804,0.346-1.259c0-0.703-0.287-1.304-0.86-1.8s-1.409-0.745-2.508-0.745
			c-0.591,0-1.123,0.065-1.596,0.195V21.636z M37.808,27.38c0.685,0.16,1.362,0.239,2.03,0.239c1.069,0,1.885-0.241,2.447-0.722
			c0.561-0.481,0.842-1.077,0.842-1.787c0-0.466-0.127-0.916-0.381-1.347c-0.254-0.432-0.668-0.771-1.241-1.02
			c-0.573-0.248-1.282-0.372-2.127-0.372c-0.366,0-0.68,0.006-0.94,0.018c-0.26,0.012-0.47,0.033-0.629,0.063V27.38z"/>
		<path fill="#FFFFFF" d="M51.778,27.921v0.328h-5.15v-0.328h0.426c0.496,0,0.857-0.145,1.081-0.435
			c0.142-0.189,0.213-0.644,0.213-1.365v-7.765c0-0.609-0.039-1.011-0.115-1.206c-0.059-0.147-0.18-0.274-0.363-0.381
			c-0.26-0.142-0.532-0.213-0.815-0.213h-0.426v-0.328h5.15v0.328h-0.434c-0.491,0-0.848,0.145-1.073,0.435
			c-0.148,0.189-0.222,0.645-0.222,1.365v7.765c0,0.609,0.039,1.011,0.115,1.206c0.059,0.148,0.183,0.275,0.373,0.381
			c0.254,0.142,0.523,0.213,0.807,0.213H51.778z"/>
		<path fill="#FFFFFF" d="M60.607,22.115c0.833,0.177,1.457,0.461,1.87,0.851c0.573,0.544,0.86,1.209,0.86,1.995
			c0,0.597-0.189,1.168-0.567,1.715c-0.378,0.546-0.897,0.945-1.556,1.196c-0.659,0.251-1.665,0.377-3.018,0.377h-5.673v-0.328
			h0.452c0.502,0,0.863-0.16,1.082-0.479c0.136-0.207,0.204-0.647,0.204-1.321v-7.765c0-0.745-0.085-1.215-0.257-1.41
			c-0.23-0.26-0.574-0.39-1.028-0.39h-0.452v-0.328h5.195c0.969,0,1.746,0.071,2.332,0.213c0.886,0.213,1.563,0.589,2.03,1.13
			c0.466,0.541,0.7,1.163,0.7,1.866c0,0.603-0.183,1.143-0.55,1.618C61.863,21.531,61.322,21.884,60.607,22.115z M55.962,21.636
			c0.219,0.041,0.468,0.072,0.749,0.093c0.28,0.021,0.59,0.031,0.927,0.031c0.862,0,1.511-0.093,1.946-0.279
			c0.434-0.186,0.766-0.471,0.997-0.855c0.23-0.384,0.346-0.804,0.346-1.259c0-0.703-0.287-1.304-0.86-1.8
			c-0.574-0.496-1.41-0.745-2.509-0.745c-0.591,0-1.123,0.065-1.596,0.195V21.636z M55.962,27.38c0.686,0.16,1.362,0.239,2.03,0.239
			c1.069,0,1.885-0.241,2.446-0.722s0.842-1.077,0.842-1.787c0-0.466-0.127-0.916-0.381-1.347c-0.254-0.432-0.668-0.771-1.241-1.02
			c-0.573-0.248-1.282-0.372-2.127-0.372c-0.367,0-0.68,0.006-0.94,0.018s-0.47,0.033-0.629,0.063V27.38z"/>
		<path fill="#FFFFFF" d="M74.737,24.924l0.292,0.062l-1.028,3.262h-9.308v-0.328h0.452c0.508,0,0.872-0.166,1.09-0.497
			c0.124-0.189,0.187-0.626,0.187-1.312v-7.756c0-0.75-0.083-1.22-0.249-1.41c-0.23-0.26-0.574-0.39-1.028-0.39h-0.452v-0.328h5.443
			v0.328c-0.638-0.005-1.086,0.053-1.343,0.178c-0.257,0.124-0.433,0.28-0.528,0.47c-0.094,0.189-0.142,0.641-0.142,1.356v7.552
			c0,0.491,0.047,0.828,0.142,1.011c0.071,0.124,0.18,0.215,0.328,0.274s0.609,0.089,1.383,0.089h0.878
			c0.922,0,1.569-0.068,1.941-0.204c0.373-0.136,0.712-0.376,1.02-0.722C74.123,26.214,74.43,25.669,74.737,24.924z"/>
		<path fill="#FFFFFF" d="M79.213,16.884v4.751h2.642c0.686,0,1.144-0.104,1.374-0.31c0.307-0.272,0.479-0.751,0.514-1.437h0.328
			v4.185h-0.328c-0.083-0.585-0.166-0.96-0.248-1.126c-0.106-0.207-0.281-0.37-0.523-0.487c-0.242-0.119-0.614-0.178-1.117-0.178
			h-2.642v3.962c0,0.532,0.023,0.855,0.071,0.971s0.13,0.207,0.249,0.275c0.118,0.068,0.342,0.102,0.674,0.102h2.039
			c0.68,0,1.173-0.047,1.48-0.142c0.307-0.094,0.603-0.28,0.886-0.558c0.366-0.367,0.742-0.919,1.126-1.658h0.354l-1.037,3.014
			h-9.263v-0.328h0.425c0.284,0,0.552-0.068,0.807-0.204c0.189-0.094,0.317-0.236,0.386-0.426c0.068-0.189,0.102-0.576,0.102-1.161
			v-7.81c0-0.762-0.077-1.232-0.23-1.41c-0.212-0.236-0.567-0.354-1.063-0.354h-0.425v-0.328h9.263l0.133,2.633h-0.346
			c-0.124-0.632-0.261-1.066-0.412-1.303c-0.15-0.236-0.374-0.417-0.669-0.541c-0.236-0.088-0.653-0.133-1.25-0.133H79.213z"/>
		<path fill="#FFFFFF" d="M101.978,15.954l0.275,4.086h-0.275c-0.366-1.223-0.89-2.104-1.569-2.642
			c-0.679-0.538-1.495-0.807-2.446-0.807c-0.797,0-1.519,0.203-2.163,0.607c-0.644,0.405-1.15,1.05-1.52,1.937
			c-0.369,0.886-0.554,1.988-0.554,3.306c0,1.087,0.174,2.03,0.522,2.828c0.349,0.798,0.874,1.41,1.574,1.835
			s1.499,0.638,2.398,0.638c0.78,0,1.468-0.167,2.065-0.5c0.597-0.334,1.253-0.998,1.968-1.99l0.275,0.177
			c-0.603,1.07-1.306,1.853-2.11,2.349c-0.803,0.497-1.758,0.745-2.863,0.745c-1.992,0-3.534-0.739-4.627-2.216
			c-0.815-1.099-1.223-2.393-1.223-3.882c0-1.2,0.269-2.302,0.807-3.307c0.538-1.004,1.278-1.783,2.221-2.336
			c0.942-0.552,1.973-0.829,3.089-0.829c0.869,0,1.726,0.213,2.57,0.638c0.248,0.13,0.426,0.195,0.532,0.195
			c0.159,0,0.298-0.056,0.417-0.168c0.154-0.16,0.263-0.381,0.328-0.665H101.978z"/>
		<path fill="#FFFFFF" d="M109.796,15.954c1.56,0,2.912,0.593,4.056,1.777s1.715,2.664,1.715,4.437c0,1.826-0.576,3.342-1.728,4.547
			c-1.152,1.206-2.547,1.809-4.185,1.809c-1.654,0-3.044-0.588-4.17-1.764c-1.126-1.176-1.688-2.698-1.688-4.565
			c0-1.909,0.65-3.466,1.95-4.672C106.874,16.477,108.224,15.954,109.796,15.954z M109.627,16.601c-1.075,0-1.938,0.399-2.588,1.197
			c-0.81,0.993-1.214,2.447-1.214,4.361c0,1.962,0.419,3.472,1.259,4.53c0.644,0.804,1.495,1.206,2.553,1.206
			c1.129,0,2.061-0.44,2.797-1.321s1.104-2.269,1.104-4.167c0-2.057-0.405-3.59-1.214-4.601
			C111.672,17.002,110.774,16.601,109.627,16.601z"/>
		<path fill="#FFFFFF" d="M126.674,24.924l0.293,0.062l-1.028,3.262h-9.308v-0.328h0.452c0.508,0,0.872-0.166,1.09-0.497
			c0.124-0.189,0.187-0.626,0.187-1.312v-7.756c0-0.75-0.083-1.22-0.249-1.41c-0.23-0.26-0.573-0.39-1.028-0.39h-0.452v-0.328h5.443
			v0.328c-0.638-0.005-1.086,0.053-1.343,0.178c-0.257,0.124-0.433,0.28-0.527,0.47c-0.095,0.189-0.142,0.641-0.142,1.356v7.552
			c0,0.491,0.047,0.828,0.142,1.011c0.071,0.124,0.18,0.215,0.328,0.274c0.147,0.059,0.608,0.089,1.383,0.089h0.877
			c0.922,0,1.569-0.068,1.941-0.204c0.372-0.136,0.713-0.376,1.02-0.722C126.06,26.214,126.367,25.669,126.674,24.924z"/>
		<path fill="#FFFFFF" d="M137.764,24.924l0.292,0.062l-1.028,3.262h-9.308v-0.328h0.452c0.508,0,0.872-0.166,1.091-0.497
			c0.124-0.189,0.186-0.626,0.186-1.312v-7.756c0-0.75-0.083-1.22-0.248-1.41c-0.23-0.26-0.573-0.39-1.028-0.39h-0.452v-0.328h5.443
			v0.328c-0.639-0.005-1.086,0.053-1.344,0.178c-0.257,0.124-0.433,0.28-0.526,0.47c-0.096,0.189-0.143,0.641-0.143,1.356v7.552
			c0,0.491,0.047,0.828,0.143,1.011c0.07,0.124,0.18,0.215,0.327,0.274s0.608,0.089,1.383,0.089h0.878
			c0.922,0,1.568-0.068,1.941-0.204c0.372-0.136,0.712-0.376,1.02-0.722C137.148,26.214,137.456,25.669,137.764,24.924z"/>
		<path fill="#FFFFFF" d="M142.24,16.884v4.751h2.642c0.686,0,1.144-0.104,1.374-0.31c0.307-0.272,0.479-0.751,0.514-1.437h0.328
			v4.185h-0.328c-0.082-0.585-0.165-0.96-0.248-1.126c-0.106-0.207-0.28-0.37-0.522-0.487c-0.243-0.119-0.615-0.178-1.117-0.178
			h-2.642v3.962c0,0.532,0.023,0.855,0.07,0.971c0.048,0.115,0.13,0.207,0.248,0.275s0.343,0.102,0.674,0.102h2.039
			c0.68,0,1.173-0.047,1.48-0.142c0.308-0.094,0.603-0.28,0.887-0.558c0.366-0.367,0.741-0.919,1.126-1.658h0.354l-1.037,3.014
			h-9.264v-0.328h0.426c0.283,0,0.552-0.068,0.807-0.204c0.188-0.094,0.317-0.236,0.386-0.426c0.067-0.189,0.102-0.576,0.102-1.161
			v-7.81c0-0.762-0.077-1.232-0.23-1.41c-0.213-0.236-0.567-0.354-1.063-0.354h-0.426v-0.328h9.264l0.133,2.633h-0.346
			c-0.124-0.632-0.262-1.066-0.412-1.303c-0.151-0.236-0.374-0.417-0.67-0.541c-0.236-0.088-0.652-0.133-1.249-0.133H142.24z"/>
		<path fill="#FFFFFF" d="M160.679,15.954l0.31,3.794h-0.31c-0.313-0.946-0.719-1.658-1.215-2.136
			c-0.715-0.692-1.634-1.038-2.757-1.038c-1.53,0-2.695,0.606-3.493,1.817c-0.668,1.023-1.001,2.24-1.001,3.652
			c0,1.146,0.222,2.192,0.664,3.138c0.443,0.945,1.024,1.639,1.742,2.079c0.718,0.44,1.455,0.661,2.212,0.661
			c0.443,0,0.872-0.056,1.285-0.169c0.414-0.112,0.813-0.277,1.197-0.496v-3.475c0-0.603-0.046-0.997-0.138-1.184
			c-0.092-0.186-0.233-0.328-0.426-0.425s-0.53-0.146-1.015-0.146v-0.337h4.653v0.337h-0.222c-0.461,0-0.777,0.153-0.948,0.461
			c-0.118,0.218-0.177,0.65-0.177,1.294v3.679c-0.681,0.366-1.351,0.635-2.013,0.807s-1.397,0.257-2.207,0.257
			c-2.322,0-4.087-0.745-5.292-2.234c-0.904-1.117-1.356-2.405-1.356-3.865c0-1.058,0.254-2.072,0.762-3.041
			c0.604-1.152,1.431-2.039,2.482-2.66c0.881-0.514,1.921-0.771,3.12-0.771c0.438,0,0.835,0.035,1.192,0.106
			c0.357,0.071,0.864,0.228,1.521,0.47c0.331,0.124,0.553,0.186,0.665,0.186s0.208-0.052,0.288-0.155
			c0.079-0.103,0.128-0.306,0.146-0.607H160.679z"/>
		<path fill="#FFFFFF" d="M166.44,16.884v4.751h2.642c0.686,0,1.144-0.104,1.374-0.31c0.307-0.272,0.479-0.751,0.514-1.437h0.328
			v4.185h-0.328c-0.083-0.585-0.165-0.96-0.248-1.126c-0.106-0.207-0.28-0.37-0.523-0.487c-0.242-0.119-0.614-0.178-1.116-0.178
			h-2.642v3.962c0,0.532,0.023,0.855,0.07,0.971c0.048,0.115,0.13,0.207,0.249,0.275c0.117,0.068,0.342,0.102,0.673,0.102h2.039
			c0.68,0,1.173-0.047,1.48-0.142c0.308-0.094,0.603-0.28,0.887-0.558c0.366-0.367,0.741-0.919,1.126-1.658h0.354l-1.037,3.014
			h-9.264v-0.328h0.426c0.283,0,0.552-0.068,0.807-0.204c0.188-0.094,0.317-0.236,0.385-0.426c0.068-0.189,0.103-0.576,0.103-1.161
			v-7.81c0-0.762-0.077-1.232-0.23-1.41c-0.213-0.236-0.567-0.354-1.063-0.354h-0.426v-0.328h9.264l0.133,2.633h-0.346
			c-0.124-0.632-0.262-1.066-0.412-1.303s-0.374-0.417-0.67-0.541c-0.236-0.088-0.652-0.133-1.25-0.133H166.44z"/>
	</g>
	<rect x="34.227" y="12.357" fill="#FFFFFF" width="138.996" height="0.524"/>
</g>
</svg>
