<?xml version="1.0" encoding="utf-8"?>
<!-- Generator: Adobe Illustrator 16.0.0, SVG Export Plug-In . SVG Version: 6.00 Build 0)  -->
<!DOCTYPE svg PUBLIC "-//W3C//DTD SVG 1.1//EN" "http://www.w3.org/Graphics/SVG/1.1/DTD/svg11.dtd">
<svg version="1.1" id="svg3226" xmlns:svg="http://www.w3.org/2000/svg"
	 xmlns="http://www.w3.org/2000/svg" xmlns:xlink="http://www.w3.org/1999/xlink" x="0px" y="0px" width="1024px" height="136px"
	 viewBox="0 0 1024 136" enable-background="new 0 0 1024 136" xml:space="preserve">
<path id="path3135" fill="#FFFFFF" d="M863.682,129.205c2.27,0,5.826-0.48,7.601-1.131v-11.001c-2.263,0.48-4.199,0.644-5.981,0.644
	c-5.825,0-8.575-3.068-8.575-12.133V6.732h-24.915V17.74h11.326v88.488C843.137,121.279,849.125,129.205,863.682,129.205
	 M897.335,106.397v-51.13h16.982V44.267h-16.982V22.916h-13.588v21.351h-12.945v11.001h12.945v51.773
	c0,14.882,6.631,22.164,22.326,22.164c2.425,0,6.307-0.48,8.244-1.131v-11.001c-2.588,0.48-4.851,0.644-6.95,0.644
	C900.566,117.717,897.335,115.291,897.335,106.397 M678.28,53.168c17.795,0,27.014,12.62,28.471,26.696h-58.397
	C649.972,64.494,660.322,53.168,678.28,53.168 M744.122,86.17c0-19.088,12.14-32.839,29.284-32.839
	c17.314,0,29.121,14.069,29.121,32.839c0,18.764-11.807,32.848-29.121,32.848C756.262,119.018,744.122,105.26,744.122,86.17
	 M958.165,117.073h-11.326V79.539c0-17.47,8.901-26.208,24.589-26.208c14.076,0,23.141,8.738,23.141,26.208v37.534h-11.326v11.001
	h36.24v-11.001h-11.326V79.539c0-20.871-12.457-37.697-35.109-37.697c-11.807,0-20.545,4.532-26.208,11.814V6.732h-24.914V17.74
	h11.325v99.333h-11.325v11.001h36.24V117.073z M541.738,57.375V18.059h12.132V6.732h-38.34v11.326h12.132v98.689H515.53v11.326
	h38.34v-11.326h-12.132V68.375h60.83v48.373h-12.132v11.326h38.34v-11.326h-12.132V18.059h12.132V6.732h-38.34v11.326h12.132v39.316
	H541.738z M718.402,105.584h-13.589c-4.856,8.414-13.588,13.589-26.046,13.589c-18.933,0-29.121-11.489-30.414-28.471h71.993v-5.988
	c0-25.558-16.339-42.872-42.066-42.872c-25.883,0-43.841,18.283-43.841,44.328c0,26.209,17.958,44.329,43.841,44.329
	C697.206,130.499,711.771,120.955,718.402,105.584 M802.047,128.074h24.914v-11.001h-11.326V55.268h11.326V44.267h-24.914v12.458
	c-7.12-9.219-17.803-14.882-30.422-14.882c-23.776,0-41.409,19.089-41.409,44.328c0,25.24,17.633,44.329,41.409,44.329
	c12.619,0,23.302-5.663,30.422-14.882V128.074z"/>
<path id="path3139" fill="#CC0000" d="M46.513,3.501c-4.596,0-9.184,1.753-12.698,5.274L8.406,34.185
	c-7,6.999-7,18.389,0.028,25.409l71.71,71.711l71.71-71.711c7.021-7.013,7.006-18.396-0.011-25.409L126.456,8.789
	c-3.514-3.528-8.102-5.281-12.69-5.281c-4.609,0-9.212,1.768-12.74,5.303L80.147,29.695L59.235,8.782
	c-3.507-3.521-8.109-5.281-12.719-5.281 M282.885,6.732h39.641l20.383,78.307l21.839-78.307h38.178L362.161,127.91h-38.666
	L282.885,6.732z M291.136,80.832c-2.1,31.871-23.133,50.473-57.917,50.473c-38.666,0-62.286-24.59-62.286-63.898
	c0-39.642,23.783-64.068,61.48-64.068c35.102,0,55.81,17.795,58.08,49.178h-37.054c-1.131-12.294-8.088-18.764-20.545-18.764
	c-15.208,0-22.808,11.164-22.808,33.653c0,22.002,8.251,33.482,23.939,33.482c11.814,0,19.251-7.119,20.39-20.057H291.136z
	 M433.991,90.051c1.944,9.064,7.119,12.302,17.795,12.302c9.382,0,14.564-3.4,14.564-8.745c0-7.601-6.957-8.244-21.358-11.97
	c-16.827-4.362-27.665-8.088-32.678-11.651c-9.389-6.624-13.913-16.013-13.913-27.982c0-23.458,18.438-38.666,50.635-38.666
	c31.228,0,49.666,13.751,51.772,38.185h-36.728c-1.294-7.282-6.307-10.683-15.688-10.683c-8.251,0-12.302,2.75-12.302,8.25
	c0,6.476,6.313,7.607,17.965,10.676c15.045,3.889,27.014,6.313,34.614,11.489c10.683,7.119,15.532,15.858,15.532,28.315
	c0,26.363-18.926,41.734-54.035,41.734c-32.515,0-51.61-15.371-54.035-41.254H433.991L433.991,90.051z"/>
</svg>
