<?xml version="1.0" encoding="utf-8"?>
<!-- Generator: Adobe Illustrator 16.0.0, SVG Export Plug-In . SVG Version: 6.00 Build 0)  -->
<!DOCTYPE svg PUBLIC "-//W3C//DTD SVG 1.1//EN" "http://www.w3.org/Graphics/SVG/1.1/DTD/svg11.dtd">
<svg version="1.1" id="Layer_1" xmlns="http://www.w3.org/2000/svg" xmlns:xlink="http://www.w3.org/1999/xlink" x="0px" y="0px"
	 width="288px" height="64.684px" viewBox="0 0 288 64.684" enable-background="new 0 0 288 64.684" xml:space="preserve">
<polygon fill="#4984BA" points="162.268,16.961 162.268,4.323 167.977,4.303 167.983,32.031 158.823,32.031 158.823,36.393 
	185.646,36.393 185.649,32.031 176.489,32.031 176.496,4.303 182.032,4.303 182.037,16.969 186.591,16.969 186.591,0 157.695,0 
	157.713,16.961 "/>
<polygon fill="#4984BA" points="125.663,32.039 117.172,32.031 117.148,4.338 125.663,4.322 125.663,0.038 100.239,0.038 
	100.239,4.322 108.666,4.331 108.666,32.031 100.239,32.039 100.239,36.378 125.662,36.378 "/>
<polygon fill="#4984BA" points="131.796,16.961 131.796,4.323 137.504,4.303 137.512,32.031 128.351,32.031 128.351,36.393 
	155.174,36.393 155.178,32.031 146.018,32.031 146.025,4.303 151.56,4.303 151.565,16.969 156.119,16.969 156.119,0 127.225,0 
	127.241,16.961 "/>
<rect y="47.754" fill="#FFFFFF" width="5.164" height="16.652"/>
<polygon fill="#FFFFFF" points="7.662,51.87 12.918,51.87 12.918,64.407 18.058,64.407 18.058,51.87 23.314,51.87 23.314,47.754 
	7.662,47.754 "/>
<polygon fill="#FFFFFF" points="24.448,51.87 29.705,51.87 29.705,64.407 34.844,64.407 34.844,51.87 40.101,51.87 40.101,47.754 
	24.448,47.754 "/>
<polygon fill="#FFFFFF" points="48.987,51.87 54.243,51.87 54.243,64.407 59.383,64.407 59.383,51.87 64.639,51.87 64.639,47.754 
	48.987,47.754 "/>
<path fill="#FFFFFF" d="M75.961,52.842c-1-0.523-2.364-0.785-4.091-0.785c-2.129,0-3.798,0.584-5.006,1.752
	c-1.208,1.168-1.813,2.695-1.813,4.584c0,1.328,0.301,2.482,0.904,3.465s1.362,1.699,2.279,2.15
	c0.917,0.451,2.175,0.676,3.775,0.676c1.841,0,3.255-0.262,4.24-0.789c0.985-0.525,1.827-1.395,2.524-2.605l-4.559-0.418
	c-0.289,0.359-0.558,0.611-0.809,0.754c-0.41,0.225-0.843,0.338-1.299,0.338c-0.721,0-1.306-0.26-1.754-0.783
	c-0.319-0.363-0.52-0.916-0.604-1.658h9.28v-0.523c0-1.594-0.261-2.887-0.784-3.881S76.962,53.366,75.961,52.842z M69.761,57.313
	c0.076-0.723,0.254-1.268,0.536-1.633c0.44-0.586,1.03-0.879,1.767-0.879c0.639,0,1.153,0.193,1.544,0.582s0.632,1.031,0.724,1.93
	H69.761z"/>
<path fill="#FFFFFF" d="M90.139,59.684c-0.205,0.641-0.513,1.113-0.926,1.422c-0.413,0.309-0.922,0.463-1.528,0.463
	c-0.727,0-1.326-0.258-1.795-0.771c-0.469-0.516-0.705-1.27-0.705-2.262c0-1.113,0.237-1.943,0.711-2.492s1.094-0.824,1.861-0.824
	c0.607,0,1.09,0.131,1.451,0.393c0.36,0.262,0.608,0.65,0.745,1.166l4.349-0.582c-0.417-1.354-1.143-2.381-2.177-3.086
	c-1.034-0.701-2.537-1.053-4.507-1.053c-1.41,0-2.566,0.184-3.468,0.557c-0.568,0.234-1.122,0.592-1.659,1.074
	c-0.539,0.48-0.963,1.023-1.274,1.631c-0.424,0.826-0.636,1.859-0.636,3.104c0,1.189,0.174,2.145,0.522,2.863
	c0.349,0.721,0.83,1.348,1.443,1.883c0.614,0.533,1.347,0.92,2.199,1.158c0.853,0.24,1.918,0.357,3.199,0.357
	c1.326,0,2.419-0.186,3.279-0.557c0.86-0.373,1.566-0.895,2.119-1.566c0.553-0.674,0.951-1.469,1.193-2.389L90.139,59.684z"/>
<path fill="#FFFFFF" d="M100.992,58.606c0-1.098,0.173-1.859,0.519-2.285c0.346-0.424,0.798-0.637,1.354-0.637
	c0.504,0,0.896,0.158,1.174,0.473c0.279,0.314,0.418,0.85,0.418,1.609v6.641h4.651v-7.678c0-1.584-0.361-2.758-1.083-3.523
	c-0.722-0.768-1.71-1.148-2.965-1.148c-0.846,0-1.58,0.141-2.199,0.422s-1.243,0.748-1.87,1.402v-6.127h-4.628v16.652h4.628V58.606z
	"/>
<path fill="#FFFFFF" d="M124.614,64.407v-7.678c0-1.592-0.361-2.768-1.083-3.529c-0.722-0.762-1.721-1.143-2.999-1.143
	c-0.944,0-1.745,0.172-2.403,0.518c-0.657,0.346-1.308,0.92-1.95,1.725v-1.965h-4.311v12.072h4.628v-5.801
	c0-1.098,0.173-1.859,0.52-2.285c0.346-0.424,0.798-0.637,1.354-0.637c0.504,0,0.896,0.158,1.174,0.473s0.417,0.85,0.417,1.609
	v6.641H124.614z"/>
<rect x="127.536" y="52.334" fill="#FFFFFF" width="4.628" height="12.072"/>
<rect x="127.536" y="47.754" fill="#FFFFFF" width="4.628" height="3.139"/>
<path fill="#FFFFFF" d="M136.533,63.168c0.613,0.533,1.347,0.92,2.199,1.158c0.853,0.24,1.918,0.357,3.199,0.357
	c1.325,0,2.419-0.186,3.277-0.557c0.86-0.373,1.567-0.895,2.119-1.566c0.554-0.674,0.951-1.469,1.194-2.389l-4.396-0.488
	c-0.204,0.641-0.513,1.113-0.926,1.422s-0.922,0.463-1.528,0.463c-0.727,0-1.326-0.258-1.795-0.771
	c-0.47-0.516-0.704-1.27-0.704-2.262c0-1.113,0.236-1.943,0.711-2.492c0.474-0.549,1.094-0.824,1.86-0.824
	c0.607,0,1.091,0.131,1.451,0.393c0.359,0.262,0.607,0.65,0.744,1.166l4.351-0.582c-0.417-1.354-1.144-2.381-2.178-3.086
	c-1.035-0.701-2.536-1.053-4.509-1.053c-1.408,0-2.564,0.184-3.467,0.557c-0.568,0.234-1.121,0.592-1.659,1.074
	c-0.538,0.48-0.962,1.023-1.273,1.631c-0.425,0.826-0.637,1.859-0.637,3.104c0,1.189,0.175,2.145,0.522,2.863
	C135.439,62.006,135.92,62.633,136.533,63.168z"/>
<path fill="#FFFFFF" d="M159.124,62.94c0.053,0.346,0.105,0.6,0.159,0.762c0.053,0.16,0.167,0.396,0.34,0.705h4.331
	c-0.242-0.5-0.398-0.912-0.471-1.234s-0.108-0.768-0.108-1.336v-5.334c0-0.568-0.113-1.166-0.34-1.791
	c-0.228-0.625-0.537-1.109-0.931-1.449c-0.56-0.494-1.259-0.818-2.098-0.973c-0.84-0.156-1.951-0.232-3.335-0.232
	c-0.862,0-1.663,0.064-2.405,0.193c-0.74,0.129-1.323,0.311-1.746,0.545c-0.591,0.326-1.043,0.711-1.356,1.156
	c-0.313,0.443-0.553,1.053-0.72,1.826l4.419,0.465c0.181-0.527,0.419-0.885,0.714-1.076c0.378-0.244,0.944-0.365,1.699-0.365
	c0.59,0,1.002,0.113,1.235,0.34c0.234,0.229,0.352,0.627,0.352,1.195c-0.574,0.227-1.12,0.41-1.636,0.553
	c-0.515,0.139-1.639,0.385-3.373,0.734c-1.446,0.287-2.438,0.729-2.977,1.32c-0.536,0.594-0.806,1.348-0.806,2.268
	c0,0.979,0.373,1.803,1.118,2.471c0.746,0.668,1.839,1.002,3.277,1.002c1.083,0,2.033-0.166,2.852-0.498
	C157.917,63.936,158.519,63.522,159.124,62.94z M155.082,61.776c-0.255-0.232-0.382-0.533-0.382-0.9c0-0.32,0.129-0.607,0.387-0.859
	c0.251-0.246,0.846-0.494,1.786-0.746c0.689-0.176,1.354-0.379,1.99-0.609v0.746c0,0.582-0.092,1.055-0.278,1.418
	c-0.186,0.363-0.5,0.672-0.944,0.924c-0.443,0.252-0.923,0.379-1.438,0.379C155.71,62.127,155.335,62.01,155.082,61.776z"/>
<rect x="166.298" y="47.754" fill="#FFFFFF" width="4.629" height="16.652"/>
<rect x="182.151" y="47.754" fill="#FFFFFF" width="5.163" height="16.652"/>
<path fill="#FFFFFF" d="M199.337,52.057c-0.945,0-1.745,0.172-2.403,0.518c-0.657,0.346-1.308,0.92-1.95,1.725v-1.965h-4.31v12.072
	h4.629v-5.801c0-1.098,0.172-1.859,0.519-2.285c0.346-0.424,0.798-0.637,1.354-0.637c0.504,0,0.896,0.158,1.174,0.473
	s0.418,0.85,0.418,1.609v6.641h4.651v-7.678c0-1.592-0.361-2.768-1.083-3.529S200.615,52.057,199.337,52.057z"/>
<path fill="#FFFFFF" d="M215.863,57.262c-0.748-0.313-1.892-0.555-3.428-0.729c-1.014-0.121-1.671-0.258-1.97-0.41
	c-0.3-0.15-0.449-0.375-0.449-0.67c0-0.266,0.118-0.492,0.356-0.676c0.237-0.186,0.616-0.279,1.137-0.279
	c0.513,0,0.95,0.121,1.313,0.361c0.264,0.182,0.453,0.463,0.565,0.848l4.373-0.418c-0.302-0.789-0.682-1.416-1.14-1.879
	s-1.028-0.805-1.712-1.023c-0.685-0.221-1.745-0.33-3.182-0.33c-1.36,0-2.446,0.141-3.254,0.426
	c-0.81,0.283-1.444,0.715-1.905,1.289c-0.461,0.576-0.692,1.262-0.692,2.059c0,0.727,0.214,1.375,0.642,1.943
	c0.427,0.568,0.953,0.971,1.577,1.209c0.624,0.24,1.739,0.5,3.343,0.779c1.074,0.189,1.736,0.35,1.986,0.479
	c0.349,0.182,0.522,0.439,0.522,0.771c0,0.297-0.132,0.543-0.398,0.74c-0.34,0.266-0.821,0.398-1.442,0.398
	c-0.568,0-1.022-0.117-1.364-0.352c-0.341-0.232-0.605-0.619-0.795-1.162l-4.582,0.42c0.265,1.16,0.864,2.055,1.799,2.684
	s2.503,0.943,4.705,0.943c1.56,0,2.79-0.193,3.694-0.584s1.567-0.916,1.986-1.574c0.42-0.66,0.63-1.338,0.63-2.035
	c0-0.689-0.198-1.322-0.595-1.9C217.186,58.014,216.613,57.573,215.863,57.262z"/>
<path fill="#FFFFFF" d="M226.929,61.405c-0.38,0-0.646-0.127-0.797-0.385c-0.1-0.166-0.148-0.506-0.148-1.02v-4.27h2.535v-3.396
	h-2.535v-4.58l-4.628,2.369v2.211h-1.697v3.396h1.697v4.244c0,1.348,0.131,2.32,0.392,2.922s0.665,1.051,1.21,1.346
	s1.394,0.441,2.545,0.441c0.991,0,2.06-0.125,3.202-0.375l-0.342-3.197C227.748,61.307,227.271,61.405,226.929,61.405z"/>
<rect x="230.88" y="47.754" fill="#FFFFFF" width="4.627" height="3.139"/>
<rect x="230.88" y="52.334" fill="#FFFFFF" width="4.627" height="12.072"/>
<path fill="#FFFFFF" d="M244.995,61.405c-0.379,0-0.645-0.127-0.797-0.385c-0.098-0.166-0.147-0.506-0.147-1.02v-4.27h2.535v-3.396
	h-2.535v-4.58l-4.629,2.369v2.211h-1.697v3.396h1.697v4.244c0,1.348,0.131,2.32,0.393,2.922s0.665,1.051,1.21,1.346
	s1.393,0.441,2.544,0.441c0.992,0,2.061-0.125,3.203-0.375l-0.341-3.197C245.815,61.307,245.337,61.405,244.995,61.405z"/>
<path fill="#FFFFFF" d="M256.854,58.153c0,1.102-0.175,1.865-0.525,2.289c-0.35,0.426-0.8,0.639-1.349,0.639
	c-0.504,0-0.895-0.16-1.174-0.479s-0.418-0.857-0.418-1.617v-6.65h-4.651v7.688c0,1.586,0.361,2.758,1.083,3.52
	c0.721,0.762,1.718,1.143,2.987,1.143c0.952,0,1.756-0.17,2.409-0.51c0.654-0.34,1.302-0.912,1.944-1.715v1.947h4.321V52.334h-4.628
	V58.153z"/>
<path fill="#FFFFFF" d="M270.815,61.405c-0.38,0-0.646-0.127-0.797-0.385c-0.099-0.166-0.148-0.506-0.148-1.02v-4.27h2.535v-3.396
	h-2.535v-4.58l-4.628,2.369v2.211h-1.698v3.396h1.698v4.244c0,1.348,0.131,2.32,0.392,2.922s0.664,1.051,1.21,1.346
	s1.394,0.441,2.544,0.441c0.992,0,2.06-0.125,3.204-0.375l-0.342-3.197C271.635,61.307,271.157,61.405,270.815,61.405z"/>
<path fill="#FFFFFF" d="M288,58.999c0-1.594-0.262-2.887-0.784-3.881c-0.523-0.994-1.284-1.752-2.284-2.275
	s-2.363-0.785-4.091-0.785c-2.129,0-3.798,0.584-5.006,1.752c-1.209,1.168-1.813,2.695-1.813,4.584c0,1.328,0.301,2.482,0.904,3.465
	c0.602,0.982,1.361,1.699,2.279,2.15c0.916,0.451,2.174,0.676,3.773,0.676c1.842,0,3.256-0.262,4.241-0.789
	c0.985-0.525,1.826-1.395,2.523-2.605l-4.559-0.418c-0.288,0.359-0.558,0.611-0.81,0.754c-0.409,0.225-0.842,0.338-1.298,0.338
	c-0.722,0-1.306-0.26-1.755-0.783c-0.318-0.363-0.52-0.916-0.604-1.658H288V58.999z M278.731,57.313
	c0.076-0.723,0.254-1.268,0.536-1.633c0.44-0.586,1.029-0.879,1.767-0.879c0.638,0,1.152,0.193,1.544,0.582s0.633,1.031,0.724,1.93
	H278.731z"/>
</svg>
