<?xml version="1.0" encoding="utf-8"?>
<!-- Generator: Adobe Illustrator 16.0.0, SVG Export Plug-In . SVG Version: 6.00 Build 0)  -->
<!DOCTYPE svg PUBLIC "-//W3C//DTD SVG 1.1//EN" "http://www.w3.org/Graphics/SVG/1.1/DTD/svg11.dtd">
<svg version="1.1" id="layer" xmlns="http://www.w3.org/2000/svg" xmlns:xlink="http://www.w3.org/1999/xlink" x="0px" y="0px"
	 width="525px" height="159px" viewBox="212.5 196.5 525 159" enable-background="new 212.5 196.5 525 159" xml:space="preserve">
<path fill="#A0001E" d="M276.442,228.38l-34.27,61.325h19.325l25.166-45.521l25.166,45.521h19.325l-34.27-61.325H276.442z"/>
<path fill="#A0001E" d="M217.693,201.754v100.663l68.797,48.871l69.141-49.128V201.754H217.693z M286.491,331.705l-52.65-37.361
	v-76.871h105.73v76.613L286.491,331.705z"/>
<g>
	<path fill="#20292D" d="M410.086,280.344c0,4.724,2.147,5.926,7.645,5.926h3.778c6.7,0,9.62-4.208,15.976-15.545h3.092
		l-3.092,18.981h-47.239v-3.092c6.098-0.688,7.042-1.202,7.042-6.012v-43.289c0-4.81-0.858-5.325-7.042-6.012v-3.092h26.883v3.092
		c-6.099,0.687-7.043,1.202-7.043,6.012V280.344z M484.724,280.086c0,3.006,0.602,4.896,2.921,4.896
		c1.288,0,2.576-0.429,3.521-0.858l0.515,1.889c-2.576,3.007-5.84,4.639-9.963,4.639c-4.724,0-7.901-2.92-8.761-7.73
		c-2.834,3.693-7.387,7.559-13.656,7.559c-7.129,0-11.853-4.295-11.853-11.337c0-7.558,5.411-10.564,12.024-13.055l13.227-4.81
		v-7.472c0-4.981-1.632-8.589-6.184-8.589c-4.209,0-5.841,3.178-5.841,7.386c0,1.718,0.258,3.521,0.688,5.411l-7.301,0.945
		c-2.405-0.773-3.865-2.663-3.865-5.497c0-7.3,7.559-11.08,17.264-11.08c11.252,0,17.35,4.123,17.35,14.344L484.724,280.086
		L484.724,280.086z M472.613,280.859v-16.405l-7.558,3.092c-3.693,1.375-5.927,3.436-5.927,8.332c0,4.552,2.062,7.816,6.785,7.816
		C468.405,283.693,470.123,282.662,472.613,280.859 M556.184,257.411c0-4.981-1.717-7.559-6.27-7.559
		c-3.521,0-6.27,1.632-9.019,3.693v29.546c0,3.092,1.117,3.607,5.153,3.865v2.92H523.46v-3.006c4.123-0.258,5.239-0.773,5.239-3.865
		v-25.681c0-4.981-1.718-7.558-6.27-7.558c-3.521,0-6.271,1.632-9.104,3.607v29.632c0,3.092,1.202,3.607,5.239,3.865v2.92h-22.847
		v-2.92c4.123-0.258,5.497-0.773,5.497-3.865V252l-5.239-3.092v-1.632l15.718-4.81h1.976l-0.344,8.675
		c3.693-4.724,8.331-8.675,15.718-8.675c6.355,0,10.221,2.749,11.423,8.847c3.693-4.638,8.761-8.847,16.062-8.847
		c8.074,0,12.024,4.81,12.024,14.086v26.454c0,3.092,1.375,3.607,5.411,3.865v2.92h-22.761v-2.92
		c4.037-0.258,5.153-0.773,5.153-3.865L556.184,257.411L556.184,257.411z M577.227,227.264v-1.804l15.547-4.208h1.889v29.546
		c2.921-4.38,7.73-8.245,14.688-8.245c10.65,0,17.436,7.816,17.436,21.3c0,17.179-10.564,26.884-24.135,26.884
		c-7.73,0-15.202-1.976-20.27-6.098v-54.541C582.466,229.926,577.227,227.264,577.227,227.264z M614.503,268.062
		c0-10.736-3.951-18.209-12.196-18.209c-2.92,0-5.669,1.203-7.73,3.092v24.479c0,6.7,2.663,10.049,7.988,10.049
		C610.037,287.387,614.503,278.883,614.503,268.062 M660.024,227.264v-1.804l15.546-4.208h1.89v59.35
		c0,3.006,0.172,3.951,3.521,4.208l2.147,0.172v2.663l-15.976,3.178h-2.319l0.344-8.16c-3.521,4.982-7.987,8.16-14.086,8.16
		c-10.564,0-17.693-8.589-17.693-21.902c0-16.577,9.792-26.11,22.332-26.11c4.036,0,7.386,1.116,9.447,3.092v-15.804
		C665.264,229.926,660.024,227.264,660.024,227.264z M645.509,264.54c0,10.65,4.381,18.638,12.368,18.638
		c3.007,0,5.411-0.945,7.473-2.834v-23.104c0-6.871-2.92-10.822-8.159-10.822C649.804,246.417,645.509,253.632,645.509,264.54
		 M726.073,280.086c0,3.006,0.602,4.896,2.921,4.896c1.288,0,2.576-0.429,3.521-0.858l0.515,1.889
		c-2.576,3.007-5.84,4.639-9.963,4.639c-4.724,0-7.901-2.92-8.761-7.73c-2.834,3.693-7.387,7.559-13.656,7.559
		c-7.129,0-11.853-4.295-11.853-11.337c0-7.558,5.411-10.564,12.024-13.055l13.227-4.81v-7.472c0-4.981-1.632-8.589-6.184-8.589
		c-4.209,0-5.841,3.178-5.841,7.386c0,1.718,0.258,3.521,0.688,5.411l-7.301,0.945c-2.405-0.773-3.865-2.663-3.865-5.497
		c0-7.3,7.559-11.08,17.264-11.08c11.252,0,17.35,4.123,17.35,14.344C726.073,256.81,726.073,280.086,726.073,280.086z
		 M713.963,280.859v-16.405l-7.558,3.092c-3.693,1.375-5.927,3.436-5.927,8.332c0,4.552,2.062,7.816,6.785,7.816
		C709.755,283.693,711.559,282.662,713.963,280.859"/>
</g>
</svg>
