<?xml version="1.0" encoding="utf-8"?>
<!-- Generator: Adobe Illustrator 16.0.0, SVG Export Plug-In . SVG Version: 6.00 Build 0)  -->
<!DOCTYPE svg PUBLIC "-//W3C//DTD SVG 1.1//EN" "http://www.w3.org/Graphics/SVG/1.1/DTD/svg11.dtd">
<svg version="1.1" id="svg3226" xmlns:svg="http://www.w3.org/2000/svg"
	 xmlns="http://www.w3.org/2000/svg" xmlns:xlink="http://www.w3.org/1999/xlink" x="0px" y="0px" width="1029.738px"
	 height="382.938px" viewBox="-42.289 436.087 1029.738 382.938" enable-background="new -42.289 436.087 1029.738 382.938"
	 xml:space="preserve">
<path fill-rule="evenodd" clip-rule="evenodd" fill="#5D9631" d="M987.449,491.558c-0.475,3.388-0.95,6.775-1.422,10.164
	c-1.591,11.419-4.849,22.366-9.563,32.862c-8.5,18.923-20.968,34.808-37.201,47.691c-14.026,11.134-29.7,19.078-47.033,23.681
	c-0.341,0.09-0.687,0.396-1.147,0.027c1.739-3,3.535-5.983,5.222-9.026c9.55-17.23,14.606-35.683,15.173-55.394
	c0.319-11.132-0.771-22.115-2.951-33.011c-0.215-1.071-0.196-1.849,0.888-2.587c16.802-11.437,34.595-20.734,54.559-25.331
	c7.714-1.776,15.534-2.764,23.478-2.467C987.449,482.631,987.449,487.094,987.449,491.558z"/>
<path fill-rule="evenodd" clip-rule="evenodd" fill="#F37320" d="M864.648,436.087c7.476,7.115,13.738,15.173,18.819,24.154
	c6.658,11.771,11.324,24.292,14.14,37.51c0.331,1.557,0.53,3.145,0.946,4.677c0.423,1.554-0.006,2.603-1.254,3.613
	c-4.954,4.011-9.49,8.467-13.796,13.166c-7.255,7.918-13.4,16.602-18.296,26.165c-0.196,0.383-0.261,0.993-0.746,1.039
	c-0.649,0.061-0.7-0.637-0.919-1.06c-7.824-15.12-18.599-27.857-31.499-38.851c-1.524-1.299-2.212-2.371-1.859-4.589
	c2.606-16.357,7.769-31.728,16.982-45.6c4.479-6.743,9.636-12.94,15.367-18.66c0.485-0.483,1.131-0.847,1.35-1.565
	C864.139,436.087,864.394,436.087,864.648,436.087z"/>
<path fill-rule="evenodd" clip-rule="evenodd" fill="#5D9631" d="M685.23,819.025c-3.974-0.468-7.95-0.896-11.916-1.41
	c-16.475-2.134-32.201-6.88-47.336-13.654c-7.497-3.356-14.746-7.191-21.705-11.561c-2.376-1.492-3.172-3.206-2.65-5.375
	c1.064-4.416,3.901-5.687,8.288-3.485c4.265,2.141,8.427,4.488,12.631,6.751c13.806,7.433,28.519,12.111,43.955,14.725
	c11.207,1.896,22.464,2.963,33.828,2.836c18.39-0.205,36.152-3.685,53.345-10.188c15.966-6.041,30.601-14.431,43.892-25.101
	c18.052-14.491,32.523-31.975,43.329-52.483c7.352-13.955,12.512-28.676,15.615-44.115c1.229-6.115,2.018-12.309,2.48-18.535
	c0.206-2.774,2.33-4.488,5.423-4.352c3.125,0.138,5.173,1.956,5.061,4.759c-0.276,6.824-1.357,13.556-2.637,20.253
	c-3.074,16.101-8.336,31.469-15.719,46.097c-7.65,15.155-17.307,28.915-28.983,41.254c-10.384,10.975-22,20.425-34.881,28.315
	c-14.48,8.872-29.953,15.4-46.399,19.654c-10.874,2.813-21.902,4.592-33.111,5.284c-0.622,0.039-1.234,0.218-1.852,0.332
	C699.002,819.025,692.116,819.025,685.23,819.025z"/>
<path fill-rule="evenodd" clip-rule="evenodd" fill="#5D9631" d="M838.154,606.008c-8.154-2.075-15.489-4.725-22.587-8.031
	c-18.081-8.42-33.45-20.388-45.995-35.853c-13.737-16.935-22.504-36.21-26.262-57.731c-1.396-7.993-2-16.043-1.938-24.15
	c0.02-2.542,0.004-2.523,2.479-2.493c15.131,0.19,29.444,3.958,43.274,9.856c11.283,4.811,21.849,10.903,31.996,17.766
	c1.19,0.806,1.521,1.516,1.22,2.94c-2.083,9.875-3.149,19.883-3.056,29.965c0.17,18.206,4.043,35.595,12.007,52.031
	C831.842,595.57,834.756,600.622,838.154,606.008z"/>
<path fill-rule="evenodd" clip-rule="evenodd" fill="#FBAF40" d="M850.803,589.176c3.597-8.752,7.156-17.101,11.41-25.128
	c0.495-0.936,0.847-2.483,2.095-2.431c1.07,0.046,1.412,1.492,1.916,2.407c3.311,6.016,6.022,12.306,8.515,18.695
	c0.805,2.063,1.637,4.114,2.642,6.172c0.434-1.682,0.036-3.396-0.195-5.047c-1.287-9.194-4.017-18.036-7.952-26.372
	c-1.779-3.771-0.202-6.272,1.282-9.011c5.38-9.926,11.807-19.119,19.677-27.269c3.185-3.298,6.5-6.435,10.068-9.313
	c0.98-0.791,1.287-0.888,1.703,0.489c1.63,5.388,2.301,10.934,2.8,16.495c1.08,12.03-0.063,23.911-2.982,35.599
	c-2.801,11.209-7.146,21.821-13.072,31.758c-2.079,3.486-4.217,6.939-6.619,10.224c-0.497,0.679-0.992,1.036-1.832,1.124
	c-10.425,1.093-20.854,0.967-31.289,0.196c-1.357-0.101-2.151-0.935-2.89-1.936c-5.038-6.828-9.238-14.139-12.695-21.884
	c-4.324-9.693-7.275-19.799-8.846-30.286c-1.902-12.713-1.491-25.371,1.236-37.942c0.256-1.178,0.67-2.327,0.843-3.515
	c0.215-1.477,0.73-1.131,1.545-0.442c4.813,4.07,9.325,8.465,13.587,13.091c4.776,5.183,9.229,10.656,12.981,16.647
	c2.159,3.446,4.122,7.005,5.492,10.858c0.403,1.135,0.358,2.157-0.196,3.284c-4.589,9.325-7.365,19.206-8.838,29.467
	C851.012,586.335,850.399,587.528,850.803,589.176z"/>
<path fill="#FFFFFF" d="M11.099,644.863c2.294-5.212,4.586-10.376,6.844-15.556c6.153-14.107,12.292-28.222,18.435-42.334
	c3.048-7.003,6.113-13.996,9.11-21.021c0.437-1.021,0.937-1.451,2.086-1.437c4.972,0.063,9.946,0.07,14.917,0.002
	c1.272-0.017,1.575,0.384,1.574,1.615c-0.034,33.152-0.039,66.305,0.004,99.457c0.002,1.549-0.467,1.942-1.946,1.889
	c-2.993-0.108-5.993-0.065-8.988-0.011c-1.05,0.019-1.56-0.277-1.458-1.394c0.058-0.633,0.007-1.275,0.007-1.912
	c0.003-27.032,0.008-54.063,0.003-81.096c0-0.351,0.162-0.75-0.193-1.081c-0.677,0.063-0.659,0.712-0.829,1.108
	c-11.69,27.323-23.381,54.647-34.983,82.009c-0.806,1.898-1.788,2.468-3.788,2.398c-4.819-0.168-4.783-0.077-6.625-4.392
	c-11.523-26.975-23.065-53.94-34.603-80.909c-0.066-0.156-0.161-0.302-0.299-0.558c-0.44,0.498-0.282,1.007-0.282,1.461
	c-0.003,27.415-0.013,54.829,0.035,82.244c0.003,1.601-0.254,2.261-2.064,2.151c-2.985-0.181-5.99-0.08-8.986-0.029
	c-0.976,0.017-1.444-0.26-1.331-1.284c0.042-0.378,0.006-0.765,0.006-1.146c0-32.771,0.012-65.541-0.035-98.311
	c-0.002-1.654,0.28-2.293,2.128-2.237c4.905,0.147,9.817,0.097,14.726,0.02c1.169-0.019,1.662,0.414,2.094,1.418
	c11.104,25.76,22.234,51.509,33.37,77.254C10.271,643.743,10.375,644.41,11.099,644.863z"/>
<path fill="#FFFFFF" d="M726.468,581.635c-2.003,4.659-4.016,9.314-6.009,13.978c-9.975,23.349-19.952,46.695-29.895,70.058
	c-0.541,1.271-1.164,1.953-2.661,1.813c-1.831-0.17-4.101,0.525-5.407-0.333c-1.305-0.855-1.688-3.152-2.412-4.845
	c-11.277-26.388-22.544-52.78-33.825-79.167c-0.164-0.385-0.22-0.881-0.788-1.1c-0.421,0.393-0.199,0.918-0.199,1.368
	c-0.012,27.479-0.02,54.958,0.012,82.438c0.002,1.246-0.326,1.67-1.601,1.636c-3.122-0.082-6.248-0.066-9.372-0.009
	c-1.055,0.02-1.571-0.267-1.429-1.383c0.039-0.313,0.005-0.637,0.005-0.956c0-32.835,0.014-65.669-0.037-98.504
	c-0.002-1.641,0.321-2.185,2.064-2.133c4.586,0.135,9.184,0.163,13.768-0.011c1.906-0.073,2.765,0.545,3.5,2.261
	c7.894,18.427,15.873,36.816,23.826,55.217c3.132,7.244,6.264,14.49,9.389,21.737c0.177,0.408,0.273,0.859,0.867,1.161
	c1.732-3.937,3.476-7.86,5.19-11.796c9.712-22.284,19.425-44.566,29.099-66.865c0.519-1.197,1.096-1.724,2.49-1.694
	c4.78,0.101,9.563,0.074,14.345,0.01c1.251-0.018,1.759,0.205,1.757,1.633c-0.041,33.218-0.037,66.436,0.002,99.652
	c0.002,1.368-0.41,1.727-1.731,1.683c-2.929-0.095-5.868-0.118-8.796,0.008c-1.492,0.064-1.766-0.44-1.763-1.83
	c0.044-22.506,0.03-45.012,0.03-67.519c0-5.466,0-10.932,0-16.397C726.747,581.708,726.607,581.672,726.468,581.635z"/>
<path fill="#FFFFFF" d="M432.205,582.686c0,1.716,0,3.369,0,5.021c0,25.82-0.019,51.641,0.042,77.461
	c0.005,1.813-0.388,2.452-2.288,2.33c-2.73-0.176-5.485-0.152-8.219-0.008c-1.662,0.088-1.962-0.517-1.955-2.04
	c0.058-13.196,0.033-26.394,0.033-39.59c0-19.765,0.027-39.528-0.047-59.292c-0.006-1.752,0.495-2.11,2.119-2.062
	c3.886,0.115,7.778,0.08,11.666,0.012c1.261-0.021,2.08,0.314,2.837,1.406c13.038,18.782,26.125,37.531,39.195,56.291
	c6.223,8.932,12.435,17.872,18.65,26.809c0.138,0.198,0.223,0.462,0.612,0.398c0.366-0.608,0.146-1.315,0.147-1.975
	c0.013-26.969,0.03-53.936-0.039-80.903c-0.005-1.758,0.498-2.113,2.113-2.04c2.863,0.13,5.737,0.079,8.605,0.012
	c1.167-0.027,1.667,0.181,1.666,1.542c-0.042,33.216-0.043,66.431-0.002,99.646c0.001,1.469-0.439,1.814-1.843,1.781
	c-4.014-0.096-8.033-0.084-12.048-0.004c-1.175,0.024-1.887-0.397-2.52-1.31c-6.385-9.209-12.782-18.41-19.19-27.604
	c-12.853-18.439-25.714-36.873-38.57-55.31C432.995,583.011,432.903,582.679,432.205,582.686z"/>
<path fill="#FFFFFF" d="M394.438,649.359c0-2.407,0-4.813,0-7.22c-0.001-25.185,0.018-50.369-0.048-75.554
	c-0.004-1.722,0.44-2.161,2.107-2.084c2.99,0.141,5.992,0.074,8.987,0.025c0.992-0.016,1.426,0.294,1.298,1.308
	c-0.048,0.377-0.011,0.765-0.011,1.146c0,32.771-0.014,65.543,0.043,98.314c0.003,1.79-0.489,2.254-2.239,2.192
	c-3.884-0.136-7.778-0.082-11.666-0.012c-1.148,0.021-1.88-0.327-2.535-1.271c-13.083-18.826-26.193-37.634-39.295-56.447
	c-6.224-8.938-12.443-17.88-18.662-26.821c-0.145-0.209-0.249-0.445-0.386-0.692c-0.822,0.776-0.494,1.518-0.494,2.158
	c-0.024,26.905-0.053,53.812,0.025,80.717c0.006,2.052-0.611,2.476-2.478,2.371c-2.733-0.154-5.482-0.089-8.222-0.019
	c-1.127,0.028-1.707-0.257-1.565-1.473c0.044-0.377,0.001-0.765,0.001-1.147c0-32.707,0.013-65.415-0.036-98.123
	c-0.003-1.692,0.342-2.302,2.164-2.231c3.947,0.15,7.904,0.072,11.857,0.025c1.044-0.012,1.714,0.268,2.35,1.181
	c16.936,24.374,33.907,48.722,50.877,73.07c2.501,3.588,5.025,7.161,7.539,10.741C394.18,649.463,394.309,649.411,394.438,649.359z"
	/>
<path fill-rule="evenodd" clip-rule="evenodd" fill="#F37320" d="M319.278,723.36c0-12.05,0.03-24.101-0.037-36.15
	c-0.009-1.601,0.449-2.099,2.034-2.068c4.397,0.086,8.799,0.079,13.197,0c1.455-0.025,1.831,0.489,1.822,1.887
	c-0.051,8.224,0.022,16.449-0.047,24.674c-0.013,1.545,0.475,1.926,1.957,1.916c9.563-0.06,19.127-0.065,28.69,0.001
	c1.595,0.012,2.019-0.442,2.001-2.037c-0.092-8.224-0.028-16.449-0.091-24.673c-0.011-1.325,0.352-1.787,1.712-1.768
	c4.526,0.068,9.054,0.071,13.58-0.008c1.4-0.024,1.682,0.504,1.68,1.786c-0.032,24.356-0.031,48.711,0.001,73.066
	c0.001,1.188-0.209,1.697-1.544,1.674c-4.526-0.078-9.055-0.105-13.579,0.01c-1.618,0.04-1.842-0.553-1.832-1.984
	c0.063-9.627-0.01-19.255,0.073-28.882c0.015-1.7-0.472-2.151-2.143-2.139c-9.5,0.074-19,0.072-28.5,0.001
	c-1.619-0.012-2.021,0.491-2.01,2.06c0.07,9.436,0.041,18.872,0.034,28.309c-0.002,3.23,0.078,2.568-2.697,2.582
	c-4.08,0.021-8.166-0.104-12.239,0.054c-1.794,0.07-2.096-0.583-2.089-2.158C319.301,747.461,319.278,735.411,319.278,723.36z"/>
<path fill-rule="evenodd" clip-rule="evenodd" fill="#F37320" d="M672.684,723.348c-0.002-12.051,0.024-24.101-0.034-36.15
	c-0.008-1.562,0.382-2.105,2.015-2.064c4.396,0.107,8.798,0.092,13.196,0.005c1.466-0.028,1.786,0.443,1.773,1.863
	c-0.077,8.225-0.005,16.449-0.074,24.674c-0.013,1.473,0.341,1.968,1.891,1.956c9.626-0.072,19.254-0.08,28.881-0.008
	c1.587,0.012,1.895-0.544,1.885-1.971c-0.055-8.161,0.013-16.322-0.062-24.482c-0.015-1.568,0.383-2.08,2.007-2.038
	c4.396,0.112,8.799,0.082,13.196,0.011c1.312-0.021,1.783,0.338,1.781,1.706c-0.032,24.419-0.029,48.838,0.002,73.257
	c0.002,1.15-0.296,1.569-1.49,1.554c-4.59-0.061-9.182-0.1-13.77,0c-1.577,0.035-1.72-0.639-1.713-1.931
	c0.044-9.563-0.036-19.128,0.075-28.69c0.021-1.957-0.505-2.406-2.424-2.383c-9.436,0.109-18.873,0.078-28.309,0.017
	c-1.435-0.009-1.976,0.266-1.962,1.851c0.078,9.818,0.003,19.638,0.093,29.456c0.013,1.488-0.522,1.678-1.754,1.665
	c-4.526-0.048-9.055-0.078-13.579,0.013c-1.434,0.029-1.654-0.506-1.649-1.776C672.702,747.702,672.686,735.525,672.684,723.348z"/>
<path fill="#FFFFFF" d="M240.301,615.935c0.001-16.448,0.032-32.897-0.043-49.346c-0.008-1.721,0.457-2.092,2.113-2.087
	c20.21,0.059,40.42,0.062,60.63-0.002c1.688-0.005,2.19,0.396,2.082,2.097c-0.162,2.54-0.155,5.104-0.001,7.646
	c0.1,1.651-0.715,1.66-1.934,1.658c-16.066-0.024-32.133,0.017-48.199-0.059c-1.808-0.009-2.358,0.374-2.337,2.264
	c0.102,9.308,0.076,18.616,0.007,27.924c-0.011,1.537,0.317,2.042,1.975,2.034c14.918-0.073,29.837-0.008,44.755-0.092
	c1.899-0.011,2.38,0.545,2.262,2.355c-0.163,2.476-0.158,4.978,0.005,7.454c0.11,1.655-0.582,1.829-1.967,1.825
	c-14.854-0.041-29.71-0.025-44.564-0.024c-2.446,0-2.437,0.002-2.436,2.466c0.005,10.456,0.003,20.912,0.008,31.368
	c0.001,3.022-0.226,2.604,2.698,2.605c16.768,0.012,33.535,0.025,50.303-0.027c1.537-0.004,2.146,0.32,2.057,1.979
	c-0.14,2.607-0.083,5.228-0.01,7.84c0.034,1.188-0.23,1.668-1.563,1.666c-21.421-0.041-42.843-0.049-64.265,0.013
	c-1.734,0.005-1.59-0.892-1.589-2.02C240.302,648.96,240.299,632.447,240.301,615.935z"/>
<path fill-rule="evenodd" clip-rule="evenodd" fill="#F37320" d="M398.599,723.586c0-12.174,0.027-24.348-0.035-36.521
	c-0.008-1.491,0.339-1.927,1.885-1.921c15.87,0.058,31.742,0.075,47.611-0.024c2.032-0.012,2.431,0.625,2.368,2.468
	c-0.13,3.819-0.101,7.648-0.006,11.471c0.036,1.44-0.409,1.816-1.831,1.808c-10.325-0.057-20.651,0.006-30.976-0.059
	c-1.585-0.01-2.255,0.233-2.166,2.048c0.17,3.433,0.11,6.882,0.019,10.322c-0.037,1.412,0.36,1.846,1.82,1.835
	c9.751-0.065,19.503,0.001,29.255-0.071c1.611-0.011,2.04,0.456,1.992,2.043c-0.119,3.948-0.102,7.903-0.005,11.854
	c0.036,1.47-0.453,1.801-1.858,1.791c-9.751-0.06-19.503,0.008-29.255-0.072c-1.632-0.014-2.007,0.471-1.96,2.026
	c0.117,3.821,0.12,7.65,0.004,11.471c-0.05,1.644,0.517,1.997,2.066,1.987c10.899-0.065,21.799,0.015,32.697-0.086
	c1.854-0.017,2.226,0.588,2.182,2.264c-0.104,3.948-0.083,7.903-0.005,11.853c0.025,1.291-0.412,1.596-1.641,1.593
	c-16.89-0.037-33.78-0.035-50.671-0.004c-1.196,0.003-1.557-0.2-1.548-1.552c0.08-12.174,0.047-24.348,0.047-36.521
	C398.592,723.586,398.596,723.586,398.599,723.586z"/>
<path fill="#FFFFFF" d="M544.85,599.324c0.002-11.027,0.023-22.056-0.027-33.083c-0.007-1.302,0.268-1.782,1.657-1.729
	c2.865,0.107,5.74,0.126,8.604-0.006c1.617-0.075,2.121,0.281,2.115,2.042c-0.075,20.525-0.097,41.052-0.021,61.577
	c0.023,6.291,1.082,12.443,4.076,18.078c5.032,9.473,13.486,12.737,23.606,12.368c13.502-0.492,21.872-8.151,24.363-21.886
	c0.614-3.391,0.925-6.811,0.925-10.26c-0.006-19.952,0.021-39.904-0.051-59.856c-0.007-1.728,0.452-2.145,2.104-2.062
	c2.798,0.14,5.612,0.126,8.411-0.004c1.522-0.069,1.887,0.395,1.882,1.893c-0.057,16.892-0.031,33.784-0.041,50.677
	c-0.002,4.907,0.125,9.823-0.109,14.722c-0.361,7.506-1.933,14.742-5.718,21.36c-4.247,7.428-10.506,12.375-18.652,14.845
	c-8.989,2.726-18.129,2.808-27.163,0.445c-12.167-3.182-19.798-11.257-23.557-23.111c-1.626-5.129-2.394-10.412-2.401-15.795
	C544.839,619.467,544.849,609.396,544.85,599.324z"/>
<path fill-rule="evenodd" clip-rule="evenodd" fill="#5D9631" d="M721.295,479.994c-0.016,3.543-2.515,5.759-6.128,5.345
	c-7.676-0.88-15.369-1.074-23.085-0.796c-18.774,0.677-36.798,4.771-54.139,11.908c-20.781,8.554-39.233,20.664-55.213,36.494
	c-4.301,4.26-8.233,8.843-11.896,13.664c-1.688,2.22-4.318,2.864-6.826,1.793c-2.168-0.927-3.448-3.096-3.204-5.337
	c0.154-1.415,0.996-2.484,1.809-3.515c15.15-19.216,33.682-34.394,55.205-45.939c17.726-9.508,36.612-15.558,56.522-18.313
	c14.004-1.938,28.068-2.105,42.141-0.683C719.497,474.921,721.308,476.998,721.295,479.994z"/>
<path fill-rule="evenodd" clip-rule="evenodd" fill="#F37320" d="M621.29,730.839c0.001-9.368-0.078-18.738,0.062-28.105
	c0.032-2.113-0.721-2.573-2.563-2.556c-5.735,0.057-11.473-0.043-17.206,0.06c-1.724,0.031-2.166-0.519-2.111-2.18
	c0.123-3.692,0.097-7.394,0.009-11.088c-0.034-1.44,0.439-1.822,1.856-1.82c18.993,0.04,37.985,0.036,56.977-0.015
	c1.419-0.004,1.714,0.516,1.695,1.78c-0.059,3.887-0.064,7.775,0,11.662c0.023,1.332-0.358,1.713-1.748,1.688
	c-5.988-0.102-11.98-0.007-17.97-0.096c-1.658-0.025-2.139,0.466-2.134,2.155c0.061,18.993,0.013,37.985,0.074,56.977
	c0.006,1.771-0.341,2.436-2.261,2.368c-4.265-0.149-8.54-0.115-12.808-0.007c-1.558,0.039-1.915-0.466-1.905-1.953
	C621.32,750.086,621.289,740.463,621.29,730.839z"/>
<path fill="#FFFFFF" d="M175.052,615.944c-0.001-16.511,0.019-33.021-0.035-49.531c-0.005-1.479,0.335-1.977,1.873-1.907
	c2.862,0.128,5.741,0.14,8.602-0.002c1.666-0.082,1.95,0.523,1.945,2.05c-0.055,19.187-0.041,38.375-0.042,57.563
	c-0.001,10.008,0.033,20.017-0.032,30.024c-0.009,1.493,0.373,1.92,1.896,1.913c14.343-0.059,28.687,0.005,43.029-0.079
	c1.835-0.01,2.265,0.543,2.178,2.249c-0.133,2.607-0.067,5.227-0.009,7.839c0.024,1.072-0.316,1.414-1.418,1.412
	c-18.869-0.032-37.738-0.043-56.607,0.009c-1.757,0.004-1.372-1.066-1.372-2.009C175.051,648.965,175.053,632.455,175.052,615.944z"
	/>
<path fill-rule="evenodd" clip-rule="evenodd" fill="#F37320" d="M554.945,723.42c0-12.235,0.018-24.472-0.025-36.708
	c-0.005-1.204,0.4-1.559,1.534-1.55c4.652,0.033,9.306,0.061,13.958-0.018c1.776-0.03,1.516,1.091,1.516,2.16
	c0.003,17.783,0.005,35.565,0.007,53.348c0,1.147,0.089,2.303-0.022,3.439c-0.147,1.5,0.365,1.959,1.908,1.946
	c8.858-0.073,17.719-0.035,26.578-0.038c2.547-0.002,2.546-0.008,2.545,2.605c-0.003,3.824-0.049,7.649,0.022,11.472
	c0.023,1.274-0.383,1.588-1.638,1.583c-14.913-0.047-29.828-0.053-44.742,0c-1.391,0.006-1.687-0.418-1.682-1.719
	c0.044-12.174,0.026-24.348,0.026-36.521C554.936,723.42,554.94,723.42,554.945,723.42z"/>
<path fill="#FFFFFF" d="M109.79,616.026c-0.001-16.509,0.023-33.019-0.039-49.528c-0.006-1.566,0.327-2.083,1.957-1.997
	c2.797,0.146,5.61,0.115,8.411,0.013c1.431-0.053,1.944,0.249,1.941,1.842c-0.055,29.067-0.041,58.134-0.043,87.2
	c0,2.465-0.008,2.468,2.425,2.468c14.215,0.002,28.429,0.031,42.644-0.034c1.626-0.008,2.073,0.458,2.001,2.032
	c-0.122,2.671-0.068,5.353-0.018,8.029c0.02,1.06-0.313,1.429-1.419,1.427c-18.804-0.032-37.608-0.049-56.412,0.014
	c-1.718,0.005-1.445-0.94-1.445-1.937C109.79,649.045,109.79,632.536,109.79,616.026z"/>
<path fill="#FFFFFF" d="M80.045,615.856c0-16.373,0.038-32.746-0.052-49.119c-0.01-1.921,0.547-2.333,2.327-2.231
	c2.731,0.155,5.481,0.129,8.215,0.004c1.466-0.066,1.77,0.405,1.766,1.81c-0.049,19.239-0.033,38.48-0.033,57.721
	c0,13.824-0.027,27.649,0.038,41.474c0.008,1.612-0.455,2.048-2.022,1.978c-2.797-0.127-5.61-0.137-8.406,0.005
	c-1.596,0.082-1.865-0.514-1.861-1.946C80.062,648.986,80.046,632.421,80.045,615.856z"/>
<path fill="#FFFFFF" d="M532.693,616.086c0.001,16.438-0.027,32.874,0.042,49.311c0.008,1.688-0.401,2.187-2.096,2.101
	c-2.923-0.147-5.86-0.099-8.789-0.021c-1.194,0.033-1.63-0.361-1.479-1.521c0.057-0.438,0.012-0.89,0.012-1.336
	c0-32.683,0.016-65.364-0.044-98.048c-0.004-1.727,0.452-2.15,2.108-2.068c2.86,0.142,5.734,0.113,8.598,0.01
	c1.349-0.05,1.684,0.35,1.679,1.689C532.676,582.831,532.693,599.459,532.693,616.086z"/>
<path fill-rule="evenodd" clip-rule="evenodd" fill="#5D9631" d="M842.914,612.824c14.877,3.037,29.232,3.588,43.65,0.302
	c-4.764,5.5-9.678,10.71-14.782,15.741c-2.178,2.146-4.375,4.271-6.523,6.444c-0.616,0.623-0.97,0.71-1.676,0.026
	C856.405,628.382,849.941,620.778,842.914,612.824z"/>
<path fill-rule="evenodd" clip-rule="evenodd" fill="#5E9733" d="M915.436,757.411c1.559-3.768,3.058-6.996,4.215-10.343
	c0.637-1.842,1.771-1.991,3.323-1.905c0.745,0.042,0.985,0.309,0.982,1.026c-0.018,4.776-0.027,9.553,0.006,14.329
	c0.007,0.991-0.47,1.12-1.299,1.135c-0.897,0.017-1.053-0.418-1.05-1.167c0.018-3.691,0.008-7.383-0.331-11.204
	c-0.861,2.036-1.735,4.067-2.58,6.111c-0.656,1.587-1.25,3.2-1.921,4.78c-0.28,0.662-0.423,1.506-1.474,1.466
	c-0.963-0.037-1.032-0.827-1.285-1.434c-1.513-3.623-3-7.257-4.919-10.828c0,3.571-0.002,7.143,0.001,10.714
	c0,0.771,0.137,1.567-1.078,1.553c-0.842-0.01-1.277-0.178-1.269-1.159c0.041-4.712,0.022-9.425,0.024-14.137
	c0-0.599-0.002-1.266,0.847-1.142c1.071,0.156,2.421-0.684,3.082,1.024c1.126,2.903,2.392,5.753,3.604,8.623
	C914.608,755.553,914.922,756.243,915.436,757.411z"/>
<path fill-rule="evenodd" clip-rule="evenodd" fill="#5E9733" d="M898.048,762.017c-1.565-0.017-2.905-0.354-4.068-1.196
	c-0.504-0.364-1.449-0.679-0.68-1.578c0.572-0.669,1.141-1.407,2.172-0.445c1.301,1.213,2.862,1.305,4.423,0.529
	c0.824-0.408,1.426-1.105,1.459-2.092c0.034-1.033-0.672-1.659-1.489-2.03c-1.095-0.497-2.284-0.78-3.402-1.231
	c-2.196-0.883-3.235-2.477-3.144-4.702c0.083-2.019,1.335-3.496,3.54-4.206c1.981-0.639,3.877-0.445,5.676,0.584
	c0.555,0.316,1.247,0.773,0.61,1.459c-0.47,0.507-0.991,1.58-1.996,0.659c-0.714-0.653-1.552-0.773-2.47-0.781
	c-1.454-0.011-2.525,0.569-2.804,2.022c-0.271,1.42,0.604,2.242,1.872,2.691c0.837,0.297,1.687,0.563,2.518,0.878
	c2.903,1.098,3.79,2.411,3.474,5.103c-0.261,2.229-1.957,3.83-4.498,4.23C898.803,761.979,898.355,761.99,898.048,762.017z"/>
<path fill-rule="evenodd" clip-rule="evenodd" fill="#F37320" d="M541.558,759.564c-4.902-11.254-9.79-22.514-14.688-33.769
	c-5.688-13.067-11.393-26.128-17.05-39.208c-0.489-1.131-1.172-1.463-2.345-1.44c-3.441,0.065-6.89,0.119-10.327-0.02
	c-1.561-0.063-2.21,0.525-2.793,1.89c-5.223,12.224-10.527,24.412-15.797,36.616c-5.191,12.024-10.357,24.06-15.575,36.072
	c-0.612,1.41-0.643,1.991,1.207,1.952c5.035-0.104,10.074-0.086,15.109,0.004c1.26,0.021,1.743-0.456,2.155-1.54
	c1.629-4.276,3.4-8.5,5.003-12.786c0.495-1.322,1.124-1.815,2.594-1.803c8.607,0.077,17.215,0.08,25.822-0.014
	c1.585-0.018,2.235,0.664,2.744,1.956c1.677,4.251,3.431,8.472,5.097,12.727c0.401,1.024,0.919,1.492,2.093,1.45
	c2.61-0.095,5.228-0.03,7.841-0.028c2.551,0.001,5.101,0.005,7.651,0C542.478,761.62,542.456,761.626,541.558,759.564z
	 M509.342,731.149c-5.036-0.054-10.073-0.063-15.108-0.003c-1.476,0.019-1.541-0.441-1.056-1.661
	c2.706-6.8,5.349-13.623,8.006-20.442c0.118-0.302,0.19-0.609,0.778-0.75c1.204,3.073,2.411,6.185,3.638,9.287
	c1.591,4.022,3.17,8.051,4.815,12.052C510.92,730.858,510.614,731.163,509.342,731.149z"/>
</svg>
