<?xml version="1.0" encoding="utf-8"?>
<!-- Generator: Adobe Illustrator 16.0.0, SVG Export Plug-In . SVG Version: 6.00 Build 0)  -->
<!DOCTYPE svg PUBLIC "-//W3C//DTD SVG 1.1//EN" "http://www.w3.org/Graphics/SVG/1.1/DTD/svg11.dtd">
<svg version="1.1" id="Layer_1" xmlns="http://www.w3.org/2000/svg" xmlns:xlink="http://www.w3.org/1999/xlink" x="0px" y="0px"
	 width="233.239px" height="28.692px" viewBox="0 0 233.239 28.692" enable-background="new 0 0 233.239 28.692"
	 xml:space="preserve">
<g>
	<g>
		<path fill="#FFFFFF" d="M226.181,24.036c0,0.241-0.196,0.438-0.438,0.438h-13.088c-0.241,0-0.438-0.196-0.438-0.438V4.608
			c0-0.241,0.197-0.438,0.438-0.438h9.035v2.361l0,0c0,1.147,0.934,2.081,2.081,2.081l0,0h2.409v2.668l1.644-2.706
			c0,0-0.01-0.797-0.01-0.837c0-0.073-0.011-0.301-0.234-0.531l-4.489-4.442c-0.069-0.068-0.207-0.228-0.528-0.228
			c-0.018,0-9.907-0.01-9.907-0.01c-1.148,0-2.082,0.934-2.082,2.081v19.428c0,1.147,0.934,2.081,2.082,2.081h13.088
			c1.147,0,2.081-0.934,2.081-2.081v-6.617l-1.644,2.705V24.036L226.181,24.036z"/>
		<path fill="#FFFFFF" d="M222.25,21.758c-0.007,0.09,0.037,0.178,0.116,0.225c0.037,0.023,0.08,0.035,0.123,0.035
			c0.045,0,0.09-0.013,0.129-0.037l2.345-1.479c0.029-0.02,0.056-0.047,0.076-0.078l0.011-0.018l-2.52-1.532l-0.012,0.019
			c-0.02,0.031-0.032,0.066-0.034,0.104L222.25,21.758z"/>
		<path fill="#FFFFFF" d="M233.228,5.429c-0.024-0.099-0.087-0.184-0.175-0.237l-0.708-0.431c-0.063-0.038-0.133-0.057-0.201-0.057
			c-0.131,0-0.258,0.066-0.33,0.186l-0.669,1.103l-0.209-0.126c-0.068-0.042-0.146-0.063-0.224-0.063
			c-0.034,0-0.068,0.004-0.102,0.012c-0.11,0.027-0.207,0.097-0.266,0.195l-7.389,12.16l2.52,1.532l7.39-12.161
			c0.123-0.203,0.059-0.468-0.145-0.591l-0.208-0.126l0.671-1.104C233.236,5.634,233.252,5.53,233.228,5.429z M231.449,7.825
			l-2.602,4.281c-0.077,0.127-0.213,0.198-0.352,0.198c-0.073,0-0.146-0.021-0.214-0.06c-0.193-0.119-0.255-0.371-0.138-0.565
			l2.602-4.281c0.119-0.193,0.372-0.256,0.565-0.138C231.505,7.379,231.567,7.632,231.449,7.825z"/>
	</g>
	<g>
		<g>
			<circle fill="#FFFFFF" cx="10.324" cy="2.603" r="2.603"/>
			<path fill="#FFFFFF" d="M18.298,26.762l-0.514-1.251l0.228-0.095l-0.092-0.27c-0.995-2.92-2.018-6.372-2.69-8.717
				c0.184,0.341,0.376,0.677,0.582,1.006c0.234,0.374,0.626-0.313,0.44-0.609c-0.304-0.486-0.581-0.986-0.829-1.502
				c0.032,0.008,0.063,0.017,0.096,0.023c0.327,0.075,0.51,0.251,0.653,0.556c0.053,0.111,0.119,0.162,0.241,0.165
				c0.179,0.005,0.386-0.05,0.484-0.218c0.052-0.085,0.098-0.166,0.122-0.264c0.008-0.029,0.013-0.06,0.017-0.089
				c0.004-0.02,0.007-0.034,0.011-0.047c0.104-0.136,0.143-0.332,0.08-0.493c-0.066-0.167-0.251-0.219-0.387-0.093
				c-0.091,0.084-0.158,0.183-0.2,0.296c-0.138-0.222-0.315-0.408-0.571-0.514c-0.291-0.12-0.609-0.129-0.882-0.293
				c-0.073-0.044-0.142-0.045-0.205-0.022c-0.067-0.006-0.139,0.035-0.2,0.1c-0.063-0.57-0.126-1.141-0.196-1.71
				c0.951-0.559,1.881-1.213,2.835-1.994c0.369-0.301,0.581-0.763,0.601-1.3c0.02-0.589-0.199-1.155-0.585-1.518
				c-1.481-1.392-3.253-1.821-5.13-2.278L12.077,5.6c-0.054-0.019-0.11-0.027-0.168-0.027c-0.46,0-1.021,0.676-1.388,1.204
				C10.2,6.304,9.768,5.791,9.389,5.791c-0.085,0-0.169,0.023-0.241,0.066C8.845,6.04,8.585,5.962,8.375,6.225L2.687,3.946v1.085
				L1.327,4.513c-0.596-0.124-1.18,0.259-1.304,0.854C-0.101,5.962,0.28,6.546,0.877,6.671l1.81,0.631v1.049l5.389,2.125
				c0.226,1.546,0.432,3.169,0.613,4.834c-1.786,0.454-3.542,1.183-5.223,2.167c-0.503,0.295-0.812,0.74-0.873,1.259
				c-0.06,0.154-0.102,0.319-0.122,0.49l-0.736,6.036l0.496,0.094l-0.218,1.276c-0.129,0.763,0.382,1.484,1.144,1.614
				s1.485-0.382,1.615-1.145l0.209-1.227l0.503,0.097l0.69-5.646C7.81,19.473,10.43,18.381,11,18.146
				c0.265,0.042,0.539,0.05,0.815,0.024l3.052,8.559l0.335-0.14l0.508,1.236c0.293,0.714,1.111,1.056,1.824,0.762
				C18.25,28.294,18.591,27.477,18.298,26.762z M8.638,10.129L8.6,9.87L3.293,7.744V5.011l5.389,2.126L8.773,7.01
				C8.938,6.776,9.15,6.577,9.404,6.414c0.174,0.101,0.559,0.588,0.848,1.079l0.254,0.434L10.77,7.5
				c0.405-0.651,0.937-1.269,1.127-1.316l0.165,0.039c1.796,0.437,3.493,0.851,4.86,2.131c0.255,0.24,0.405,0.645,0.393,1.054
				c-0.013,0.36-0.147,0.663-0.378,0.853c-0.868,0.71-1.716,1.306-2.576,1.824l-0.648-2.74l-0.591,0.141l0.085,0.361l-1.659,0.676
				c-0.564,0.23-0.835,0.873-0.605,1.437s0.872,0.835,1.437,0.605l1.367-0.432l0.113,0.48c0.077,0.637,0.15,1.272,0.22,1.909h-4.87
				C9.037,13.011,8.846,11.535,8.638,10.129z M12.22,17.495l-0.251,0.043c-0.318,0.055-0.645,0.053-0.948-0.004l-0.089-0.017
				l-0.082,0.033c-0.339,0.139-3.356,1.385-5.102,2.313l-0.139,0.074l-0.65,5.316l-2.553-0.483L3.073,19.3
				c0.017-0.133,0.048-0.253,0.098-0.371l0.022-0.092c0.03-0.342,0.23-0.631,0.579-0.836c1.711-1.002,3.5-1.73,5.317-2.165
				l0.259-0.062l-0.028-0.266c-0.003-0.023-0.006-0.048-0.008-0.071h5.002c0.615,2.177,1.787,6.225,2.938,9.636l-2.028,0.848
				L12.22,17.495z"/>
		</g>
	</g>
	<g>
		<path fill="#FFFFFF" d="M24.483,21.314v-14.1h1.688l3.779,7.134c0.861,1.652,1.564,3.116,2.109,4.581l0.053-0.021
			c-0.141-1.882-0.176-3.598-0.176-5.773v-5.92h1.441v14.1h-1.547l-3.762-7.154c-0.826-1.569-1.617-3.18-2.197-4.707l-0.053,0.021
			c0.088,1.778,0.105,3.473,0.105,5.816v6.024H24.483z"/>
		<path fill="#FFFFFF" d="M41.722,21.545c-3.146,0-5.326-2.888-5.326-7.155c0-4.477,2.32-7.405,5.484-7.405
			c3.252,0,5.344,2.95,5.344,7.134c0,4.832-2.479,7.427-5.484,7.427H41.722z M41.792,20.06c2.426,0,3.797-2.657,3.797-5.857
			c0-2.804-1.23-5.732-3.779-5.732s-3.814,2.824-3.814,5.879c0,2.97,1.371,5.711,3.779,5.711H41.792z"/>
		<path fill="#FFFFFF" d="M50.26,21.314v-14.1h1.688l3.779,7.134c0.861,1.652,1.564,3.116,2.109,4.581l0.053-0.021
			c-0.141-1.882-0.176-3.598-0.176-5.773v-5.92h1.441v14.1h-1.547l-3.762-7.154c-0.826-1.569-1.617-3.18-2.197-4.707l-0.053,0.021
			c0.088,1.778,0.105,3.473,0.105,5.816v6.024H50.26z"/>
		<path fill="#FFFFFF" d="M66.41,14.997v1.339h-4.342v-1.339H66.41z"/>
		<path fill="#FFFFFF" d="M71.575,8.763h-3.604V7.215h8.771v1.548h-3.621v12.552h-1.547V8.763z"/>
		<path fill="#FFFFFF" d="M85.229,14.704h-4.588v5.083h5.133v1.527h-6.68v-14.1h6.416v1.526h-4.869v4.456h4.588V14.704z"/>
		<path fill="#FFFFFF" d="M97.073,20.875c-0.545,0.335-1.688,0.67-3.129,0.67c-3.34,0-5.836-2.511-5.836-7.155
			c0-4.435,2.514-7.405,6.188-7.405c1.459,0,2.408,0.377,2.813,0.628l-0.387,1.485c-0.563-0.335-1.389-0.586-2.373-0.586
			c-2.777,0-4.623,2.112-4.623,5.815c0,3.473,1.67,5.669,4.535,5.669c0.949,0,1.898-0.229,2.514-0.585L97.073,20.875z"/>
		<path fill="#FFFFFF" d="M101.586,7.215v5.899h5.73V7.215h1.547v14.1h-1.547v-6.61h-5.73v6.61h-1.547v-14.1H101.586z"/>
		<path fill="#FFFFFF" d="M117.347,7.402c0.738-0.167,1.705-0.292,2.936-0.292c1.512,0,2.619,0.418,3.322,1.171
			c0.65,0.67,1.055,1.694,1.055,2.95c0,1.275-0.316,2.28-0.932,3.012c-0.809,1.025-2.127,1.549-3.621,1.549
			c-0.457,0-0.879-0.021-1.23-0.126v5.648h-1.529V7.402z M118.876,14.181c0.334,0.104,0.773,0.146,1.266,0.146
			c1.863,0,2.971-1.088,2.971-2.991c0-1.883-1.107-2.782-2.795-2.782c-0.668,0-1.178,0.083-1.441,0.146V14.181z"/>
		<path fill="#FFFFFF" d="M132.373,21.545c-3.146,0-5.326-2.888-5.326-7.155c0-4.477,2.32-7.405,5.484-7.405
			c3.252,0,5.344,2.95,5.344,7.134c0,4.832-2.479,7.427-5.484,7.427H132.373z M132.443,20.06c2.426,0,3.797-2.657,3.797-5.857
			c0-2.804-1.23-5.732-3.779-5.732s-3.814,2.824-3.814,5.879c0,2.97,1.371,5.711,3.779,5.711H132.443z"/>
		<path fill="#FFFFFF" d="M140.717,19.097c0.686,0.523,1.67,0.921,2.725,0.921c1.564,0,2.479-0.963,2.479-2.406
			c0-1.297-0.633-2.07-2.232-2.782c-1.934-0.837-3.129-2.05-3.129-4.017c0-2.196,1.529-3.828,3.832-3.828
			c1.195,0,2.092,0.335,2.602,0.69l-0.422,1.485c-0.369-0.272-1.16-0.67-2.232-0.67c-1.617,0-2.232,1.151-2.232,2.113
			c0,1.318,0.721,1.967,2.355,2.72c2.004,0.941,3.006,2.071,3.006,4.142c0,2.176-1.336,4.08-4.131,4.08
			c-1.143,0-2.391-0.419-3.023-0.921L140.717,19.097z"/>
		<path fill="#FFFFFF" d="M152.157,7.215v14.1h-1.547v-14.1H152.157z"/>
		<path fill="#FFFFFF" d="M158.131,8.763h-3.604V7.215h8.771v1.548h-3.621v12.552h-1.547V8.763z"/>
		<path fill="#FFFFFF" d="M167.198,7.215v14.1h-1.547v-14.1H167.198z"/>
		<path fill="#FFFFFF" d="M175.545,21.545c-3.146,0-5.326-2.888-5.326-7.155c0-4.477,2.32-7.405,5.484-7.405
			c3.252,0,5.344,2.95,5.344,7.134c0,4.832-2.479,7.427-5.484,7.427H175.545z M175.616,20.06c2.426,0,3.797-2.657,3.797-5.857
			c0-2.804-1.23-5.732-3.779-5.732s-3.814,2.824-3.814,5.879c0,2.97,1.371,5.711,3.779,5.711H175.616z"/>
		<path fill="#FFFFFF" d="M184.083,21.314v-14.1h1.688l3.779,7.134c0.861,1.652,1.564,3.116,2.109,4.581l0.053-0.021
			c-0.141-1.882-0.176-3.598-0.176-5.773v-5.92h1.441v14.1h-1.547l-3.762-7.154c-0.826-1.569-1.617-3.18-2.197-4.707l-0.053,0.021
			c0.088,1.778,0.105,3.473,0.105,5.816v6.024H184.083z"/>
		<path fill="#FFFFFF" d="M196.506,19.097c0.686,0.523,1.67,0.921,2.725,0.921c1.564,0,2.479-0.963,2.479-2.406
			c0-1.297-0.633-2.07-2.232-2.782c-1.934-0.837-3.129-2.05-3.129-4.017c0-2.196,1.529-3.828,3.832-3.828
			c1.195,0,2.092,0.335,2.602,0.69L202.36,9.16c-0.369-0.272-1.16-0.67-2.232-0.67c-1.617,0-2.232,1.151-2.232,2.113
			c0,1.318,0.721,1.967,2.355,2.72c2.004,0.941,3.006,2.071,3.006,4.142c0,2.176-1.336,4.08-4.131,4.08
			c-1.143,0-2.391-0.419-3.023-0.921L196.506,19.097z"/>
	</g>
	<rect x="23.95" y="24.675" fill="#FFFFFF" width="178.233" height="1.682"/>
</g>
</svg>
