<?xml version="1.0" encoding="utf-8"?>
<!-- Generator: Adobe Illustrator 16.0.0, SVG Export Plug-In . SVG Version: 6.00 Build 0)  -->
<!DOCTYPE svg PUBLIC "-//W3C//DTD SVG 1.1//EN" "http://www.w3.org/Graphics/SVG/1.1/DTD/svg11.dtd">
<svg version="1.1" id="Layer_1" xmlns="http://www.w3.org/2000/svg" xmlns:xlink="http://www.w3.org/1999/xlink" x="0px" y="0px"
	 width="106.839px" height="84.76px" viewBox="0 0 106.839 84.76" enable-background="new 0 0 106.839 84.76" xml:space="preserve">
<path fill-rule="evenodd" clip-rule="evenodd" fill="#365E4E" d="M44.617,34.448c-0.462-0.29-0.898-0.542-1.309-0.829
	c-0.344-0.242-0.66-0.523-0.98-0.797c-0.86-0.735-0.858-0.738-1.98-0.482c-0.06-0.226-0.12-0.452-0.224-0.843
	c-0.553,1.479-1.393,2.307-2.888,1.855c-0.042,0.252,0,0.579-0.135,0.687c-0.489,0.393-1.059,0.241-1.58,0.034
	c-0.095-0.036-0.086-0.341-0.104-0.429c-0.452-0.021-0.98,0.009-1.489-0.077c-0.901-0.15-1.764-0.088-2.467,0.169
	c-0.341-0.081-0.563-0.163-0.79-0.177c-0.192-0.013-0.388,0.061-0.583,0.075c-0.015,0.002-0.069-0.224-0.059-0.227
	c0.194-0.077,0.395-0.137,0.6-0.202c-0.052-0.34-0.188-0.725,0.482-0.51c0.208,0.065,0.738-0.179,0.733-0.259
	c-0.038-0.655,0.355-0.34,0.655-0.326c0.101-0.178-0.179-0.871,0.583-0.27c-0.486-1.727,0.993-1.667,1.638-2.185
	c0.364,0.247,0.688,0.467,1.014,0.687c0.048-0.069,0.097-0.138,0.146-0.206c-0.094-0.089-0.222-0.16-0.271-0.269
	c-0.087-0.185-0.124-0.394-0.182-0.592c0.191-0.006,0.383-0.017,0.574-0.015c0.196,0.002,0.392,0.018,0.588,0.026
	c-0.032-0.223-0.05-0.449-0.103-0.667c-0.036-0.152-0.083-0.349-0.193-0.422c-0.151-0.101-0.365-0.132-0.555-0.142
	c-0.695-0.038-1.638,0.205-2.017-0.153c-0.364-0.347-0.737,0.059-0.955-0.286c0.033,0.14,0.066,0.278,0.141,0.599
	c-0.499-0.155-0.907-0.237-1.261-0.423c-0.083-0.044,0.015-0.435,0.028-0.636c-0.26,0.053-0.636,0.128-1.142,0.229
	c-0.19,0.499-0.613,0.616-1.239,0.304c-0.248-0.124-0.644-0.063-0.935,0.032c-0.714,0.23-1.346-0.108-1.402-0.897
	c-0.294,0.11-0.566,0.213-0.839,0.314c0-0.05-0.001-0.1-0.001-0.149c-0.243-0.031-0.484-0.083-0.727-0.082
	c-0.128,0-0.272,0.156-0.381,0.13c-0.242-0.06-0.479-0.17-0.689-0.305c-0.049-0.03,0.016-0.24,0.029-0.368
	c0.212,0.052,0.423,0.108,0.637,0.154c0.134,0.028,0.272,0.039,0.449,0.063c-0.004-0.373-0.166-0.879,0.544-0.553
	c0.198,0.091,0.539-0.128,0.814-0.204c-0.062-0.161-0.116-0.3-0.21-0.543c0.311,0.056,0.528,0.095,0.768,0.138
	c-0.105-0.345-0.145-0.667,0.471-0.416c-0.35-1.563,1.014-1.62,1.696-2.097c0.509,0.374,0.982,0.721,1.455,1.068
	c0.046-0.055,0.092-0.107,0.138-0.162c-0.335-0.396-0.671-0.792-1.007-1.188c0.066-0.081,0.133-0.162,0.2-0.243
	c0.348,0.164,0.695,0.329,1.094,0.519c0.022-0.157,0.042-0.296,0.071-0.496c0.283,0.092,0.576,0.188,0.865,0.282
	c0.055-0.087,0.126-0.2,0.246-0.391c0.434,0.404,0.831,0.774,1.346,1.254c0-0.347,0-0.512,0-0.716
	c0.359,0.099,0.691,0.193,1.026,0.278c0.291,0.073,0.585,0.133,0.94,0.213c0.201-0.239,0.201-0.239,0.129-1.444
	c-0.739-0.054-1.461-0.105-2.143-0.155c-0.422-0.342-0.84-0.679-1.299-1.049c0.137-0.083,0.295-0.179,0.454-0.273
	c-0.002-0.035-0.005-0.069-0.008-0.104c-0.385,0.029-0.777,0.026-1.153,0.106c-0.145,0.031-0.25,0.25-0.387,0.398
	c-0.089-0.261-0.164-0.479-0.253-0.738c0.139-0.053,0.346-0.129,0.552-0.208c0.008-0.056,0.016-0.11,0.023-0.165
	c-0.215-0.041-0.43-0.081-0.793-0.15c0.091-0.323,0.081-0.853,0.323-1.021c0.476-0.333,1.085-0.389,1.623,0.111
	c-0.103,0.17-0.21,0.346-0.317,0.522c0.032,0.038,0.065,0.075,0.098,0.112c0.248-0.143,0.494-0.285,0.914-0.527
	c-0.314-0.123-0.538-0.209-0.762-0.295c0.075-0.081,0.15-0.162,0.226-0.242c0.174,0.12,0.348,0.24,0.521,0.359
	c0.005-0.059,0.01-0.119,0.015-0.178c0.543-0.042,1.086-0.083,1.654-0.126c-0.109-0.083-0.229-0.174-0.348-0.264
	c0.557,0.136,1.142-0.327,1.664,0.132c0.106,0.092,0.422-0.055,0.801-0.118c0.234,0.216,0.623,0.573,1.012,0.93
	c0.035-0.048,0.072-0.096,0.107-0.144c-0.179-0.376-0.358-0.752-0.576-1.21c0.285,0.032,0.491,0.058,0.788,0.093
	c-0.084-0.15-0.131-0.232-0.178-0.316c-0.13-0.231-0.261-0.465-0.393-0.697c0.335-0.178,0.653-0.466,1.05-0.108
	c0.131,0.119,0.295,0.2,0.533,0.357c-0.027-0.286-0.097-0.486-0.051-0.653c0.044-0.155,0.199-0.377,0.326-0.392
	c0.146-0.017,0.315,0.163,0.476,0.254c0.173,0.096,0.348,0.188,0.659,0.354c0-0.459,0-0.765,0-1.104
	c0.697-0.029,0.567,0.617,0.754,0.975c0.234,0.445,0.404,0.923,0.603,1.387c0.091-0.052,0.182-0.103,0.272-0.153
	c-0.26-0.383-0.521-0.764-0.882-1.294c0.474,0.065,0.748,0.104,1.018,0.141c-0.46-0.484-0.904-0.951-1.404-1.478
	c0.229-0.117,0.308-0.192,0.384-0.189c0.412,0.017,0.823,0.113,0.933-0.504c0.029-0.167,0.372-0.406,0.549-0.388
	c0.219,0.022,0.414,0.275,0.647,0.448c0.128-0.073,0.365-0.21,0.6-0.346c0,0.052,0,0.104,0,0.153
	c0.407,0.095,0.814,0.19,1.236,0.288c-0.061,0.503-0.777,0.79-0.306,1.29c0.133,0.141,0.426,0.135,0.689,0.052
	c-0.177-0.141-0.354-0.282-0.569-0.453c0.263-0.242,0.462-0.425,0.868-0.8c0.183,0.338,0.349,0.646,0.515,0.951
	c0.054-0.054,0.107-0.109,0.162-0.164c-0.148-0.184-0.298-0.368-0.448-0.556c0.309-0.198,0.591-0.382,0.919-0.593
	c0.144,0.1,0.404,0.281,0.663,0.463c0.027-0.033,0.053-0.066,0.078-0.101c-0.169-0.199-0.396-0.373-0.489-0.602
	c-0.104-0.26-0.086-0.567-0.133-0.94c0.419,0,0.747,0.035,1.066-0.011c0.33-0.046,0.681,0.105,0.965-0.342
	c0.313-0.491,1.101-0.478,1.495-0.07c-0.224,0-0.402,0-0.643,0c1.111,0.902,1.111,0.902,1.456,0.642
	c-0.934-0.052-0.31-0.729-0.408-1.13c0.207,0.242,0.414,0.483,0.644,0.751c0.072-0.041,0.263-0.149,0.393-0.223
	c-0.217-0.286-0.446-0.588-0.718-0.948c0.411-0.176,0.961,0.418,0.979-0.424c0.798,0.174,1.63,0.355,2.596,0.565
	c0.6-0.539,1.306,0.249,2.181,0.084c-0.016,0.031,0.06-0.12,0.111-0.222c0.283,0.119,0.538,0.226,0.868,0.363
	c-0.006,0.13-0.017,0.353-0.034,0.682c0.588-0.229,1.156-0.887,1.852-0.074c0.125,0.246,0.321,0.63,0.518,1.016
	c0.585-0.466,1.364-0.437,1.443-0.096c0.389-0.079,0.863-0.328,1.124-0.186c0.288,0.16,0.383,0.676,0.568,1.05
	c0.156-0.26,0.376-0.622,0.628-1.038c0.34,0.456,0.588,0.789,0.871,1.171c-0.185,0.578,0.05,1.267,0.512,1.313
	c-0.094-0.405,0.489-1.242,0.9-1.287c0.675-0.073,1.278,0.283,1.342,0.93c0.082-0.299,0.139-0.465,0.172-0.635
	c0.029-0.151,0.034-0.309,0.049-0.462c0.758,0.042,1.534,0.772,1.77,1.681c0.263-0.154,0.511-0.298,0.828-0.482
	c0.146,0.6,0.282,1.155,0.437,1.79c-0.044,0.037-0.173,0.146-0.301,0.257c0.022,0.05,0.044,0.098,0.067,0.146
	c0.541-0.255,1.083-0.51,1.439-0.678c0.54,0.149,0.881,0.244,1.151,0.319c-0.045,0.346-0.09,0.682-0.142,1.06
	c-0.198,0-0.489,0-0.778,0c0,0.055,0.001,0.111,0.001,0.168c0.704-0.032,1.406-0.063,2.249-0.102
	c-0.332,0.356-0.573,0.614-0.845,0.905c0.963,0,1.774,0,2.585,0c0.02,0.072,0.038,0.146,0.058,0.219
	c0.065-0.176,0.129-0.351,0.193-0.523c0.413,0.093,0.789,0.168,1.159,0.264c0.639,0.164,0.678,0.305,0.261,0.813
	c-0.037,0.044-0.022,0.132-0.048,0.308c0.771-0.073,1.512-0.143,2.26-0.214c0.038,0.497,0.068,0.9,0.099,1.293
	c0.36-0.06,0.618-0.102,0.876-0.145c0.029,0.067,0.06,0.135,0.089,0.203c-0.469,0.431-0.919,0.886-1.421,1.274
	c-0.117,0.092-0.435-0.117-0.616-0.057c-0.286,0.097-0.523,0.332-0.806,0.453c-0.229,0.099-0.495,0.114-0.86,0.192
	c-0.241,0.534-0.644,0.621-1.266,0.217c-0.188-0.122-0.51-0.114-0.75-0.065c-0.367,0.075-0.716,0.237-1.117,0.379
	c-0.007,0.175-0.017,0.397-0.025,0.583c0.763,0.156,1.485,0.304,2.373,0.484c0.056,0.146,0.162,0.44,0.27,0.734
	c0.123-0.081,0.286-0.188,0.521-0.345c0.057,0.347,0.102,0.622,0.18,1.101c0.31-0.552,0.526-0.936,0.764-1.357
	c0.187,0.223,0.327,0.392,0.496,0.595c-0.142,0.241-0.306,0.52-0.566,0.958c0.434-0.161,0.741-0.274,1.095-0.407
	c-0.123,0.339-0.244,0.671-0.365,1.004c0.07,0.025,0.14,0.051,0.21,0.077c0.046-0.17,0.092-0.34,0.167-0.616
	c0.435,0.581,0.847,0.896,1.475,0.418c0.097-0.073,0.6,0.136,0.618,0.259c0.056,0.372-0.023,0.767-0.094,1.146
	c-0.006,0.025-0.381-0.011-0.582-0.034c-0.084-0.01-0.163-0.064-0.214-0.086c-0.127,0.324-0.241,0.619-0.339,0.867
	c-0.519-0.284-0.866-0.477-1.213-0.668c-0.031,0.035-0.061,0.07-0.092,0.104c0.119,0.174,0.236,0.346,0.478,0.701
	c-0.484-0.179-0.872-0.663-0.977,0.048c-0.299-0.108-0.556-0.202-0.808-0.293c-0.561,0.994-0.554,0.955-1.715,0.733
	c-0.23-0.044-0.65-0.247-0.934,0.231c-0.188,0.32-0.992-0.086-1.104-0.379c-0.498-0.147-0.859-0.254-1.126-0.333
	c-0.024,0.267,0.044,0.701-0.094,0.781c-0.282,0.165-0.677,0.144-1.024,0.18c-0.011,0.001-0.043-0.229-0.066-0.359
	c-0.258-0.021-0.56-0.049-0.934-0.082c0.077,0.112,0.144,0.209,0.275,0.399c-0.567-0.036-1.03-0.114-1.486-0.081
	c-0.44,0.032-0.873,0.179-1.441,0.305c0.604,0.511,1.168,0.5,1.93,0.207c-0.199,0.325-0.298,0.488-0.398,0.652
	c0.027,0.038,0.054,0.076,0.079,0.113c0.266-0.143,0.532-0.286,0.796-0.43c0.004,0.06,0.006,0.117,0.01,0.175
	c0.362-0.044,0.724-0.108,1.088-0.126c0.181-0.01,0.394,0.02,0.544,0.111c0.428,0.261,0.828,0.563,1.275,0.873
	c0.145-0.207,0.245-0.351,0.356-0.51c0.206,0.061,0.402,0.117,0.703,0.204c-0.247,0.425-0.451,0.841-0.727,1.204
	c-0.073,0.098-0.361,0.034-0.618,0.048c-0.04,0.115-0.105,0.299-0.182,0.514c-0.276-0.084-0.68-0.004-0.412-0.524
	c0.046-0.088-0.063-0.288-0.15-0.395c-0.035-0.042-0.282,0.004-0.301,0.056c-0.037,0.103,0.021,0.236,0.046,0.396
	c-0.1,0.006-0.233,0.016-0.412,0.027c0.107,0.142,0.203,0.268,0.298,0.393c-0.018,0.056-0.035,0.11-0.053,0.165
	c-0.403-0.071-0.808-0.143-1.211-0.214c-0.022,0.044-0.045,0.087-0.067,0.13c0.209,0.148,0.418,0.298,0.667,0.476
	c-0.171,0.04-0.318,0.074-0.518,0.121c0.168,0.155,0.313,0.289,0.575,0.531c-0.683,0.146-1.29,0.277-2.034,0.438
	c-0.182-0.203-0.468-0.521-0.81-0.901c-0.075,0.201-0.128,0.349-0.177,0.481c-0.458-0.085-0.895-0.164-1.378-0.254
	c0.253,0.753-1.26-0.027-0.787,0.963c-0.268,0.033-0.491,0.061-0.721,0.089c-0.376-0.66-0.542-0.692-1.055-0.055
	c-0.598,0.744-1.405,0.976-2.197,0.659c-0.85-0.34-1.409,0.063-2.05,0.397c-0.856,0.447-1.718,0.886-2.569,1.343
	c-1.513,0.813-3.074,1.556-4.516,2.482c-1.41,0.904-1.967,2.978-1.495,4.553c0.238,0.801,0.899,1.042,1.523,1.156
	c2.331,0.423,4.68,0.753,7.024,1.106c0.522,0.079,1.053,0.112,1.583,0.165c-0.43,0.947-1.31,0.534-1.923,0.557
	c-1.801,0.066-3.609-0.109-5.414-0.136c-4.865-0.073-9.73-0.15-14.596-0.155c-1.285-0.001-2.569,0.332-3.857,0.362
	c-0.895,0.022-1.794-0.202-2.689-0.332c-0.412-0.06-0.819-0.152-1.225-0.322c0.713,0,1.428,0.012,2.141-0.003
	c3.293-0.065,6.513-0.567,9.564-1.83c2.25-0.933,3.897-2.53,4.823-4.83c0.261-0.644,0.039-1.155-0.288-1.646
	c-0.71-1.065-1.443-2.115-2.195-3.151c-0.725-1-1.471-1.246-2.626-0.853c-0.741,0.251-1.439,0.252-2.191,0.007
	c-0.304-0.101-0.707,0.112-1.066,0.171c-0.446,0.073-0.921,0.064-1.338,0.214c-1.258,0.452-2.483,0.084-3.721-0.043
	c-0.014-0.073-0.026-0.146-0.04-0.219c0.332-0.065,0.664-0.128,0.994-0.198c0.201-0.043,0.404-0.085,0.596-0.157
	c0.102-0.039,0.185-0.213,0.266-0.207c1.112,0.096,1.88-0.82,2.898-0.966c0.229-0.033,0.575,0.038,0.715,0.197
	C42.36,34.94,43.387,35.13,44.617,34.448z M48.739,31.805c-0.393,1.394,0.011,2.641,0.458,3.873
	c0.292,0.802,0.708,1.521,1.485,1.974c0.324,0.188,0.657,0.309,0.787-0.14c0.354-1.222,0.493-2.446-0.14-3.646
	C50.782,32.826,49.776,32.377,48.739,31.805z M58.682,33.306c-0.179,0.046-0.244,0.043-0.266,0.071
	c-0.839,1.132-1.68,2.227-3.249,2.43c-0.221,0.029-0.36,0.668-0.538,1.023c0.241,0.097,0.479,0.201,0.724,0.284
	c0.132,0.045,0.284,0.028,0.411,0.077c1.364,0.53,2.391-0.358,3.514-0.836c0.117-0.05,0.255-0.186,0.278-0.301
	c0.048-0.253,0.075-0.528,0.024-0.776c-0.073-0.359-0.194-0.718-0.349-1.051C59.076,33.892,58.853,33.588,58.682,33.306z
	 M54.687,34.86c1.215-0.039,1.926-0.639,2.058-1.733c0.081-0.667-0.658-1.23-1.291-0.99c-0.861,0.326-1.104,1.139-1.376,1.871
	C53.937,34.384,54.074,34.871,54.687,34.86z M44.64,33.083c0.754-1.166,0.687-1.681-0.065-2.824
	c-0.445-0.674-0.935-0.317-1.319-0.074c-0.387,0.246-0.811,0.695-0.366,1.204C43.41,31.982,44.024,32.495,44.64,33.083z
	 M54.38,31.06c-0.556-0.437-1.059-0.866-1.598-1.241c-0.387-0.268-0.686-0.024-0.898,0.303c-0.394,0.606,0.021,2.242,0.659,2.562
	c0.107,0.054,0.34,0.016,0.424-0.07C53.421,32.146,53.848,31.651,54.38,31.06z M62.992,33.381c-0.454-0.302-0.865-0.519-1.208-0.815
	c-0.437-0.379-0.751-0.166-0.983,0.176c-0.22,0.32-0.458,0.707-0.466,1.069c-0.008,0.398,0.136,0.916,0.409,1.164
	c0.172,0.155,0.803,0.03,1.057-0.178C62.252,34.426,62.574,33.896,62.992,33.381z M46.405,31.049
	c-0.183,0.574-0.288,1.121-0.528,1.602c-0.316,0.637-0.295,0.962,0.322,1.277c0.382,0.195,0.803,0.313,1.212,0.467
	C47.853,32.696,47.567,31.678,46.405,31.049z M65.63,34.82c-0.645-0.154-1.216-0.292-1.787-0.426
	c-0.064-0.015-0.134-0.011-0.2-0.007c-0.013,0-0.021,0.038-0.036,0.057c-0.313,0.396-0.624,0.79-0.936,1.187
	C63.318,36.297,64.498,36.141,65.63,34.82z M53.977,18.712c0.194-0.146,0.444-0.449,0.564-0.404
	c0.707,0.263,1.471-0.278,2.163,0.201c0.185,0.128,0.513,0.052,0.783,0.069c-0.022-0.226-0.039-0.374-0.053-0.512
	c0.401-0.104,0.763-0.198,1.248-0.325c-0.216-0.256-0.348-0.41-0.608-0.719c0,0.367,0,0.521,0,0.688
	c-0.48-0.115-0.892-0.212-1.298-0.31c-0.102,0.148-0.219,0.509-0.384,0.532c-0.661,0.091-1.337,0.091-2.007,0.098
	c-0.375,0.004-0.748-0.047-1.121-0.072c0.003,0.053,0.006,0.104,0.008,0.156C53.529,18.33,53.783,18.548,53.977,18.712z
	 M60.487,31.584c-0.545,0.06-0.89,0.097-1.29,0.14c0.131,0.453,0.226,0.781,0.337,1.163C59.846,32.46,60.099,32.112,60.487,31.584z
	 M44.195,22.166c-0.522-1.104-0.966,0.098-1.447-0.056c-0.086-0.027-0.262,0.232-0.396,0.36c0.035,0.029,0.068,0.06,0.102,0.091
	C43.017,22.434,43.581,22.306,44.195,22.166z M74.299,25.914c0.052,0.047,0.104,0.095,0.155,0.142
	c0.313-0.354,0.628-0.706,0.98-1.103C74.48,24.835,74.48,24.835,74.299,25.914z M44.503,21.761c0.814,0.101,0.653,0.76,0.777,1.251
	c0.156-0.008,0.312-0.015,0.477-0.022c0.044-0.255,0.085-0.489,0.12-0.697c-0.195,0-0.365,0-0.536,0
	C45.435,21.566,44.828,21.903,44.503,21.761z M45.897,30.259c0.101-0.346,0.188-0.646,0.313-1.081
	c-0.399,0.022-0.693,0.039-1.131,0.063C45.406,29.647,45.627,29.925,45.897,30.259z M68.453,24.545
	c-0.255-0.252,0.226-0.807-0.309-0.839c-0.169-0.011-0.364,0.386-0.626,0.685C67.973,24.466,68.212,24.505,68.453,24.545z
	 M45.174,33.916c0.04-0.081,0.083-0.162,0.125-0.244c-0.626-0.294-1.251-0.588-1.877-0.882c-0.029,0.057-0.059,0.113-0.088,0.17
	C43.948,33.279,44.561,33.598,45.174,33.916z M70.304,26.33c-0.408-0.287-0.724-0.51-1.121-0.789
	c0.073,0.499,0.124,0.844,0.176,1.19C69.36,25.965,69.946,26.497,70.304,26.33z M51.429,15.374c-0.231,0.289-0.488,0.612-0.717,0.9
	c0.238,0.036,0.575,0.09,0.887,0.138C51.54,16.047,51.49,15.743,51.429,15.374z M59.45,23.395c-0.194-0.376-0.322-0.623-0.449-0.869
	c-0.177,0.218-0.354,0.437-0.631,0.776C58.83,23.342,59.052,23.36,59.45,23.395z"/>
<path fill-rule="evenodd" clip-rule="evenodd" fill="#FFFFFF" d="M24.303,55.042c-1.818-1.751-3.293-3.767-4.573-5.93
	c-2.16-3.648-3.554-7.579-4.038-11.788c-0.899-7.812,0.937-14.969,5.464-21.393C25.955,9.125,32.48,4.658,40.339,2.078
	c5.24-1.721,10.631-2.39,16.127-1.944c10.021,0.813,18.774,4.503,25.841,11.783c4.267,4.396,7.177,9.59,8.345,15.634
	c2.06,10.652-1.028,19.817-8.27,27.719c-0.14,0.154-0.234,0.349-0.451,0.452c5.058-7.746,7.089-16.133,5.586-25.272
	c-1.507-9.168-6.082-16.536-13.506-22.055c-13.055-9.707-30.86-8.908-42.998,1.23c-3.251,2.717-5.924,5.915-8.005,9.61
	c-2.077,3.688-3.417,7.622-4.033,11.807c-0.617,4.19-0.445,8.349,0.479,12.483C20.375,47.653,22.045,51.46,24.303,55.042z"/>
<path fill-rule="evenodd" clip-rule="evenodd" fill="#D0B296" d="M106.792,66.726c0,0.41,0,0.773,0,1.186
	c-35.529,0-71.024,0-106.582,0c0-0.374,0-0.755,0-1.186C35.709,66.726,71.203,66.726,106.792,66.726z"/>
<path fill-rule="evenodd" clip-rule="evenodd" fill="#FFFFFF" d="M20.723,58.421c-0.003,4.022-3.128,7.104-7.203,7.104
	c-3.917,0-7.073-3.111-7.176-6.864c-0.11-4.023,2.936-7.262,7.213-7.295C17.574,51.335,20.727,54.444,20.723,58.421z M18.626,58.469
	c0.057-0.013,0.113-0.024,0.17-0.037c-0.25-1.107-0.376-2.262-0.776-3.313c-0.718-1.891-2.085-3.114-4.199-3.198
	c-2.171-0.088-3.759,0.934-4.635,2.89c-1.053,2.353-1.037,4.782-0.043,7.152c0.703,1.675,1.92,2.811,3.829,2.993
	c2.156,0.206,3.709-0.729,4.748-2.576C18.4,61.171,18.686,59.857,18.626,58.469z"/>
<path fill-rule="evenodd" clip-rule="evenodd" fill="#FFFFFF" d="M55.524,59.703c0.249-0.396,3.424-0.547,5.538-0.288
	c-0.22,0.173-0.324,0.313-0.458,0.351c-0.968,0.268-1.2,0.488-1.247,1.497c-0.052,1.122-0.012,2.249-0.047,3.373
	c-0.007,0.205-0.164,0.563-0.293,0.583c-2.563,0.396-5.135,0.63-7.594-0.464c-2.438-1.085-3.646-3.032-3.78-5.683
	c-0.163-3.23,1.673-6.123,4.681-7.284c1.138-0.438,2.317-0.489,3.524-0.3c1.146,0.181,2.271,1.029,3.511-0.025
	c0,1.461,0,2.75,0,4.243c-0.21-0.242-0.358-0.331-0.376-0.442c-0.345-1.973-2.228-3.261-4.162-3.353
	c-1.964-0.092-3.552,0.956-4.461,2.922c-1.386,2.999-0.503,7.159,1.934,9.036c1.249,0.961,2.654,1.195,4.176,0.823
	c0.734-0.178,1.049-0.681,1.046-1.385c-0.004-0.771-0.027-1.546-0.11-2.313c-0.092-0.864-0.469-1.175-1.329-1.227
	C55.901,59.759,55.727,59.728,55.524,59.703z"/>
<path fill-rule="evenodd" clip-rule="evenodd" fill="#FFFFFF" d="M35.48,60.297c2.021,1.533,3.183,3.813,5.785,4.725
	c-0.343,0.103-0.494,0.17-0.65,0.19c-1.468,0.199-2.706-0.09-3.719-1.332c-0.805-0.988-1.829-1.796-2.938-2.639
	c0.063,0.988,0.103,1.981,0.211,2.965c0.021,0.179,0.305,0.365,0.506,0.479c0.205,0.115,0.459,0.145,0.734,0.225
	c-0.454,0.399-3.941,0.426-4.508,0.061c0.138-0.074,0.239-0.152,0.354-0.186c1.035-0.292,1.122-0.389,1.124-1.441
	c0.003-3.679-0.006-7.357,0.007-11.036c0.002-0.692-0.205-1.136-0.976-1.152c-0.16-0.004-0.318-0.096-0.477-0.147
	c0.001-0.092,0.002-0.183,0.004-0.274c0.98-0.111,1.959-0.223,3.057-0.347c0,3.535,0,6.936,0,10.549
	c0.943-0.877,1.763-1.57,2.499-2.344c0.617-0.647,0.5-0.942-0.359-1.287c-0.096-0.038-0.173-0.121-0.431-0.308
	c1.689,0,3.181,0,4.671,0c0.034,0.075,0.069,0.15,0.104,0.226C38.174,57.197,37.125,59.034,35.48,60.297z"/>
<path fill-rule="evenodd" clip-rule="evenodd" fill="#FFFFFF" d="M74.94,56.656c2.624,0.003,4.548,1.856,4.553,4.387
	c0.008,2.52-1.924,4.396-4.542,4.414c-2.653,0.021-4.598-1.891-4.589-4.509C70.372,58.503,72.343,56.654,74.94,56.656z
	 M77.895,61.063c-0.262-0.904-0.433-1.773-0.769-2.573c-0.388-0.921-1.201-1.368-2.189-1.373c-0.989-0.005-1.778,0.444-2.22,1.34
	c-0.838,1.696-0.838,3.435-0.031,5.136c0.405,0.856,1.124,1.339,2.119,1.376c1.047,0.038,1.872-0.376,2.293-1.301
	C77.464,62.859,77.629,61.959,77.895,61.063z"/>
<path fill-rule="evenodd" clip-rule="evenodd" fill="#FFFFFF" d="M23.021,59.162c0.159-1.521,1.491-2.55,3.241-2.503
	c1.518,0.041,2.694,1.144,2.742,2.64c0.041,1.287,0.013,2.576,0.016,3.863c0,0.187-0.044,0.392,0.016,0.558
	c0.103,0.282,0.272,0.54,0.414,0.808c0.174-0.188,0.347-0.379,0.524-0.563c0.086-0.09,0.182-0.168,0.291-0.269
	c0.211,0.626-0.077,1.256-0.675,1.575c-0.802,0.426-1.452,0.171-2.093-0.72c-0.752,0.311-1.441,0.726-2.182,0.863
	c-0.886,0.165-1.646-0.281-2.153-1.039c-0.452-0.675-0.568-1.469-0.068-2.103c0.394-0.5,1.005-0.882,1.594-1.161
	c0.666-0.317,1.412-0.475,2.128-0.682c0.501-0.145,0.707-0.425,0.648-0.969c-0.107-0.989-0.647-1.721-1.489-1.905
	c-0.88-0.193-1.842,0.289-2.358,1.163c-0.121,0.205-0.291,0.381-0.439,0.572C23.125,59.248,23.073,59.204,23.021,59.162z
	 M27.458,60.689c-0.688,0.259-1.284,0.454-1.856,0.703c-0.905,0.395-1.145,0.821-1.091,1.815c0.042,0.764,0.586,1.342,1.257,1.338
	c0.793-0.005,1.667-0.708,1.686-1.39C27.473,62.384,27.458,61.612,27.458,60.689z"/>
<path fill-rule="evenodd" clip-rule="evenodd" fill="#FFFFFF" d="M91.458,60.146c0.015,1.836,0.361,3.389,1.996,4.259
	c1.703,0.907,2.993,0.061,4.11-1.257c0.048,0.042,0.094,0.085,0.141,0.128c-0.073,0.212-0.099,0.46-0.226,0.631
	c-1.057,1.417-2.975,1.914-4.884,1.289c-1.6-0.526-2.765-2.072-2.819-3.746c-0.077-2.356,1.134-4.136,3.195-4.691
	c1.703-0.46,3.593,0.377,4.299,1.946c0.182,0.408,0.221,0.881,0.353,1.441C95.502,60.146,93.525,60.146,91.458,60.146z
	 M95.952,59.701c0.04-1.028-0.283-1.807-1.123-2.254c-0.763-0.406-1.589-0.422-2.326,0.082c-0.742,0.509-1.041,1.255-1.01,2.172
	C93.001,59.701,94.442,59.701,95.952,59.701z"/>
<path fill-rule="evenodd" clip-rule="evenodd" fill="#FFFFFF" d="M61.836,56.934c1.068-0.108,2.137-0.217,3.289-0.334
	c0,0.587,0,1.09,0,1.785c0.605-0.453,1.071-0.81,1.543-1.154c0.695-0.506,1.406-0.796,2.275-0.352
	c0.51,0.26,0.646,0.534,0.349,1.031c-0.154,0.256-0.254,0.544-0.391,0.843c-0.428-0.187-0.807-0.36-1.192-0.52
	c-0.607-0.252-1.177-0.187-1.735,0.175c-0.546,0.354-0.867,0.752-0.823,1.475c0.069,1.143,0.018,2.294,0.019,3.441
	c0.002,1.151,0.026,1.183,1.131,1.481c0.081,0.022,0.156,0.071,0.246,0.113c-0.361,0.37-3.728,0.438-4.383,0.085
	c0.099-0.076,0.169-0.168,0.258-0.194c1.047-0.305,1.099-0.336,1.117-1.436c0.025-1.545,0.021-3.091,0.008-4.636
	c-0.012-1.129-0.121-1.231-1.267-1.405c-0.159-0.025-0.308-0.104-0.46-0.157C61.826,57.095,61.831,57.015,61.836,56.934z"/>
<path fill-rule="evenodd" clip-rule="evenodd" fill="#FFFFFF" d="M89.197,56.99c-0.193,0.184-0.262,0.31-0.344,0.317
	c-0.866,0.088-1.187,0.706-1.459,1.416c-0.783,2.049-1.586,4.092-2.395,6.13c-0.077,0.196-0.254,0.353-0.386,0.527
	c-0.136-0.169-0.32-0.318-0.4-0.511c-0.854-2.047-1.694-4.099-2.536-6.15c-0.28-0.685-0.572-1.35-1.454-1.425
	c-0.081-0.007-0.15-0.132-0.342-0.314c1.468,0,2.783,0,4.103,0c-0.006,0.115,0.009,0.183-0.016,0.202
	c-0.905,0.754-0.904,0.752-0.416,1.93c0.536,1.293,1.069,2.587,1.668,4.041c0.655-1.716,1.27-3.288,1.852-4.871
	c0.153-0.421-0.073-0.722-0.48-0.877c-0.198-0.077-0.395-0.152-0.593-0.228c0.013-0.063,0.026-0.125,0.039-0.188
	C87.032,56.99,88.028,56.99,89.197,56.99z"/>
<path fill-rule="evenodd" clip-rule="evenodd" fill="#FFFFFF" d="M60.105,79.767c-0.046-0.128-0.082-0.263-0.14-0.386
	c-0.254-0.544-0.938-0.797-1.481-0.554c-0.526,0.234-0.768,0.893-0.35,1.42c0.804,1.014,1.725,1.935,2.622,2.922
	c0.676-0.929,0.66-1.404,0.079-1.966c0.394,0.077,0.786,0.154,1.181,0.23c-0.084,0.399-0.14,0.809-0.266,1.194
	c-0.085,0.256-0.274,0.478-0.484,0.826c0.681,0.374,1.339,0.736,2.043,1.124c-0.771,0.146-1.545,0.116-2.227-0.255
	c-0.447-0.243-0.725-0.084-1.137,0.018c-0.793,0.195-1.676,0.385-2.447,0.224c-1.558-0.325-1.904-1.979-0.737-3.068
	c0.188-0.175,0.401-0.317,0.602-0.475c-0.501-1.336-0.378-2.064,0.592-2.39c0.63-0.212,1.365-0.13,2.055-0.126
	c0.104,0.001,0.283,0.284,0.3,0.449c0.025,0.27-0.054,0.552-0.089,0.828C60.181,79.778,60.144,79.772,60.105,79.767z M57.718,81.383
	c-0.697,0.647-0.77,1.584-0.23,2.227c0.602,0.718,1.664,0.767,2.504,0.164C59.25,82.994,58.501,82.206,57.718,81.383z"/>
<path fill-rule="evenodd" clip-rule="evenodd" fill="#FFFFFF" d="M34.38,79.302c0.135,0.764,0.273,1.526,0.403,2.291
	c0.117,0.69,0.184,1.393,0.352,2.07c0.081,0.324,0.346,0.604,0.556,0.951c-0.411-0.02-0.938-0.044-1.483-0.07
	c-0.149-1.067-0.296-2.106-0.441-3.146c-0.047-0.013-0.093-0.025-0.14-0.039c-0.583,1.07-1.166,2.139-1.854,3.4
	c-0.667-1.187-1.251-2.225-1.839-3.269c-0.47,0.826-0.511,2.75,0.097,3.113c-0.417,0-0.675,0-0.932,0c-0.249,0-0.497,0-0.567,0
	c0.156-0.561,0.352-1.117,0.461-1.689c0.229-1.187,0.412-2.382,0.613-3.574c0.076-0.033,0.151-0.067,0.226-0.102
	c0.356,0.646,0.714,1.291,1.066,1.939c0.355,0.651,0.704,1.309,1.113,2.07c0.741-1.391,1.426-2.675,2.111-3.96
	C34.208,79.294,34.294,79.298,34.38,79.302z"/>
<path fill-rule="evenodd" clip-rule="evenodd" fill="#FFFFFF" d="M71.385,84.603c0.754-0.627,0.714-4.733-0.065-5.138
	c0.752,0,1.401,0,2.058,0c-0.355,0.271-0.637,1.681-0.38,2.025c0.075,0.104,0.276,0.157,0.422,0.16
	c0.655,0.018,1.311-0.003,1.966,0.013c0.356,0.01,0.521-0.12,0.501-0.486c-0.018-0.304,0.033-0.617-0.024-0.91
	c-0.057-0.283-0.216-0.547-0.344-0.852c0.184,0,0.521,0,0.858,0c0.323,0,0.646,0,0.888,0c-0.113,0.289-0.29,0.539-0.295,0.793
	c-0.027,1.17-0.036,2.341,0.011,3.509c0.012,0.288,0.258,0.567,0.395,0.849c-0.528,0-1.221,0-1.9,0
	c0.322-0.311,0.596-1.875,0.374-2.303c-0.045-0.086-0.168-0.184-0.257-0.186c-0.772-0.016-1.544-0.015-2.316-0.008
	c-0.084,0.001-0.237,0.058-0.24,0.099c-0.037,0.46-0.071,0.923-0.064,1.384c0.008,0.432-0.084,0.959,0.623,1.051
	c-0.351,0-0.7,0-1.052,0C72.193,84.603,71.842,84.603,71.385,84.603z"/>
<path fill-rule="evenodd" clip-rule="evenodd" fill="#FFFFFF" d="M61.732,76.659c0.073-0.255,0.24-0.585,0.252-0.92
	c0.04-1.101,0.049-2.204,0.009-3.305c-0.011-0.293-0.244-0.579-0.345-0.8c1.09,0,2.381-0.111,3.645,0.03
	c1.451,0.163,2.204,1.073,2.247,2.354c0.042,1.249-0.832,2.431-2.193,2.606C64.129,76.782,62.875,76.659,61.732,76.659z
	 M63.047,74.091c0.004,0,0.007,0,0.01,0c0,0.537-0.026,1.078,0.014,1.613c0.015,0.205,0.128,0.479,0.286,0.58
	c0.809,0.52,2.493-0.04,2.859-0.932c0.354-0.854,0.321-1.704-0.229-2.463c-0.613-0.845-1.545-0.994-2.504-0.957
	c-0.152,0.006-0.399,0.298-0.417,0.477C63.012,72.964,63.047,73.528,63.047,74.091z"/>
<path fill-rule="evenodd" clip-rule="evenodd" fill="#FFFFFF" d="M44.357,76.8c-1.69-0.005-2.76-0.715-3.104-2.003
	c-0.439-1.642,0.798-3.227,2.653-3.351c0.48-0.031,0.985,0.007,1.454,0.117c1.528,0.356,2.198,1.27,2.09,2.754
	c-0.093,1.261-1.135,2.29-2.485,2.449C44.732,76.795,44.498,76.793,44.357,76.8z M46.319,74.318c0.008-1.483-0.852-2.47-2.166-2.481
	c-1.17-0.01-1.853,0.743-1.862,2.059c-0.011,1.444,0.937,2.521,2.244,2.545C45.651,76.463,46.312,75.677,46.319,74.318z"/>
<path fill-rule="evenodd" clip-rule="evenodd" fill="#FFFFFF" d="M96.962,76.799c-1.729-0.004-2.816-0.749-3.122-2.068
	c-0.38-1.646,0.829-3.161,2.661-3.284c0.48-0.031,0.985,0.007,1.453,0.116c1.524,0.356,2.206,1.281,2.098,2.754
	c-0.091,1.253-1.145,2.291-2.49,2.45C97.331,76.794,97.094,76.793,96.962,76.799z M98.922,74.312
	c0.004-1.472-0.874-2.469-2.183-2.475c-1.164-0.007-1.854,0.758-1.863,2.067c-0.009,1.432,0.963,2.521,2.262,2.538
	C98.248,76.455,98.919,75.653,98.922,74.312z"/>
<path fill-rule="evenodd" clip-rule="evenodd" fill="#FFFFFF" d="M12.156,71.402c1.375,1.275,2.749,2.551,4.143,3.845
	c0.301-1.315,0.051-3.345-0.506-3.644c0.593,0,1.108,0,1.5,0c-0.077,0.258-0.218,0.534-0.233,0.816
	c-0.075,1.438-0.119,2.878-0.346,4.454c-1.371-1.235-2.742-2.47-4.294-3.867c0.294,1.347-0.187,2.6,0.506,3.718
	c-0.387,0-0.873,0-1.275,0c0.069-0.352,0.195-0.715,0.202-1.082c0.025-1.377,0.01-2.757,0.01-4.134
	C11.959,71.473,12.057,71.437,12.156,71.402z"/>
<path fill-rule="evenodd" clip-rule="evenodd" fill="#FFFFFF" d="M42.106,79.295c1.359,1.258,2.716,2.517,4.114,3.812
	c0.32-1.684,0.123-3.263-0.479-3.656c0.56,0,1.061,0,1.517,0c-0.097,0.268-0.276,0.547-0.289,0.835
	c-0.055,1.169-0.061,2.339-0.082,3.508c-0.005,0.27,0,0.54,0,0.81c-0.078,0.051-0.156,0.101-0.233,0.149
	c-1.386-1.246-2.77-2.492-4.267-3.838c0.057,1.133,0.088,2.165,0.182,3.19c0.013,0.153,0.311,0.283,0.522,0.462
	c-0.602,0-1.181,0-1.579,0c0.088-0.371,0.267-0.797,0.279-1.228c0.038-1.325,0.014-2.652,0.014-3.979
	C41.905,79.339,42.004,79.316,42.106,79.295z"/>
<path fill-rule="evenodd" clip-rule="evenodd" fill="#FFFFFF" d="M101.221,71.255c1.539,1.427,2.924,2.712,4.342,4.026
	c0.282-1.537,0.02-3.392-0.53-3.7c0.57,0,1.104,0,1.495,0c-0.094,0.3-0.263,0.608-0.275,0.924c-0.05,1.145-0.042,2.291-0.066,3.437
	c-0.007,0.271-0.053,0.543-0.109,1.073c-1.508-1.364-2.861-2.59-4.335-3.922c0.044,1.295-0.176,2.477,0.317,3.605
	c-0.332,0-0.825,0-1.232,0c0.086-0.298,0.261-0.639,0.273-0.984c0.05-1.168,0.04-2.339,0.059-3.509
	C101.163,71.963,101.19,71.72,101.221,71.255z"/>
<path fill-rule="evenodd" clip-rule="evenodd" fill="#FFFFFF" d="M6.883,79.42c0.741,0,1.604-0.01,2.468,0.004
	c0.65,0.011,1.223,0.222,1.461,0.884c0.235,0.649-0.156,1.114-0.588,1.537c-0.098,0.096-0.203,0.186-0.42,0.385
	c0.848,0.82,1.667,1.612,2.419,2.34c-0.602,0.206-1.341,0.062-1.874-0.516c-0.333-0.359-0.59-0.794-0.944-1.13
	c-0.265-0.251-0.631-0.397-1.005-0.623c-0.313,1.279-0.146,1.938,0.558,2.278c-0.779,0-1.459,0-2.042,0
	c0.095-0.279,0.284-0.59,0.295-0.907c0.04-1.147,0.041-2.296,0.009-3.443C7.214,79.973,7.015,79.721,6.883,79.42z M8.246,80.905
	c0,0.14-0.027,0.285,0.005,0.417c0.061,0.25,0.118,0.673,0.243,0.699c0.311,0.063,0.722,0.041,0.98-0.123
	c0.64-0.405,0.54-1.589-0.118-1.968c-0.742-0.427-1.107-0.222-1.111,0.626C8.245,80.672,8.245,80.789,8.246,80.905z"/>
<path fill-rule="evenodd" clip-rule="evenodd" fill="#FFFFFF" d="M30.122,74.714c0.137,0.656-0.366,1.443,0.505,2.004
	c-0.66,0-1.279,0-1.892,0c0.593-0.762,0.533-4.67-0.156-5.15c0.928,0,1.786-0.015,2.643,0.003c0.617,0.015,1.178,0.2,1.41,0.838
	c0.22,0.606-0.073,1.087-0.505,1.497c-0.135,0.127-0.277,0.247-0.498,0.443c0.835,0.826,1.634,1.617,2.368,2.344
	c-0.924,0.188-1.397,0.032-2.084-0.784c-0.21-0.251-0.433-0.498-0.601-0.775C31.045,74.691,30.702,74.515,30.122,74.714z
	 M30.106,73.038c0,0.163-0.001,0.326,0,0.49c0.011,0.691,0.51,0.997,1.075,0.579c0.268-0.197,0.49-0.645,0.483-0.974
	c-0.007-0.361-0.21-0.845-0.492-1.049c-0.648-0.468-1.062-0.195-1.067,0.604C30.106,72.806,30.106,72.923,30.106,73.038z"/>
<path fill-rule="evenodd" clip-rule="evenodd" fill="#FFFFFF" d="M48.364,71.563c0.681,0,1.521-0.008,2.361,0.002
	c0.636,0.009,1.227,0.146,1.505,0.807c0.287,0.686-0.113,1.157-0.557,1.603c-0.098,0.097-0.198,0.189-0.413,0.396
	c0.838,0.818,1.65,1.613,2.412,2.357c-1.232,0.321-1.999-0.491-2.661-1.48c-0.311-0.465-0.654-0.784-1.332-0.529
	c0.161,0.648-0.359,1.434,0.551,1.982c-0.655,0-1.242,0-1.743,0c0.07-0.344,0.2-0.719,0.211-1.099
	c0.031-1.051,0.037-2.104-0.004-3.157C48.683,72.15,48.482,71.86,48.364,71.563z M50.246,74.237
	c0.646,0.002,1.039-0.359,1.118-0.979s-0.298-1.155-0.903-1.303c-0.492-0.12-0.838-0.083-0.779,0.569
	c0.035,0.37,0.029,0.748,0.001,1.121C49.646,74.115,49.846,74.296,50.246,74.237z"/>
<path fill-rule="evenodd" clip-rule="evenodd" fill="#FFFFFF" d="M95.645,82.224c0.867,0.84,1.673,1.621,2.418,2.341
	c-0.688,0.212-1.386,0.047-1.944-0.587c-0.296-0.332-0.523-0.728-0.841-1.031c-0.27-0.257-0.629-0.421-1.011-0.665
	c-0.299,1.394-0.178,1.932,0.509,2.299c-0.743,0-1.397,0-1.985,0c0.104-0.297,0.299-0.613,0.311-0.936
	c0.042-1.121,0.044-2.245,0.007-3.366c-0.009-0.283-0.214-0.559-0.327-0.83c0.828,0,1.812-0.073,2.771,0.035
	c0.388,0.044,0.925,0.424,1.035,0.766c0.124,0.379-0.12,0.907-0.286,1.339C96.215,81.802,95.944,81.944,95.645,82.224z
	 M94.126,79.809c0,0.528-0.013,1.013,0.006,1.495c0.011,0.316-0.152,0.739,0.406,0.793c0.516,0.049,0.929-0.095,1.127-0.604
	C96.063,80.469,95.384,79.673,94.126,79.809z"/>
<path fill-rule="evenodd" clip-rule="evenodd" fill="#FFFFFF" d="M91.949,84.634c-0.174,0-0.444,0-0.716,0c-0.346,0-0.692,0-0.928,0
	c-0.257-0.671-0.449-1.236-0.696-1.777c-0.07-0.149-0.29-0.265-0.464-0.32c-0.171-0.056-0.371-0.015-0.558-0.015
	c-1.127-0.001-1.577,0.371-1.697,1.48c-0.019,0.179,0.194,0.383,0.308,0.588c-0.582,0-1.189,0-1.63,0
	c0.295-0.435,0.696-0.881,0.934-1.402c0.668-1.463,1.266-2.956,1.898-4.436c0.061-0.145,0.164-0.27,0.324-0.526
	c0.188,0.366,0.346,0.635,0.467,0.917c0.612,1.411,1.189,2.839,1.838,4.235C91.236,83.825,91.619,84.192,91.949,84.634z
	 M88.486,79.946c-0.316,0.809-0.557,1.423-0.818,2.093c0.576,0,1.033,0,1.624,0C89.025,81.349,88.791,80.737,88.486,79.946z"/>
<path fill-rule="evenodd" clip-rule="evenodd" fill="#FFFFFF" d="M6.17,75.256c0.04,1.272-0.109,1.511-1.234,1.521
	c-0.897,0.008-1.838-0.028-2.683-0.291c-1.41-0.438-2.186-1.738-2.053-3.072c0.149-1.489,1.171-2.644,2.683-2.803
	c1.073-0.113,2.168-0.007,3.339,0.004c-0.041,0.646-0.068,1.101-0.087,1.399c-0.443-0.315-0.868-0.789-1.389-0.946
	c-0.547-0.167-1.204-0.121-1.782-0.008c-0.964,0.191-1.5,1.095-1.514,2.329c-0.017,1.442,0.722,2.474,2.076,2.894
	C4.641,76.629,5.482,76.327,6.17,75.256z"/>
<path fill-rule="evenodd" clip-rule="evenodd" fill="#FFFFFF" d="M56.767,76.765c0.091-0.416,0.236-0.794,0.245-1.174
	c0.029-1.265,0.006-2.53,0.013-3.796c0.004-0.52,0.096-1.071-0.659-1.177c1.3,0,2.601,0,3.947,0c-0.028,0.35-0.054,0.668-0.09,1.11
	c-0.523-0.924-1.295-0.566-2.029-0.656c0,0.75,0,1.417,0,2.11c0.656,0,1.294,0,1.995,0c-0.03,0.287-0.069,0.644-0.113,1.075
	c-0.473-0.857-1.202-0.477-1.914-0.576c0,0.73-0.049,1.385,0.026,2.026c0.026,0.218,0.367,0.571,0.555,0.565
	c0.504-0.013,1.007-0.174,1.5-0.313c0.086-0.023,0.127-0.214,0.231-0.404c0.104,1.157,0.058,1.21-0.934,1.209
	C58.58,76.764,57.62,76.765,56.767,76.765z"/>
<path fill-rule="evenodd" clip-rule="evenodd" fill="#FFFFFF" d="M0,79.659c0.102-0.502,0.167-0.828,0.234-1.162
	c1.909,0,3.767,0,5.646,0c0,0.363,0,0.679,0,1.12c-0.629-0.886-1.454-0.526-2.307-0.675c0,0.584,0,1.087,0,1.589
	c0.001,0.937-0.001,1.872,0.007,2.807c0.003,0.529-0.059,1.107,0.702,1.245c-0.754,0-1.507,0-2.144,0
	c0.097-0.36,0.285-0.752,0.295-1.149c0.037-1.445,0.015-2.892,0.015-4.443C1.619,79.093,0.762,78.7,0,79.659z"/>
<path fill-rule="evenodd" clip-rule="evenodd" fill="#FFFFFF" d="M72.348,71.582c0.419,0,0.931,0,1.351,0
	c-0.077,0.288-0.2,0.578-0.224,0.876c-0.073,0.978-0.052,1.965-0.189,2.931c-0.052,0.364-0.365,0.788-0.683,1.001
	c-0.928,0.623-1.97,0.573-2.945,0.137c-0.869-0.389-0.987-1.236-0.99-2.087c-0.002-0.679,0.031-1.36-0.015-2.036
	c-0.019-0.283-0.2-0.555-0.301-0.816c0.482,0,1.13,0,1.702,0c-0.102,0.222-0.283,0.442-0.29,0.669
	c-0.026,0.936-0.035,1.874,0.02,2.809c0.051,0.868,0.573,1.321,1.405,1.337c0.907,0.018,1.424-0.393,1.488-1.313
	c0.063-0.933,0.052-1.873,0.017-2.808C72.686,72.039,72.466,71.806,72.348,71.582z"/>
<path fill-rule="evenodd" clip-rule="evenodd" fill="#FFFFFF" d="M40.123,81.564c0,0.289,0,0.564,0,0.721
	c-0.563-0.121-1.127-0.243-1.96-0.423c0.15,0.883,0.109,1.645,0.429,2.197c0.257,0.443,1.355,0.15,1.822-0.342
	c0.064,0.879,0.014,0.938-0.803,0.938c-0.935-0.001-1.869,0-2.736,0c0.122-0.355,0.312-0.662,0.323-0.978
	c0.04-1.145,0.044-2.293,0.008-3.438c-0.009-0.271-0.229-0.535-0.359-0.818c0.422,0,0.997,0,1.571,0c0.583,0,1.164,0,1.795,0
	c0,0.251,0,0.512,0,0.642c-0.608-0.102-1.194-0.199-1.863-0.312c0,0.661,0,1.205,0,1.813C38.915,81.564,39.483,81.564,40.123,81.564
	z"/>
<path fill-rule="evenodd" clip-rule="evenodd" fill="#FFFFFF" d="M79.825,81.919c0.199,0.855-0.401,1.687,0.446,2.197
	c0.566,0.342,1.329,0.082,1.717-0.435c0.137,0.87,0.054,0.975-0.786,0.974c-0.934-0.001-1.867,0-2.707,0
	c0.114-0.38,0.294-0.715,0.306-1.056c0.039-1.098,0.041-2.198,0.002-3.297c-0.01-0.291-0.227-0.573-0.352-0.871
	c1.027,0,2.188,0,3.429,0c-0.026,0.29-0.05,0.576-0.081,0.926c-0.313-0.401-1.605-0.757-1.728-0.48
	c-0.191,0.432-0.191,0.974-0.173,1.465c0.015,0.352,0.449,0.385,1.818,0.179c0,0.293,0,0.58,0,0.717
	C81.121,82.138,80.547,82.04,79.825,81.919z"/>
<path fill-rule="evenodd" clip-rule="evenodd" fill="#FFFFFF" d="M20.326,79.264c0.551,1.2,1.081,2.412,1.66,3.599
	c0.296,0.607,0.406,1.37,1.18,1.709c-0.516,0-1.032,0-1.604,0c-0.021-0.104-0.036-0.229-0.073-0.349
	c-0.416-1.323-0.546-1.375-1.967-1.369c-0.652,0.002-0.678,0.492-0.829,0.861c-0.099,0.239-0.019,0.554-0.019,0.884
	c-0.375,0-0.904,0-1.518,0c1.133-0.646,1.212-1.871,1.744-2.824c0.449-0.803,0.791-1.667,1.181-2.506
	C20.162,79.268,20.244,79.266,20.326,79.264z M19.98,80.641c-0.278,0.687-0.495,1.22-0.729,1.798c0.548,0,0.972,0,1.469,0
	C20.473,81.837,20.257,81.313,19.98,80.641z"/>
<path fill-rule="evenodd" clip-rule="evenodd" fill="#FFFFFF" d="M79.613,76.651c0.529-0.055,0.807-0.389,1.01-0.848
	c0.57-1.28,1.159-2.549,1.746-3.821c0.092-0.2,0.207-0.39,0.395-0.74c0.232,0.441,0.4,0.73,0.539,1.033
	c0.525,1.145,1.024,2.303,1.572,3.437c0.174,0.359,0.467,0.66,0.71,0.994c-0.439,0-0.936,0-1.427,0
	c-0.523-1.641-1.22-2.135-2.388-1.705c-0.393,0.145-0.729,1.236-0.476,1.773c-0.586-0.048-1.126-0.093-1.665-0.138L79.613,76.651z
	 M83.292,74.598c-0.253-0.616-0.479-1.159-0.745-1.804c-0.271,0.655-0.498,1.198-0.75,1.804
	C82.354,74.598,82.78,74.598,83.292,74.598z"/>
<path fill-rule="evenodd" clip-rule="evenodd" fill="#FFFFFF" d="M16.507,79.421c-0.047,0.283-0.091,0.549-0.111,0.675
	c-0.627-0.116-1.227-0.226-1.939-0.357c0,0.586,0.011,1.002-0.003,1.416c-0.012,0.377,0.181,0.495,0.521,0.473
	c0.438-0.028,0.875-0.052,1.386-0.082c-0.032,0.3-0.063,0.587-0.076,0.708c-0.586-0.112-1.127-0.216-1.795-0.345
	c0.041,0.828-0.333,1.581,0.245,2.161c0.396,0.396,1.385,0.144,1.871-0.349c0.035,0.911,0.011,0.937-0.84,0.935
	c-0.926-0.003-1.853-0.001-2.874-0.001c0.746-0.689,0.688-4.806-0.123-5.233c0.738,0,1.331,0,1.923,0
	C15.269,79.421,15.848,79.421,16.507,79.421z"/>
<path fill-rule="evenodd" clip-rule="evenodd" fill="#FFFFFF" d="M79.629,76.637c-0.859,0.035-1.73,0.182-2.574,0.083
	c-1.596-0.188-2.539-1.326-2.477-2.79c0.058-1.335,1.186-2.381,2.752-2.481c0.576-0.037,1.163,0.078,1.744,0.075
	c0.62-0.005,0.839,0.266,0.725,0.858c-0.029,0.148-0.023,0.303-0.037,0.517c-0.733-1.092-2.392-1.412-3.319-0.697
	c-0.914,0.704-0.991,2.382-0.153,3.359c0.907,1.06,2.474,1.101,3.614-0.043c-0.123,0.481-0.207,0.808-0.291,1.133
	C79.613,76.651,79.629,76.637,79.629,76.637z"/>
<path fill-rule="evenodd" clip-rule="evenodd" fill="#FFFFFF" d="M8.468,74.242c0.216,0.672-0.406,1.517,0.415,2.037
	c0.498,0.315,1.287,0.044,1.732-0.458c0.115,0.827,0.032,0.937-0.737,0.938c-0.911,0.002-1.822,0-2.703,0
	c0.093-0.312,0.239-0.585,0.246-0.861c0.031-1.192,0.046-2.386,0.006-3.577c-0.008-0.257-0.268-0.508-0.408-0.754
	c1.057,0,2.22,0,3.405,0c0,0.271,0,0.537,0,0.629c-0.616-0.095-1.219-0.188-1.89-0.29c0,0.673,0,1.201,0,1.796
	c0.584,0,1.175,0,1.829,0c-0.017,0.271-0.037,0.562-0.047,0.724c-0.573-0.13-1.137-0.257-1.702-0.385
	C8.566,74.108,8.517,74.176,8.468,74.242z"/>
<path fill-rule="evenodd" clip-rule="evenodd" fill="#FFFFFF" d="M24.13,76.76c0.126-0.265,0.3-0.462,0.306-0.666
	c0.036-1.308,0.059-2.615,0.026-3.923c-0.005-0.208-0.309-0.408-0.465-0.601c1.094,0,2.258,0,3.457,0c0,0.275,0,0.546,0,0.636
	c-0.606-0.098-1.215-0.197-1.903-0.309c0,0.68,0,1.225,0,1.88c0.616-0.028,1.228-0.056,1.872-0.085
	c-0.04,0.279-0.081,0.572-0.097,0.687c-0.58-0.108-1.153-0.217-1.901-0.355c0.277,0.873-0.397,1.74,0.492,2.261
	c0.556,0.327,1.326,0.029,1.751-0.527c0.113,0.838-0.015,1.001-0.795,1.003C25.966,76.762,25.061,76.76,24.13,76.76z"/>
<path fill-rule="evenodd" clip-rule="evenodd" fill="#FFFFFF" d="M26.778,84.612c-0.697,0-1.373,0-1.946,0
	c0.097-0.35,0.268-0.701,0.278-1.058c0.036-1.19,0.014-2.383,0.014-3.728c-0.717,0.073-1.374,0.14-2.07,0.21
	c0.013-0.106,0.046-0.363,0.082-0.658c1.671,0,3.299,0,4.988,0c0,0.299,0,0.586,0,0.711c-0.574-0.095-1.183-0.195-1.905-0.314
	c0,1.505-0.019,2.876,0.023,4.244C26.249,84.208,26.564,84.385,26.778,84.612z"/>
<path fill-rule="evenodd" clip-rule="evenodd" fill="#FFFFFF" d="M99.676,84.561c0.129-0.192,0.346-0.367,0.349-0.547
	c0.027-1.351,0.015-2.702,0.015-4.202c-0.726,0.088-1.399,0.168-2.06,0.247c0.022-0.11,0.079-0.377,0.142-0.678
	c1.638,0,3.267,0,4.956,0c0,0.305,0,0.594,0,0.719c-0.578-0.096-1.203-0.199-1.908-0.316c0,1.509-0.02,2.859,0.022,4.206
	c0.005,0.192,0.303,0.376,0.472,0.571C101.04,84.561,100.346,84.561,99.676,84.561z"/>
<path fill-rule="evenodd" clip-rule="evenodd" fill="#FFFFFF" d="M21.677,76.731c-0.576,0-1.206,0-1.746,0
	c0.074-0.358,0.203-0.717,0.211-1.077c0.027-1.188,0.01-2.376,0.01-3.732c-0.751,0.099-1.416,0.187-2.083,0.272
	c0.025-0.113,0.091-0.418,0.148-0.681c1.699,0,3.325,0,4.995,0c0,0.324,0,0.614,0,0.715c-0.532-0.078-1.072-0.181-1.615-0.216
	c-0.108-0.007-0.332,0.247-0.334,0.382c-0.017,1.239-0.016,2.479,0.031,3.716C21.303,76.327,21.55,76.534,21.677,76.731z"/>
<path fill-rule="evenodd" clip-rule="evenodd" fill="#FFFFFF" d="M103.54,83.216c0.398,0.976,1.108,1.339,1.834,1.018
	c0.664-0.295,0.793-0.992,0.228-1.453c-0.357-0.292-0.792-0.488-1.181-0.745c-0.56-0.37-0.965-0.85-0.81-1.57
	c0.163-0.752,0.769-1.009,1.445-1.126c0.228-0.04,0.466-0.027,0.701-0.023c0.959,0.02,0.983,0.054,0.813,1.244
	c-0.282-0.841-0.844-1-1.48-0.824c-0.253,0.068-0.552,0.322-0.629,0.559c-0.059,0.18,0.136,0.536,0.321,0.688
	c0.357,0.291,0.798,0.479,1.187,0.735c0.743,0.489,1.013,1.132,0.802,1.845c-0.184,0.619-0.852,1.075-1.627,1.107
	c-0.211,0.008-0.421,0.008-0.632,0.003C103.385,84.647,103.257,84.471,103.54,83.216z"/>
<path fill-rule="evenodd" clip-rule="evenodd" fill="#FFFFFF" d="M48.137,79.385c1.726,0,3.336,0,5,0c0,0.328,0,0.618,0,0.731
	c-0.604-0.106-1.241-0.218-1.968-0.347c0,1.507-0.022,2.877,0.026,4.245c0.006,0.192,0.361,0.372,0.578,0.577
	c-0.695,0-1.385,0-1.97,0c0.095-0.382,0.271-0.787,0.286-1.196c0.04-1.144,0.013-2.288,0.013-3.579
	c-0.737,0.08-1.396,0.151-2.091,0.226C48.033,79.932,48.085,79.659,48.137,79.385z"/>
<path fill-rule="evenodd" clip-rule="evenodd" fill="#FFFFFF" d="M67.601,79.819c-0.704,0.074-1.366,0.144-2.056,0.217
	c0.013-0.108,0.046-0.371,0.077-0.615c0.872,0,1.684,0,2.495,0c0.816,0,1.634,0,2.497,0c0,0.267,0,0.535,0,0.671
	c-0.59-0.095-1.21-0.193-1.92-0.308c0,1.509-0.021,2.86,0.021,4.212c0.006,0.19,0.313,0.372,0.495,0.574c-0.646,0-1.339,0-1.977,0
	c0.117-0.206,0.344-0.421,0.349-0.641C67.618,82.604,67.601,81.274,67.601,79.819z"/>
<path fill-rule="evenodd" clip-rule="evenodd" fill="#FFFFFF" d="M40.286,72.447c-0.585-0.76-1.283-0.351-1.942-0.457
	c0,0.612,0,1.14,0,1.721c0.613,0,1.206,0,1.85,0c-0.024,0.294-0.049,0.585-0.057,0.683c-0.589-0.117-1.156-0.231-1.864-0.371
	c0.194,1.03-0.405,2.017,0.611,2.709c-0.646,0-1.273,0-1.906,0c0.542-1.045,0.415-4.754-0.179-5.131
	c0.075-0.014,0.143-0.034,0.21-0.034c1.116-0.002,2.232-0.001,3.417-0.001C40.377,71.866,40.333,72.144,40.286,72.447z"/>
<path fill-rule="evenodd" clip-rule="evenodd" fill="#FFFFFF" d="M88.091,71.89c0,1.506-0.021,2.814,0.019,4.121
	c0.008,0.245,0.259,0.483,0.394,0.718c-0.58,0-1.209,0-1.765,0c0.102-0.275,0.293-0.56,0.301-0.849
	c0.034-1.259,0.014-2.521,0.014-3.947c-0.727,0.086-1.399,0.166-2.098,0.249c0.023-0.117,0.077-0.399,0.119-0.612
	c0.878,0,1.69,0,2.502,0c0.796,0,1.591,0,2.456,0c0,0.244,0,0.527,0,0.658C89.449,72.126,88.828,72.019,88.091,71.89z"/>
<path fill-rule="evenodd" clip-rule="evenodd" fill="#FFFFFF" d="M90.957,71.582c0.62,0,1.222,0,1.853,0
	c-0.701,0.564-0.614,4.631,0.116,5.138c-0.651,0-1.271,0-1.885,0C91.491,75.954,91.443,72.052,90.957,71.582z"/>
</svg>
