<?xml version="1.0" encoding="utf-8"?>
<!-- Generator: Adobe Illustrator 16.0.0, SVG Export Plug-In . SVG Version: 6.00 Build 0)  -->
<!DOCTYPE svg PUBLIC "-//W3C//DTD SVG 1.1//EN" "http://www.w3.org/Graphics/SVG/1.1/DTD/svg11.dtd">
<svg version="1.1" id="Layer_1" xmlns="http://www.w3.org/2000/svg" xmlns:xlink="http://www.w3.org/1999/xlink" x="0px" y="0px"
	 width="256.97px" height="111.889px" viewBox="0 0 256.97 111.889" enable-background="new 0 0 256.97 111.889"
	 xml:space="preserve">
<g>
	<path fill-rule="evenodd" clip-rule="evenodd" fill="#FFFFFF" d="M125.543,75.331c0.161,0.754,0.428,1.511,0.463,2.279
		c0.07,1.515,0.213,2.968,1.278,4.174c0.175,0.197,0.259,0.535,0.267,0.812c0.23,7.726,0.073,15.424-2.332,22.87
		c-0.476,1.475-1.241,2.901-2.112,4.188c-0.581,0.857-1.585,1.429-2.4,2.128c-0.133-0.08-0.267-0.159-0.401-0.239
		c0-16.532,0-33.065,0-49.598c-0.105-0.011-0.21-0.021-0.316-0.031c-1.06,3.872-2.12,7.743-3.179,11.616
		c-0.101,0.368-0.189,0.738-0.287,1.107c-0.27,1.024-0.167,1.813,1.44,1.744c-0.198,0.985-0.272,1.868-0.561,2.675
		c-0.482,1.35-0.884,2.654-0.331,4.091c0.119,0.31,0.025,0.764-0.106,1.098c-2.683,6.826-5.629,13.524-10.275,19.293
		c-1.03,1.279-2.311,2.386-3.599,3.419c-1.072,0.859-2.36,1.354-3.958,1.015c6.429-15.523,12.84-31.006,19.252-46.489
		c-0.082-0.05-0.164-0.1-0.245-0.149c-1.209,1.542-2.422,3.082-3.625,4.629c-1.438,1.85-2.889,3.69-4.291,5.568
		c-0.435,0.582-1.065,1.268,0.089,1.865c0.177,0.092,0.297,0.624,0.2,0.844c-0.236,0.533-0.551,1.064-0.95,1.487
		c-1.068,1.134-2.071,2.263-2.065,3.964c0.001,0.29-0.262,0.63-0.488,0.863c-5.174,5.333-10.53,10.451-17.133,14.033
		c-2.069,1.122-4.242,2.011-6.681,1.757c-0.564-0.059-1.111-0.287-1.939-0.512c12.147-12.051,24.081-23.89,36.015-35.729
		c-0.106-0.127-0.211-0.255-0.317-0.383c-4.185,2.415-8.37,4.829-12.608,7.275c0.398,0.619,0.602,0.937,0.982,1.528
		c-0.774,0.516-1.507,1.128-2.34,1.529c-1.218,0.587-2.276,1.264-2.96,2.498c-0.238,0.431-0.796,0.758-1.28,0.964
		c-6.893,2.942-13.862,5.68-21.428,6.265c-1.704,0.132-3.478-0.162-5.167-0.511c-0.861-0.177-1.608-0.911-2.406-1.395
		c0.034-0.142,0.069-0.283,0.104-0.425c15.547-6.447,31.093-12.895,46.64-19.342c-0.019-0.067-0.038-0.135-0.057-0.202
		c-2.979,0.379-5.958,0.755-8.937,1.138c-1.392,0.179-2.78,0.384-4.173,0.554c-1.087,0.132-1.704,0.551-1.004,1.999
		c-1.073,0.198-2.001,0.474-2.941,0.519c-1.313,0.063-2.483,0.31-3.573,1.134c-0.488,0.369-1.274,0.481-1.924,0.479
		c-6.903-0.031-13.806-0.155-20.524-2.02c-2.302-0.639-4.718-1.347-6.231-3.272c-1.042-1.327-2.145-1.454-3.578-1.45
		c-11.088,0.031-22.176,0.021-33.265,0.013c-0.437,0-0.873-0.11-1.31-0.169c0.012-0.165,0.023-0.329,0.035-0.493
		c0.427,0,0.854,0,1.281,0c11.259,0,22.517,0.012,33.776-0.003c18.507-0.023,37.014-0.053,55.521-0.121
		c1.249-0.005,1.728,0.259,1.875,1.628c0.574,5.33,1.319,10.641,2.006,15.958C123.677,75.391,123.964,75.633,125.543,75.331z
		 M117.424,67.607c-0.117-0.04-0.233-0.079-0.35-0.119c-3.821,9.271-7.642,18.54-11.42,27.704c1.147,0.464,1.953,0.789,2.758,1.114
		c0.047-0.108,0.094-0.216,0.141-0.324c-0.247-0.195-0.494-0.392-0.741-0.587c1.741,0.673,2.78-0.308,3.478-1.594
		c1.528-2.818,2.918-5.713,4.381-8.606c-0.828-0.401-1.355-0.657-1.996-0.968c0.649-0.072,1.114-0.123,1.781-0.197
		c-0.975-0.398-1.682-0.688-2.39-0.978c0.027-0.06,0.054-0.119,0.081-0.179c0.688,0,1.375,0,2.121,0
		c-0.539-1.065-1.015-2.007-1.629-3.221c1.54,0.363,1.289-0.513,1.31-1.101c0.495-0.182,0.921-0.338,1.518-0.557
		c-0.356-0.33-0.626-0.464-0.699-0.669c-0.268-0.75-0.807-1.609-0.639-2.275C115.766,72.538,116.639,70.083,117.424,67.607z
		 M110.98,57.707c-0.003-0.084-0.006-0.168-0.009-0.253c-0.322-0.023-0.645-0.066-0.967-0.066
		c-9.378-0.004-18.758-0.009-28.137,0.011c-0.581,0.001-1.164,0.185-1.74,0.31c-0.099,0.021-0.169,0.17-0.278,0.287
		c0.223,0.016,0.403,0.029,0.48,0.034c0,0.835,0,1.643,0,2.45c0.096,0,0.192,0,0.288,0c0.067-0.326,0.134-0.652,0.201-0.979
		c0.25,1.215,0.763,2.095,2.035,2.413c3.472,0.869,6.982,0.814,10.555,0.607c0-0.628,0-1.148,0-1.966
		c0.309,0.62,0.474,0.952,0.639,1.283c0.087-0.011,0.175-0.023,0.262-0.035c0-0.688,0-1.377,0-2.189
		c0.382,0.775,0.677,1.373,0.975,1.976c0.778-0.951,1.422-1.738,1.98-2.421c0.462,0.37,0.847,0.789,0.936,0.733
		c0.935-0.582,1.337,0.144,1.88,0.866c0.224-0.411,0.321-0.745,0.539-0.955c0.554-0.536,1.118-1.382,1.755-1.458
		C105.227,58.015,108.108,57.902,110.98,57.707z M94.412,87.682c0.774,0.07,1.738,0.464,2.395,0.17
		c3.491-1.563,5.883-4.461,8.42-7.094c-0.496-0.537-0.878-0.952-1.484-1.608c0.764,0.275,1.177,0.424,1.591,0.573
		c0.052-0.089,0.104-0.177,0.156-0.266c-0.532-0.438-1.064-0.875-1.595-1.313c0.053-0.059,0.105-0.117,0.158-0.176
		c0.628,0.229,1.256,0.459,1.941,0.709c-0.148-1.207-0.271-2.218-0.382-3.123c1.184-0.409,2.105-0.718,3.011-1.066
		c0.055-0.021,0.039-0.386-0.033-0.552c-0.471-1.09-0.159-1.991,0.55-2.869c1.479-1.831,2.916-3.693,4.371-5.544
		c-0.287-0.069-0.41,0.011-0.511,0.112c-6.501,6.498-13.005,12.993-19.489,19.508c-0.458,0.461-0.77,1.067-1.022,1.426
		c0.764,0.713,1.395,1.302,2.026,1.892c0.076-0.073,0.151-0.146,0.227-0.219C94.594,87.991,94.446,87.739,94.412,87.682z
		 M111.477,61.75c-0.047-0.097-0.095-0.193-0.143-0.29c-9.295,3.86-18.59,7.721-27.828,11.558c0.417,1.146,0.722,1.987,1.027,2.828
		c0.119-0.039,0.238-0.077,0.358-0.114c-0.044-0.347-0.087-0.692-0.094-0.75c0.693,0.404,1.502,1.294,2.244,1.241
		c3.73-0.264,7.066-1.851,10.399-3.39c-0.234-0.646-0.417-1.15-0.703-1.939c0.576,0.509,0.89,0.786,1.436,1.269
		c-0.387-1.014-0.648-1.7-0.985-2.585c0.7,0.67,1.213,1.16,1.73,1.656c0.339-1.186,0.622-2.171,0.946-3.306
		c0.514,0.354,0.774,0.534,1.18,0.814c0.425-1.852,1.29-0.202,2.076-0.355c0.025-0.336-0.035-0.693,0.09-0.967
		c0.305-0.672,0.53-1.589,1.078-1.905C106.627,64.161,109.071,62.989,111.477,61.75z M123.427,96.727
		c1.229-0.29,2.068-0.783,2.433-2.063c0.987-3.461,0.614-6.969,0.653-10.522c-0.616,0-1.095,0-1.824,0
		c0.524-0.335,0.835-0.534,1.429-0.914c-1.094,0-1.837,0-2.747,0c0.835-0.367,1.51-0.665,2.251-0.991
		c-0.996-0.776-1.777-1.384-2.572-2.004c0.389-0.433,0.875-0.863,0.826-0.937c-0.623-0.925,0.146-1.324,0.774-1.85
		c-0.288-0.194-0.477-0.327-0.671-0.452c-0.924-0.592-1.53-1.252-1.594-2.522c-0.126-2.484-0.528-4.954-0.816-7.431
		c-0.161,0.182-0.195,0.349-0.195,0.517c-0.002,9.498-0.005,18.995,0.011,28.493c0.001,0.475,0.18,0.949,0.219,1.14
		c1.038,0,1.892,0,2.746,0c0.003-0.106,0.007-0.212,0.011-0.317C124.05,96.825,123.739,96.776,123.427,96.727z"/>
	<path fill-rule="evenodd" clip-rule="evenodd" fill="#FFFFFF" d="M142.109,60.051c11.909,11.893,23.818,23.785,35.789,35.739
		c-1.855,0.987-3.707,0.655-5.536,0.026c-4.098-1.411-7.568-3.901-10.8-6.678c-3.13-2.689-6.062-5.61-9.04-8.471
		c-0.353-0.337-0.44-0.941-0.676-1.409c-0.507-1.006-0.988-2.026-1.559-2.995c-0.384-0.651-0.966-1.188-1.325-1.85
		c-0.142-0.261-0.034-0.952,0.161-1.05c0.921-0.466,0.588-1.026,0.189-1.551c-2.729-3.59-5.479-7.164-8.437-10.627
		c6.44,15.554,12.882,31.108,19.354,46.736c-1.766,0.483-3.033-0.326-4.238-1.17c-2.419-1.692-4.144-4.036-5.718-6.478
		c-3.169-4.917-5.631-10.192-7.695-15.653c-0.232-0.613-0.07-1.369-0.137-2.054c-0.104-1.078-0.207-2.16-0.383-3.229
		c-0.155-0.937-0.409-1.858-0.663-2.981c1.482,0.134,1.767-0.541,1.493-1.56c-1.136-4.242-2.287-8.48-3.693-12.688
		c0,16.433,0,32.864,0,49.778c-1.007-0.663-1.814-1.011-2.375-1.597c-2.179-2.273-3.123-5.199-3.584-8.177
		c-0.683-4.405-1.028-8.864-1.457-13.306c-0.139-1.438-0.118-2.894-0.113-4.341c0.004-1.234,0.154-2.389,0.931-3.494
		c0.492-0.701,0.503-1.754,0.681-2.658c0.192-0.977,0.328-1.964,0.521-3.144c1.808,0.888,1.955-0.241,2.095-1.297
		c0.552-4.175,1.079-8.353,1.614-12.529c0.174-1.35,0.412-2.694,0.493-4.05c0.051-0.85,0.368-1.063,1.172-1.057
		c3.581,0.032,7.163,0.002,10.745,0.002c14.029-0.003,28.059-0.016,42.088,0c11.598,0.014,23.194,0.061,34.791,0.097
		c0.439,0.002,0.878,0.043,1.316,0.065c0.012,0.137,0.023,0.272,0.035,0.409c-0.481,0.061-0.964,0.175-1.446,0.176
		c-10.362,0.009-20.725,0.018-31.088-0.01c-1.302-0.004-2.302,0.087-3.232,1.334c-1.329,1.781-3.495,2.506-5.579,3.156
		c-5.212,1.628-10.604,1.977-16.013,2.186c-1.489,0.058-2.98,0.087-4.472,0.094c-1.236,0.006-2.382-0.151-3.484-0.931
		c-0.7-0.496-1.756-0.505-2.66-0.69c-0.785-0.16-1.594-0.213-2.367-0.414c-0.234-0.061-0.594-0.535-0.537-0.681
		c0.475-1.222-0.412-1.309-1.165-1.418c-2.356-0.343-4.719-0.645-7.081-0.948c-2.018-0.259-4.038-0.499-6.125-0.555
		c15.516,6.432,31.031,12.864,46.835,19.415c-0.515,0.481-0.856,0.944-1.313,1.203c-2.049,1.159-4.295,1.271-6.57,1.063
		c-7.252-0.667-13.956-3.221-20.601-5.988c-1.012-0.421-1.759-0.998-2.404-1.935c-0.515-0.748-1.508-1.175-2.308-1.715
		c-0.628-0.425-1.324-0.76-1.908-1.234c-0.206-0.167-0.346-0.774-0.215-0.938c0.732-0.91,0.087-1.319-0.557-1.694
		c-2.206-1.287-4.431-2.545-6.647-3.813c-1.614-0.923-3.229-1.847-4.842-2.77C142.282,59.821,142.196,59.936,142.109,60.051z
		 M153.231,95.934c0.117-0.028,0.234-0.058,0.352-0.086c-0.24-0.952-0.371-1.949-0.739-2.849c-3.154-7.704-6.35-15.392-9.538-23.082
		c-0.319-0.77-0.67-1.526-1.006-2.289c0.424,2.414,0.971,4.771,1.781,7.033c0.397,1.108,0.062,1.845-0.477,2.659
		c-0.147,0.224-0.335,0.422-0.621,0.778c0.591,0.169,1.006,0.286,1.447,0.412c0.107,0.643-0.247,1.624,1.372,1.196
		c-0.681,1.26-1.18,2.185-1.782,3.3c0.912-0.055,1.601-0.096,2.289-0.138c0.021,0.049,0.041,0.097,0.062,0.145
		c-0.735,0.311-1.472,0.621-2.544,1.074c0.818,0,1.288,0,1.759,0c0.011,0.078,0.021,0.157,0.031,0.236
		c-0.529,0.231-1.059,0.464-1.689,0.74c1.264,3.188,2.388,6.437,4.501,9.217c0.726,0.954,1.547,1.604,2.825,1.023
		c0.061-0.027,0.157,0.027,0.306,0.058c-0.263,0.236-0.489,0.439-0.717,0.643c0.059,0.111,0.116,0.221,0.174,0.331
		c0.691-0.328,1.383-0.656,2.063-0.98C153.12,95.507,153.176,95.721,153.231,95.934z M135.007,77.287
		c0.411,1.103,0.739,1.984,1.168,3.134c-0.664,0.503-1.478,1.12-2.443,1.853c0.761,0.321,1.391,0.588,2.021,0.854
		c-0.01,0.06-0.02,0.12-0.028,0.181c-0.728,0-1.454,0-2.411,0c0.546,0.349,0.857,0.548,1.408,0.899c-0.797,0-1.282,0-1.839,0
		c-0.192,3.416-0.208,6.761,0.521,10.08c0.292,1.33,1.008,2.121,2.391,2.254c0.062,0.006,0.117,0.073,0.234,0.151
		c-0.373,0.078-0.693,0.146-1.013,0.213c0.014,0.11,0.026,0.221,0.04,0.332c0.897,0,1.794,0,2.85,0c0-10.138,0-20.288,0-30.438
		c-0.272,1.808-0.336,3.65-0.717,5.425c-0.283,1.321,0.305,2.849-0.829,3.966C135.898,76.643,135.354,77.009,135.007,77.287z
		 M166.888,87.004c0.111-0.113,0.224-0.226,0.336-0.338c-6.911-7.344-14.24-14.283-21.388-21.404c1.394,1.99,2.888,3.893,4.4,5.778
		c0.161,0.2,0.621,0.305,0.626,0.465c0.024,0.816-0.097,1.638-0.067,2.454c0.008,0.232,0.31,0.53,0.551,0.66
		c0.282,0.152,0.679,0.089,0.965,0.236c0.394,0.203,0.729,0.517,1.09,0.782c0.121-0.053,0.242-0.105,0.363-0.159
		c-0.115,1.021-0.231,2.04-0.365,3.224c0.721-0.277,1.342-0.516,1.962-0.755c0.082,0.104,0.164,0.209,0.246,0.313
		c-0.537,0.438-1.074,0.876-1.61,1.314c0.022,0.046,0.046,0.093,0.068,0.139c0.422-0.138,0.844-0.274,1.266-0.411
		c0.071,0.094,0.143,0.188,0.214,0.283c-0.486,0.329-0.973,0.658-1.716,1.161c2.483,2.196,4.716,4.283,7.077,6.214
		c1.308,1.068,2.828,1.924,4.379,0.238c-0.212,0.345-0.425,0.69-0.637,1.036c0.093,0.082,0.185,0.165,0.277,0.248
		c0.536-0.56,1.071-1.119,1.628-1.7C166.591,86.809,166.739,86.906,166.888,87.004z M179.547,58.05
		c0.014-0.103,0.028-0.205,0.043-0.309c-0.806-0.118-1.612-0.34-2.418-0.342c-9.119-0.024-18.238-0.016-27.357-0.017
		c-0.463,0-0.927,0-1.39,0c2.685,0.495,5.372,0.903,8.073,1.035c0.589,0.028,0.891,0.153,1.255,0.465
		c0.605,0.518,1.211,1.033,1.77,1.51c0.262-0.18,0.611-0.519,1.03-0.678c0.41-0.156,0.89-0.13,1.339-0.185
		c0.066-0.152,0.132-0.304,0.198-0.457c0.632,0.811,1.264,1.62,1.987,2.549c0.321-0.654,0.621-1.262,1.08-2.195
		c0,1.082,0,1.8,0,2.519c0.066,0.009,0.133,0.017,0.199,0.025c0.152-0.416,0.305-0.832,0.587-1.604
		c0.084,0.936,0.138,1.528,0.19,2.107c2.281,0.4,7.467,0.13,10.033-0.463c1.253-0.29,2.104-0.878,2.18-2.267
		c0.004-0.084,0.114-0.163,0.248-0.343c0.082,0.437,0.141,0.75,0.199,1.064c0.128-0.009,0.257-0.018,0.385-0.026
		c-0.037-0.813-0.075-1.626-0.112-2.426C179.197,58.025,179.372,58.038,179.547,58.05z M175.858,73.009
		c-9.093-3.777-18.208-7.563-27.324-11.351c1.917,1.406,3.897,2.668,6.015,3.627c0.908,0.412,1.193,1.096,1.586,1.774
		c0.204,0.354,0.119,0.873,0.199,1.652c0.857-0.854,1.617-1.083,2.156-0.085c0.355-0.205,0.621-0.358,1.1-0.634
		c0.299,1.166,0.556,2.167,0.926,3.608c0.666-0.706,1.16-1.229,1.604-1.699c-0.24,0.577-0.536,1.287-0.961,2.306
		c0.599-0.521,0.941-0.819,1.523-1.326c-0.329,0.841-0.535,1.367-0.769,1.964c3.166,1.403,6.25,2.799,9.653,3.348
		c1.278,0.205,2.163-0.115,2.763-1.247c0.046-0.085,0.118-0.156,0.256-0.337c0,0.46,0,0.784,0,1.108
		c0.103,0.02,0.206,0.039,0.309,0.06C175.185,74.941,175.477,74.106,175.858,73.009z"/>
	<path fill-rule="evenodd" clip-rule="evenodd" fill="#FFFFFF" d="M94.007,14.035c6.077,0,11.943,0,17.906,0
		c0-3.479,0.071-6.881-0.033-10.276c-0.044-1.44-1.246-1.904-2.517-2.068c-0.337-0.043-0.69-0.001-1.016-0.08
		c-0.275-0.067-0.521-0.252-0.781-0.385c0.272-0.167,0.542-0.477,0.817-0.48c3.065-0.04,6.132-0.032,9.198-0.036
		c0.426-0.001,0.858-0.041,1.275,0.021c0.186,0.027,0.458,0.25,0.475,0.407c0.016,0.154-0.207,0.411-0.386,0.496
		c-0.815,0.389-2.021,0.515-2.394,1.145c-0.543,0.915-0.656,2.181-0.666,3.3c-0.051,5.799-0.015,11.599,0.001,17.399
		c0.002,0.723,0.039,1.449,0.101,2.17c0.178,2.081,0.88,2.742,2.986,2.854c0.564,0.03,1.29-0.13,1.007,0.931
		c-4.307,0-8.601,0-12.895,0c-0.063-0.115-0.126-0.231-0.189-0.347c0.315-0.193,0.618-0.532,0.946-0.559
		c3.927-0.311,4.114-0.496,4.117-4.417c0.002-2.72,0-5.441,0-8.236c-6.02,0-11.925,0-17.927,0c0,3.346-0.077,6.663,0.031,9.973
		c0.059,1.795,0.956,2.467,2.809,2.667c0.369,0.04,0.71,0.335,1.065,0.512c-0.057,0.153-0.113,0.306-0.169,0.459
		c-3.66,0-7.319,0.007-10.979-0.021c-0.187-0.001-0.37-0.317-0.554-0.486c0.206-0.158,0.393-0.418,0.619-0.458
		c2.92-0.518,3.287-0.93,3.289-3.883c0.005-6.396,0.003-12.794,0.001-19.191c-0.001-2.572-0.285-2.942-2.67-3.723
		c-0.251-0.082-0.426-0.397-0.636-0.604c0.262-0.14,0.523-0.399,0.786-0.401c3.111-0.024,6.224-0.022,9.335,0.015
		c0.292,0.003,0.58,0.295,0.87,0.454c-0.285,0.157-0.555,0.404-0.858,0.457c-2.309,0.401-2.947,1.119-2.96,3.504
		C93.995,8.082,94.007,11.016,94.007,14.035z"/>
	<path fill-rule="evenodd" clip-rule="evenodd" fill="#FFFFFF" d="M185.402,22.927c0-2.119,0.002-4.238,0-6.357
		c-0.005-3.965,0.01-7.931-0.027-11.896c-0.02-1.996-0.646-2.594-2.639-2.887c-0.616-0.09-1.202-0.376-1.803-0.572
		c0.623-0.167,1.244-0.465,1.87-0.479c2.642-0.058,5.285-0.05,7.927-0.015c0.37,0.005,0.736,0.294,1.104,0.452
		c-0.049,0.126-0.098,0.251-0.146,0.377c-0.587,0.074-1.175,0.143-1.761,0.223c-1.971,0.271-2.388,0.745-2.388,2.73
		c-0.002,4.733,0.001,9.466,0.002,14.199c0,3.112-0.001,6.225-0.001,9.337c0,0.545,0,1.091,0,2.091
		c-0.863-0.481-1.545-0.68-1.973-1.125c-7.472-7.768-14.911-15.565-22.36-23.355c-0.144-0.15-0.307-0.28-0.647-0.588
		c-0.045,0.536-0.1,0.878-0.1,1.221c-0.005,6.055-0.003,12.109-0.001,18.164c0,0.255-0.001,0.512,0.018,0.767
		c0.191,2.528,0.851,3.144,3.409,3.293c0.53,0.031,1.436-0.313,1.203,0.979c-3.392,0-6.795,0.006-10.197-0.018
		c-0.173-0.001-0.344-0.259-0.515-0.398c0.18-0.184,0.333-0.417,0.55-0.535c0.169-0.093,0.417-0.037,0.629-0.056
		c1.935-0.169,2.735-1.016,2.737-2.954c0.007-7.163-0.029-14.326,0.036-21.489c0.01-1.118-0.395-1.654-1.359-1.915
		c-0.695-0.188-1.412-0.299-2.102-0.504c-0.166-0.049-0.322-0.32-0.365-0.515c-0.019-0.085,0.256-0.339,0.399-0.342
		c2.173-0.032,4.347-0.068,6.518-0.013c0.345,0.009,0.725,0.412,1.009,0.708c5.697,5.93,11.371,11.882,17.08,17.801
		C182.719,20.509,184.044,21.652,185.402,22.927z"/>
	<path fill-rule="evenodd" clip-rule="evenodd" fill="#FFFFFF" d="M220.747,1.735c0,2.133,0,4.506,0,7.325
		c-0.517-0.396-0.985-0.564-1.059-0.839c-1.041-3.893-3.447-6.361-7.489-6.838c-4.737-0.56-8.756,0.835-11.539,4.959
		c-3.392,5.025-3.405,12.922,0.075,17.734c3.818,5.278,10.091,6.139,15.743,3.42c0.311-0.15,0.588-0.703,0.602-1.078
		c0.063-1.703,0.049-3.41,0.018-5.114c-0.042-2.294-0.968-3.213-3.284-3.317c-0.469-0.021-0.943,0.029-1.405-0.031
		c-0.237-0.032-0.453-0.233-0.679-0.358c0.237-0.164,0.466-0.455,0.712-0.471c0.934-0.061,1.873-0.038,2.81-0.037
		c2.685,0,5.37-0.008,8.055,0.026c0.309,0.004,0.614,0.252,0.921,0.388c-0.275,0.183-0.527,0.45-0.83,0.534
		c-1.911,0.532-2.434,1.165-2.454,3.157c-0.019,1.747,0.026,3.496-0.029,5.242c-0.012,0.381-0.239,0.975-0.526,1.095
		c-5.51,2.33-11.186,3.755-17.097,1.824c-5.625-1.837-8.615-6.087-9.413-11.781c-1.07-7.64,3.544-14.694,10.836-16.837
		c3.639-1.069,7.312-0.85,10.976,0.016C217.296,1.133,218.933,1.387,220.747,1.735z"/>
	<path fill-rule="evenodd" clip-rule="evenodd" fill="#FFFFFF" d="M236.037,29.489c-3.278,0-6.557,0.01-9.835-0.019
		c-0.252-0.002-0.502-0.274-0.753-0.421c0.225-0.181,0.45-0.521,0.674-0.519c1.993,0.014,2.992-1.172,3.615-2.863
		c2.525-6.854,5.053-13.708,7.581-20.561c0.323-0.875,0.701-1.734,0.969-2.626c0.223-0.74,0.32-1.516,0.494-2.376
		c-0.073,0.014,0.047-0.024,0.167-0.028c3.488-0.122,3.496-0.125,4.714,3.115c2.78,7.395,5.55,14.793,8.325,22.189
		c0.643,1.712,1.459,3.204,3.654,3.155c0.245-0.006,0.5,0.394,0.75,0.606c-0.059,0.093-0.116,0.186-0.175,0.278
		c-4.202,0-8.403,0-12.604,0c-0.066-0.106-0.132-0.212-0.197-0.318c0.304-0.198,0.592-0.527,0.914-0.566
		c0.801-0.096,1.624,0.002,2.426-0.09c1.348-0.154,1.905-0.955,1.459-2.24c-1.032-2.971-2.133-5.917-3.261-8.852
		c-0.11-0.286-0.608-0.591-0.932-0.597c-2.644-0.048-5.288-0.057-7.931,0.008c-0.37,0.009-0.926,0.405-1.063,0.752
		c-1.075,2.729-2.089,5.481-3.081,8.241c-0.569,1.586-0.045,2.436,1.62,2.683c0.586,0.087,1.2-0.005,1.783,0.091
		c0.327,0.054,0.619,0.327,0.926,0.5C236.197,29.184,236.117,29.337,236.037,29.489z M243.93,14.605
		c-1.329-3.511-2.601-6.872-3.992-10.547c-1.35,3.713-2.575,7.084-3.834,10.547C238.743,14.605,241.242,14.605,243.93,14.605z"/>
	<path fill-rule="evenodd" clip-rule="evenodd" fill="#FFFFFF" d="M133.104,29.49c-3.063,0-6.127,0-9.19,0c-0.378,0-0.755,0-1.133,0
		c-0.075-0.111-0.15-0.223-0.225-0.333c0.252-0.221,0.508-0.638,0.755-0.633c1.96,0.04,2.928-1.138,3.537-2.769
		c1.678-4.491,3.346-8.987,5.006-13.484c1.191-3.226,2.384-6.451,3.532-9.692c0.271-0.763,0.367-1.588,0.559-2.451
		c3.582-0.309,3.589-0.311,4.873,3.088c2.807,7.425,5.62,14.849,8.398,22.285c0.642,1.719,1.5,3.049,3.595,3.03
		c0.235-0.002,0.475,0.416,0.712,0.64c-0.061,0.086-0.122,0.172-0.183,0.258c-4.161,0-8.321,0-12.481,0
		c-0.066-0.11-0.134-0.219-0.2-0.329c0.277-0.197,0.539-0.528,0.837-0.564c0.757-0.094,1.534-0.01,2.296-0.08
		c1.401-0.129,2.037-0.97,1.583-2.27c-1.034-2.967-2.146-5.907-3.281-8.835c-0.11-0.285-0.607-0.588-0.931-0.594
		c-2.684-0.049-5.369-0.056-8.053,0.002c-0.328,0.007-0.813,0.41-0.941,0.739c-1.063,2.729-2.085,5.476-3.066,8.236
		c-0.594,1.67-0.083,2.453,1.694,2.709c0.545,0.079,1.116-0.014,1.655,0.082c0.322,0.058,0.606,0.33,0.908,0.505
		C133.273,29.183,133.188,29.337,133.104,29.49z M137.092,4.069c-1.346,3.691-2.578,7.075-3.831,10.514c2.708,0,5.194,0,7.81,0
		C139.758,11.116,138.486,7.756,137.092,4.069z"/>
	<path fill-rule="evenodd" clip-rule="evenodd" fill="#FFFFFF" d="M34.999,2.397c0,3.845,0,7.531,0,11.261
		c2.99,0,5.919,0.035,8.848-0.019c1.064-0.02,1.471-0.896,1.751-1.781c0.115-0.363,0.117-0.765,0.255-1.116
		c0.071-0.179,0.33-0.283,0.503-0.421c0.137,0.176,0.39,0.351,0.392,0.528c0.027,2.558,0.029,5.115,0.004,7.672
		c-0.001,0.18-0.254,0.494-0.402,0.501c-0.175,0.008-0.371-0.24-0.541-0.395c-0.054-0.05-0.057-0.157-0.082-0.238
		c-0.886-2.94-0.886-2.94-3.939-2.94c-2.211,0-4.423,0-6.75,0c-0.043,0.443-0.108,0.808-0.109,1.173
		c-0.01,2.771-0.021,5.542-0.002,8.312c0.015,2.25,0.558,2.787,2.791,2.799c2.301,0.013,4.604,0.023,6.905-0.004
		c2.571-0.031,3.675-0.829,4.598-3.245c0.167-0.436,0.261-0.909,0.488-1.309c0.164-0.29,0.493-0.487,0.748-0.725
		c0.096,0.062,0.191,0.124,0.287,0.185c-0.24,2.227-0.479,4.453-0.728,6.764c-8.17,0-16.286,0-24.402,0
		c-0.075-0.081-0.15-0.161-0.225-0.241c0.256-0.217,0.491-0.583,0.772-0.623c0.712-0.101,1.449-0.009,2.168-0.077
		c1.745-0.165,2.709-1.083,2.717-2.782c0.035-7.076,0.03-14.152,0-21.229c-0.007-1.618-0.709-2.347-2.352-2.661
		c-0.539-0.103-1.102-0.077-1.641-0.181c-0.222-0.042-0.409-0.271-0.611-0.416c0.202-0.154,0.397-0.432,0.607-0.442
		c1.063-0.052,2.129-0.042,3.193-0.042c5.711,0.002,11.422,0.028,17.133-0.009c0.928-0.006,1.308,0.227,1.321,1.192
		c0.023,1.736,0.152,3.471,0.257,5.624c-0.491-0.407-0.792-0.578-0.972-0.833c-0.134-0.189-0.101-0.492-0.159-0.74
		c-0.698-2.964-1.431-3.543-4.481-3.543C40.615,2.397,37.889,2.397,34.999,2.397z"/>
	<path fill-rule="evenodd" clip-rule="evenodd" fill="#FFFFFF" d="M8.75,17.072c0,3.107-0.064,6.123,0.029,9.135
		c0.042,1.375,0.93,2.109,2.325,2.253c0.633,0.065,1.284-0.017,1.914,0.065c0.332,0.043,0.638,0.296,0.955,0.455
		c-0.05,0.135-0.099,0.27-0.148,0.405c-4.231,0-8.462,0-12.693,0c-0.072-0.075-0.144-0.148-0.216-0.223
		c0.292-0.22,0.565-0.604,0.876-0.636c2.735-0.281,2.939-0.475,2.94-3.175c0.001-6.864,0-13.727-0.001-20.59
		c0-2.726-0.381-3.116-3.059-3.131c-0.417-0.002-0.834,0-1.67,0c0.46-0.486,0.658-0.88,0.865-0.885
		C6.463,0.603,12.09-0.437,17.644,1.081c3.62,0.989,5.871,3.528,6.02,6.6c0.203,4.192-1.542,7.047-5.229,8.595
		C15.337,17.575,12.125,17.456,8.75,17.072z M8.748,1.231C8.706,1.922,8.663,2.302,8.662,2.682
		c-0.007,4.222-0.023,8.443,0.026,12.664c0.003,0.289,0.482,0.759,0.808,0.83c6.038,1.323,10.961-3.668,9.676-9.727
		c-0.575-2.708-2.109-4.469-4.852-4.893C12.536,1.281,10.7,1.333,8.748,1.231z"/>
	<path fill-rule="evenodd" clip-rule="evenodd" fill="#FFFFFF" d="M128.761,35.67c-42.133,0-84.267,0.001-126.4-0.018
		c-0.565,0-1.13-0.261-1.695-0.4c0.581-0.167,1.161-0.48,1.742-0.48C86.76,34.75,171.111,34.75,255.464,34.75
		c0.213,0,0.447-0.055,0.635,0.015c0.306,0.115,0.582,0.311,0.871,0.472c-0.305,0.144-0.597,0.345-0.917,0.417
		c-0.325,0.073-0.679,0.017-1.02,0.017C212.941,35.67,170.852,35.67,128.761,35.67z"/>
	<path fill-rule="evenodd" clip-rule="evenodd" fill="#FFFFFF" d="M81.936,1.932c0.114,1.93,0.242,4.113,0.371,6.297
		c-0.107,0.065-0.215,0.13-0.322,0.194c-0.268-0.221-0.658-0.387-0.783-0.67c-2.081-4.715-6.565-7.087-12.187-6.362
		c-5.088,0.656-8.478,3.585-9.89,8.54c-1.521,5.334-0.721,10.335,2.932,14.616c5.614,6.581,15.37,5.828,20.052-1.436
		c0.262-0.408,0.713-0.694,1.076-1.037c0.166,0.124,0.332,0.248,0.498,0.372c-0.943,2.058-1.877,4.12-2.846,6.166
		c-0.082,0.172-0.389,0.302-0.609,0.335c-2.726,0.413-5.445,0.908-8.186,1.18c-6.644,0.66-13.382-1.997-16.425-7.963
		c-4.686-9.189,1.226-20.346,11.545-21.839c3.818-0.553,7.533-0.246,11.199,0.989C79.435,1.673,80.616,1.713,81.936,1.932z"/>
	<path fill-rule="evenodd" clip-rule="evenodd" fill="#FFFFFF" d="M32.133,46.722c-0.3,3.275-0.269,3.368,1.262,4.037
		c-0.667,0-1.335,0-2.002,0c-0.678,0-1.355,0-2.034,0c1.227-0.411,1.271-1.342,1.237-2.396c-0.058-1.786-0.061-3.575-0.009-5.361
		c0.031-1.027-0.034-1.882-1.399-2.027c2.251-0.117,4.462-0.666,6.596,0.24c1.938,0.824,2.176,3.122,0.514,4.432
		c-0.232,0.183-0.483,0.343-0.822,0.58c1.909,1.612,3.243,3.863,5.852,4.577c-1.672,0.354-3.09-0.059-4.287-1.221
		c-0.702-0.683-1.444-1.328-2.087-2.062C34.187,46.646,33.273,46.476,32.133,46.722z M32.104,46.189
		c1.359,0.123,2.611,0.149,3.36-1.108c0.584-0.982,0.584-2.087-0.104-3.011c-0.799-1.073-1.98-1.129-3.257-0.928
		C32.104,42.828,32.104,44.436,32.104,46.189z"/>
	<path fill-rule="evenodd" clip-rule="evenodd" fill="#FFFFFF" d="M90.033,40.929c1.889,0,3.785-0.102,5.663,0.037
		c1.213,0.089,2.168,0.811,2.375,2.142c0.199,1.286-0.346,2.226-1.49,2.833c-0.103,0.055-0.166,0.184-0.319,0.36
		c1.977,1.479,3.148,3.929,5.859,4.484c-1.724,0.376-3.179-0.058-4.408-1.242c-0.675-0.65-1.353-1.3-1.994-1.983
		c-0.798-0.852-1.73-1.156-2.857-0.826c-0.452,2.728-0.281,3.285,1.372,3.964c-1.49,0-2.805,0-4.121,0
		c1.305-0.231,1.235-1.208,1.228-2.166c-0.014-1.874-0.033-3.747-0.007-5.621C91.348,41.922,91.229,41.098,90.033,40.929z
		 M92.822,41.116c0,1.755,0,3.418,0,5.071c2.609,0.165,3.733-0.612,3.752-2.523C96.592,41.793,95.329,40.911,92.822,41.116z"/>
	<path fill-rule="evenodd" clip-rule="evenodd" fill="#FFFFFF" d="M208.286,48.603c0-2.344,0.073-4.339-0.053-6.322
		c-0.03-0.482-0.714-0.923-1.093-1.378c0.953,0,2.071,0,3.19,0c-1.428,0.244-1.321,1.284-1.309,2.316
		c0.028,2.13,0.02,4.262,0.014,6.393c-0.001,0.404-0.059,0.809-0.121,1.605c-2.912-3.033-5.567-5.799-8.459-8.811
		c0,2.59-0.063,4.832,0.054,7.065c0.021,0.434,0.735,0.83,1.112,1.225c-0.915,0-1.952,0-3.396,0c1.561-0.44,1.464-1.419,1.452-2.389
		c-0.022-1.833-0.006-3.667-0.007-5.501c0-1.254-0.001-1.254-1.167-1.703c1.086-0.629,2.192-0.47,3.073,0.453
		C203.721,43.803,205.859,46.053,208.286,48.603z"/>
	<path fill-rule="evenodd" clip-rule="evenodd" fill="#FFFFFF" d="M78.589,51.018c-2.83-0.002-5.04-1.545-5.594-3.903
		c-0.531-2.261,0.5-4.675,2.548-5.748c1.652-0.866,3.425-1.01,5.193-0.411c2.569,0.869,3.942,3.089,3.498,5.51
		C83.734,49.186,81.459,51.022,78.589,51.018z M78.952,50.512c2.262,0.007,3.789-1.793,3.802-4.479
		c0.016-3.21-2.652-5.613-5.383-4.849c-2.107,0.59-3.214,2.635-2.862,5.285C74.83,48.887,76.61,50.506,78.952,50.512z"/>
	<path fill-rule="evenodd" clip-rule="evenodd" fill="#FFFFFF" d="M221.604,51.016c-3.221-0.022-5.646-2.177-5.647-5.015
		c-0.001-3.133,2.479-5.396,5.877-5.363c3.314,0.032,5.552,2.071,5.53,5.041C227.342,48.788,224.91,51.04,221.604,51.016z
		 M217.584,45.886c0.002,0.044-0.006,0.386,0.037,0.721c0.262,2.052,2.094,3.804,4.068,3.904c2.141,0.109,3.598-0.984,4.028-3.213
		c0.165-0.85,0.131-1.794-0.055-2.644c-0.51-2.338-2.462-3.82-4.553-3.602C218.979,41.274,217.604,43.044,217.584,45.886z"/>
	<path fill-rule="evenodd" clip-rule="evenodd" fill="#FFFFFF" d="M168.879,50.703c-1.107,0-2.387,0-3.885,0
		c1.749-0.529,1.749-0.529,1.186-2.113c-0.043-0.119-0.09-0.238-0.135-0.356c-0.678-1.816-1.622-2.32-3.526-1.826
		c-0.227,0.06-0.462,0.328-0.567,0.558c-0.265,0.578-0.412,1.212-0.688,1.784c-0.517,1.07-0.354,1.726,0.978,2.016
		c-0.544,0-1.088,0-1.631,0c-0.544,0-1.088,0-1.47,0c0.452-0.69,1.032-1.327,1.329-2.077c0.938-2.366,1.75-4.782,2.662-7.158
		c0.135-0.354,0.623-0.885,0.817-0.834c0.381,0.1,0.821,0.49,0.974,0.866c0.938,2.323,1.771,4.688,2.711,7.011
		C167.942,49.333,168.466,50.008,168.879,50.703z M162.486,45.55c0.902,0,1.641,0,2.551,0c-0.438-1.124-0.83-2.128-1.333-3.418
		C163.232,43.458,162.872,44.469,162.486,45.55z"/>
	<path fill-rule="evenodd" clip-rule="evenodd" fill="#FFFFFF" d="M52.223,43.983c0,1.249,0,2.144,0,3.445
		c-0.882-2.321-2.527-1.235-4.005-1.611c0,1.285-0.066,2.421,0.043,3.539c0.03,0.304,0.595,0.791,0.912,0.789
		c1.606-0.013,3.532,0.691,4.43-1.576c-0.067,0.696-0.135,1.393-0.208,2.146c-2.789,0-5.501,0-8.213,0
		c1.679-0.189,1.789-1.323,1.728-2.665c-0.07-1.53-0.036-3.067-0.011-4.601c0.019-1.118,0.124-2.251-1.406-2.571
		c2.394,0,4.788,0,7.344,0c0.074,0.639,0.154,1.324,0.233,2.008c-1.031-2.471-3.114-1.021-4.772-1.463c0,1.332,0,2.54,0,3.924
		C49.577,45.025,51.146,46.138,52.223,43.983z"/>
	<path fill-rule="evenodd" clip-rule="evenodd" fill="#FFFFFF" d="M153.292,43.416c-2.011-2.528-4.489-3.123-6.581-1.486
		c-1.984,1.553-2.184,5.064-0.405,7.133c1.855,2.157,4.441,1.895,7.202-0.732c-0.144,1.743-0.484,2.226-2.042,2.368
		c-1.377,0.126-2.825,0.305-4.146,0.02c-2.566-0.555-3.97-2.66-3.785-5.159c0.187-2.519,1.967-4.57,4.494-4.775
		c1.653-0.134,3.342,0.172,5.054,0.283C153.166,42.004,153.229,42.709,153.292,43.416z"/>
	<path fill-rule="evenodd" clip-rule="evenodd" fill="#FFFFFF" d="M60.873,50.614c-0.064-0.726-0.123-1.383-0.18-2.04
		c-0.095,0.123-0.189,0.247-0.284,0.369c0.667,0.429,1.316,0.886,2.004,1.276c1.006,0.571,2.429,0.308,3.009-0.514
		c0.594-0.841,0.31-1.878-0.807-2.719c-0.949-0.716-1.958-1.352-2.904-2.071c-0.902-0.687-1.261-1.638-0.888-2.718
		c0.38-1.102,1.332-1.546,2.418-1.536c0.994,0.009,1.986,0.201,3.069,0.323c0.042,0.563,0.083,1.125,0.123,1.682
		c-0.744-0.539-1.355-1.124-2.082-1.471c-0.859-0.411-1.734-0.155-2.215,0.688c-0.444,0.779-0.084,1.514,0.583,2.016
		c0.882,0.663,1.838,1.229,2.728,1.883c1.414,1.039,1.836,2.094,1.416,3.368c-0.385,1.167-1.704,1.931-3.317,1.837
		C62.706,50.937,61.873,50.758,60.873,50.614z"/>
	<path fill-rule="evenodd" clip-rule="evenodd" fill="#FFFFFF" d="M112.503,50.733c-1.258,0-2.742,0-4.226,0
		c1.714-0.181,1.588-1.423,1.578-2.631c-0.02-2.156-0.006-4.314-0.006-6.442c-2.792-0.508-3.336-0.313-4.173,1.359
		c0.048-0.71,0.096-1.42,0.148-2.202c3.084,0,6.127,0,9.313,0c0.055,0.717,0.111,1.46,0.167,2.202
		c-0.668-2.419-2.561-1.302-4.139-1.573c0,2.757-0.066,5.382,0.063,8C111.251,49.909,112.086,50.333,112.503,50.733z"/>
	<path fill-rule="evenodd" clip-rule="evenodd" fill="#FFFFFF" d="M175.806,50.585c-0.075-0.621-0.158-1.305-0.241-1.987
		c0.078-0.025,0.156-0.05,0.234-0.074c0.162,0.271,0.259,0.649,0.498,0.796c0.729,0.445,1.498,1.073,2.275,1.106
		c0.631,0.028,1.634-0.57,1.846-1.128c0.208-0.548-0.172-1.603-0.65-2.067c-0.995-0.967-2.249-1.66-3.353-2.522
		c-0.834-0.651-1.129-1.679-0.634-2.511c0.398-0.669,1.273-1.146,2.037-1.474c0.489-0.21,1.165-0.025,1.751,0.036
		c0.524,0.054,1.04,0.184,1.657,0.297c0.034,0.54,0.07,1.103,0.099,1.546c-0.783-0.512-1.481-1.22-2.302-1.417
		c-0.587-0.141-1.584,0.227-1.932,0.706c-0.254,0.349,0.057,1.437,0.464,1.864c0.718,0.754,1.7,1.255,2.572,1.86
		c1.545,1.072,2.08,2.222,1.638,3.517c-0.43,1.26-1.829,2.006-3.568,1.844C177.443,50.908,176.698,50.735,175.806,50.585z"/>
	<path fill-rule="evenodd" clip-rule="evenodd" fill="#FFFFFF" d="M189.274,40.893c0.871,0,2.078,0,3.285,0
		c-1.119,0.362-1.211,1.175-1.191,2.13c0.039,1.911,0.021,3.824,0,5.736c-0.009,0.86,0.072,1.628,1.126,1.919
		c-1.146,0-2.291,0-3.823,0c1.624-0.532,1.301-1.644,1.309-2.629c0.013-1.657,0.074-3.319-0.029-4.971
		C189.905,42.34,189.512,41.624,189.274,40.893z"/>
	<path fill-rule="evenodd" clip-rule="evenodd" fill="#FFFFFF" d="M130.873,45.684c-0.081,0.933-0.579,1.484-1.537,1.479
		c-0.896-0.005-1.436-0.537-1.485-1.416c-0.055-0.979,0.589-1.523,1.471-1.561C130.229,44.149,130.8,44.701,130.873,45.684z"/>
</g>
</svg>
