<?xml version="1.0" encoding="utf-8"?>
<!-- Generator: Adobe Illustrator 16.0.0, SVG Export Plug-In . SVG Version: 6.00 Build 0)  -->
<!DOCTYPE svg PUBLIC "-//W3C//DTD SVG 1.1//EN" "http://www.w3.org/Graphics/SVG/1.1/DTD/svg11.dtd">
<svg version="1.1" id="svg3226" xmlns:svg="http://www.w3.org/2000/svg"
	 xmlns="http://www.w3.org/2000/svg" xmlns:xlink="http://www.w3.org/1999/xlink" x="0px" y="0px" width="1180.789px"
	 height="382.938px" viewBox="-42.289 436.087 1180.789 382.938" enable-background="new -42.289 436.087 1180.789 382.938"
	 xml:space="preserve">
<g>
	<path fill-rule="evenodd" clip-rule="evenodd" fill="#CB9C0C" d="M206.138,474.634c-0.059,0.691-0.017,1.411-0.191,2.072
		c-2.497,9.447-5.151,18.854-7.482,28.34c-0.994,4.045-1.051,8.246-0.282,12.415c0.25,1.359,0.917,2.029,2.209,2.445
		c4.916,1.58,9.972,1.669,15.013,1.282c11.23-0.861,22.031-3.52,32.263-8.312c1.083-0.508,2.123-1.107,3.183-1.664
		c0.072,0.07,0.145,0.141,0.218,0.21c-7.463,15.901-9.428,32.495-6.106,49.704c0.63,3.268,0.213,2.7,3.388,2.701
		c67.383,0.011,134.767-0.051,202.151,0.049c17.638,0.026,35.276,0.549,52.915,0.847c12.265,0.207,24.53,0.421,36.794,0.632
		c2.403,0.041,4.807,0.061,7.207,0.143c0.538,0.019,1.073,0.376,1.603,0.36c0.41-0.012,0.81-0.363,1.213-0.563
		c0,0.126,0,0.252,0,0.379c-0.232-0.271-0.485-0.79-0.695-0.774c-3.551,0.282-7.089,0.847-10.642,0.93
		c-13.15,0.307-26.307,0.444-39.459,0.672c-123.26,2.142-246.528,0.559-369.792,0.942c-20.039,0.062-40.08-0.755-60.119-1.21
		c-8.341-0.19-16.68-0.49-25.02-0.749c-0.653-0.02-1.304-0.095-1.954-0.004c57.091-1.405,114.189-2.05,171.618-1.539
		c0.256-5.624,0.669-10.973,0.672-16.321c0.002-2.751-2.797-4.413-5.577-4.022c-13.893,1.956-27.792,3.866-41.692,5.761
		c-3.051,0.417-6.12,0.704-9.469,1.083c0.913-3.518,1.749-6.797,2.613-10.068c2.082-7.878,4.181-15.752,6.263-23.629
		c1.623-6.146-1.326-10.204-7.68-10.217c-28.731-0.053-57.463-0.051-86.194-0.003c-6.582,0.012-9.477,4.064-7.77,10.439
		c2.909,10.861,5.775,21.735,8.652,32.604c0.047,0.175,0.006,0.373,0.006,0.813c-2.123-0.219-4.225-0.386-6.313-0.66
		c-14.224-1.873-28.446-3.767-42.667-5.663c-0.561-0.075-1.106-0.256-1.662-0.375c-3.495-0.745-6.313,1.533-5.958,5.101
		c0.936,9.367,1.72,18.766,3.12,28.068c3.396,22.57,9.362,44.482,17.805,65.7c10.378,26.08,24.312,49.984,43.472,70.66
		c9.933,10.722,20.999,20.113,33.214,28.151c2.07,1.361,4.012,1.571,6.155,0.172c15.119-9.867,28.254-21.921,39.668-35.882
		c0.188-0.229,0.33-0.496,0.683-1.035c-23.053-0.52-45.833-1.032-68.614-1.546c-0.023-0.119-0.046-0.239-0.069-0.358
		c0.476-0.115,0.949-0.32,1.426-0.33c14.416-0.291,28.831-0.628,43.248-0.826c104.726-1.438,209.457-0.341,314.185-0.581
		c21.75-0.05,43.504,0.688,65.255,1.084c8.782,0.158,17.563,0.369,26.343,0.556c0.003,0.173,0.006,0.345,0.008,0.517
		c-3.484,0-6.97-0.054-10.454,0.008c-22.131,0.385-44.263,0.801-66.394,1.192c-7.146,0.127-14.291,0.302-21.437,0.304
		c-80.626,0.022-161.251,0.008-241.877,0.066c-1.409,0.001-3.039,0.442-4.191,1.229c-12.678,8.65-22.207,19.821-27.045,34.604
		c-1.635,4.996-1.999,10.133-1.047,15.302c-2.784,0.354-5.503,0.489-8.125,1.068c-12.274,2.709-22.807,8.904-32.232,16.958
		c-4.155,3.55-7.691,7.827-11.468,11.813c-0.435,0.459-0.612,1.161-0.908,1.751c-0.253,0-0.506,0-0.76,0
		c-1.311-2.008-2.404-4.208-3.97-5.992c-6.823-7.767-15.093-13.814-23.731-19.368c-7.453-4.792-15.139-9.177-23.589-12.011
		c-2.772-0.929-5.602-1.891-8.608-0.742c0.641-9.131,0.318-12.596-2.7-19.139c-7.388-16.016-19.417-27.525-35.046-35.414
		c-1.787-0.901-3.704-1.546-5.544-2.303c0.207-1.889,0.53-3.697,0.584-5.515c0.328-11.037-1.291-21.812-4.746-32.283
		c-2.352-7.127-5.11-14.063-12.164-18.096c2.054-4.307,2.577-8.858,2.443-13.401c-0.417-14.154-3.793-27.627-10.127-40.304
		c-2.121-4.246-4.514-8.37-9.077-10.626c3.768-9.019,4.812-18.458,4.476-28.072c-0.336-9.622-2.531-18.813-7.378-27.438
		c0.48,0.028,0.674-0.008,0.829,0.056c11.858,4.813,24.235,7.509,36.913,8.86c5.469,0.583,10.978,0.824,16.393-0.605
		c3.593-0.949,5.778-3.099,6.214-6.964c0.555-4.921-0.154-9.729-1.145-14.491c-2.197-10.561-5.381-20.762-11.528-29.805
		l-0.021,0.021c0.608,0.108,1.231,0.169,1.822,0.335c10.627,3.002,21.413,4.704,32.488,3.818c8.451-0.677,16.365-2.916,23.069-8.407
		c0.459-0.375,0.744-0.965,1.109-1.454c0.38,0,0.76,0,1.139,0c0.363,0.663,0.567,1.541,1.118,1.953
		c2.257,1.694,4.452,3.607,6.977,4.783c8.141,3.791,16.868,4.6,25.729,4.296c6.613-0.227,13.089-1.23,19.114-4.137
		c3.154-1.521,6.08-3.39,7.438-6.896c0.38,0,0.76,0,1.14,0c0.347,0.491,0.596,1.116,1.055,1.455
		c6.181,4.555,13.108,7.54,20.51,9.413c9.366,2.371,18.798,3.147,28.255,0.506c3.416-0.954,6.659-2.334,9.335-4.777L206.138,474.634
		z"/>
</g>
<g>
	<path fill-rule="evenodd" clip-rule="evenodd" fill="#FFFFFF" d="M324.324,628.658c0-0.741,0-1.364,0-2.196
		c1.702,0.093,3.387,0.264,5.072,0.259c2.906-0.011,5.814-0.063,8.714-0.234c1.296-0.077,2.204,0.207,3.122,1.201
		c13.89,15.056,27.826,30.069,41.747,45.096c0.416,0.449,0.799,0.926,1.219,1.417c0.25-0.333,0.378-0.423,0.377-0.516
		c-0.024-11.194-0.041-22.391-0.113-33.586c-0.009-1.444-0.217-2.901-0.476-4.325c-0.899-4.972-3.051-6.805-8.086-7.001
		c-0.556-0.021-1.112-0.049-1.758-0.078c0-0.751,0-1.412,0-2.171c7.679,0,15.3,0,23.024,0c0,0.72,0,1.381,0,2.133
		c-1.023,0.16-2.015,0.283-2.995,0.47c-3.053,0.583-4.489,1.88-4.917,4.943c-0.401,2.871-0.671,5.783-0.684,8.679
		c-0.066,14.867-0.03,29.736-0.03,44.604c0,0.746,0,1.49,0,2.145c-1.58,0.736-2.404-0.087-3.251-1.003
		c-14.846-16.066-29.704-32.121-44.555-48.183c-0.422-0.456-0.804-0.949-1.388-1.643c-0.163,0.556-0.279,0.771-0.279,0.983
		c0.01,12.084,0.005,24.167,0.077,36.25c0.009,1.563,0.398,3.126,0.647,4.683c0.508,3.179,2.556,4.823,5.565,5.401
		c1.538,0.295,3.106,0.432,4.732,0.65c0,0.718,0,1.383,0,2.058c-8.09,0-16.086,0-24.206,0c0-0.626,0-1.289,0-2.048
		c1.227-0.175,2.466-0.324,3.695-0.531c2.623-0.444,4.2-2.011,4.554-4.629c0.338-2.501,0.688-5.023,0.705-7.538
		c0.073-11.578,0.033-23.156,0.033-34.733c-0.001-6.975-1.86-9.171-8.673-10.244C325.635,628.88,325.075,628.783,324.324,628.658z"
		/>
</g>
<g>
	<path fill-rule="evenodd" clip-rule="evenodd" fill="#FFFFFF" d="M216.56,690.01c-18.523,0.014-32.949-14.221-32.947-32.509
		c0.003-17.969,14.085-31.959,31.931-32.2c19.618-0.266,33.651,16.355,33.446,32.178C248.751,675.875,234.887,689.996,216.56,690.01
		z M238.956,660.309c-0.036-8.394-2.155-16.165-7.332-22.858c-4.998-6.462-11.64-9.752-19.884-8.624
		c-8.019,1.097-12.736,6.438-15.801,13.499c-1.632,3.761-2.277,7.749-2.391,11.821c-0.303,10.779,2.928,20.245,10.969,27.637
		c8.057,7.405,20.468,6.547,27.665-1.658C237.157,674.454,238.953,667.689,238.956,660.309z"/>
</g>
<g>
	<path fill-rule="evenodd" clip-rule="evenodd" fill="#FFFFFF" d="M297.123,628.619c0-0.701,0-1.247,0-1.897
		c6.831,0,13.566,0,20.419,0c0.043,0.629,0.08,1.173,0.112,1.645c-0.179,0.166-0.255,0.301-0.357,0.325
		c-5.146,1.227-6.032,1.924-6.326,7.17c-0.359,6.433-0.245,12.893-0.338,19.341c-0.074,5.12,0.266,10.288-0.31,15.352
		c-1.407,12.356-7.341,18.031-19.768,19.134c-3.618,0.32-7.365,0.178-10.954-0.381c-9.431-1.469-14.652-7.083-16.027-16.837
		c-0.369-2.62-0.546-5.284-0.576-7.933c-0.108-9.677-0.115-19.355-0.172-29.033c-0.003-0.629-0.071-1.266-0.183-1.885
		c-0.595-3.278-1.706-4.271-5.04-4.542c-0.628-0.052-1.259-0.072-2.053-0.115c0-0.73,0-1.435,0-2.241c7.812,0,15.557,0,23.408,0
		c0.034,0.645,0.063,1.189,0.098,1.858c-1.054,0.152-2.041,0.252-3.009,0.446c-2.421,0.483-3.353,1.405-3.767,3.855
		c-0.231,1.368-0.416,2.762-0.418,4.144c-0.016,9.743-0.062,19.487,0.095,29.228c0.042,2.688,0.507,5.426,1.177,8.038
		c2.337,9.115,10.103,12.508,17.484,11.973c9.029-0.653,14.363-5.515,14.739-14.489c0.502-11.993,0.302-24.026,0.003-36.033
		c-0.137-5.496-1.6-6.477-7.153-6.982C297.896,628.729,297.586,628.679,297.123,628.619z"/>
</g>
<g>
	<path fill-rule="evenodd" clip-rule="evenodd" fill="#FFFFFF" d="M173.476,642.854c-0.527-0.462-1.373-0.835-1.533-1.401
		c-3.199-11.274-11.627-14.008-22.202-12.945c-14.046,1.412-22.242,14.009-22.515,25.729c-0.235,10.059,2.952,18.807,10.241,25.804
		c6.058,5.814,13.449,7.641,21.576,5.818c6.354-1.425,10.498-5.531,12.571-11.705c0.258-0.769,0.464-1.554,0.725-2.435
		c0.675,0.144,1.264,0.268,2.032,0.43c-0.652,4.185-1.271,8.293-1.965,12.389c-0.064,0.385-0.537,0.841-0.929,1.008
		c-11.935,5.107-24.061,6.345-36.212,1.006c-12.043-5.291-19.157-18.896-17.804-31.979c1.458-14.105,13.75-28.862,33.428-29.118
		c7.255-0.094,14.179,1.312,20.921,3.877c0.925,0.352,1.453,0.77,1.523,1.831c0.244,3.709,0.568,7.412,0.861,11.117
		C173.955,642.471,173.715,642.661,173.476,642.854z"/>
</g>
<g>
	<path fill-rule="evenodd" clip-rule="evenodd" fill="#FFFFFF" d="M526.798,626.586c0.471,1.354,0.035,1.868-1.169,2.642
		c-2.299,1.478-4.605,3.212-6.286,5.333c-5.654,7.135-11.047,14.479-16.497,21.774c-0.384,0.512-0.615,1.271-0.614,1.914
		c0.014,7.084,0.081,14.169,0.152,21.252c0.007,0.693,0.088,1.391,0.207,2.073c0.642,3.708,1.731,4.662,5.527,4.907
		c0.817,0.053,1.634,0.121,2.69,0.201c0.03,0.643,0.058,1.276,0.092,2.004c-8.773,0-17.349,0-26.045,0c0-0.669,0-1.262,0-1.929
		c1.755-0.209,3.439-0.378,5.111-0.616c1.751-0.248,2.637-1.404,2.89-3.06c0.182-1.185,0.332-2.386,0.338-3.581
		c0.033-6.454,0.049-12.909-0.023-19.362c-0.01-0.934-0.307-2.024-0.849-2.767c-5.591-7.664-11.247-15.28-16.911-22.89
		c-2.416-3.247-5.22-5.906-9.756-5.71c0-0.774,0-1.435,0-2.104c7.918,0,15.736,0,23.775,0c0.033,0.57,0.067,1.217,0.107,1.926
		c-1.174,0.173-2.235,0.265-3.262,0.495c-1.973,0.444-2.56,1.593-1.542,3.319c0.961,1.627,2.144,3.125,3.269,4.651
		c3.972,5.391,7.962,10.769,12.054,16.3c0.371-0.399,0.675-0.675,0.917-0.996c4.229-5.601,8.484-11.185,12.654-16.832
		c1.103-1.493,2.604-3.148,1.519-5.146c-1.029-1.896-3.21-1.375-4.979-1.61c-0.367-0.049-0.742-0.048-1.216-0.076
		c0-0.714,0-1.369,0-2.113C514.96,626.586,520.876,626.586,526.798,626.586z"/>
</g>
<g>
	<path fill-rule="evenodd" clip-rule="evenodd" fill="#FFFFFF" d="M426.059,630.347c-4.613,0-9.052-0.285-13.438,0.072
		c-5.601,0.455-6.91,1.948-8.447,8.07c-0.652,0-1.327,0-2.25,0c0.316-4.73,0.63-9.43,0.982-14.714
		c1.057,0.467,1.843,0.867,2.666,1.164c1.509,0.544,3.035,1.446,4.564,1.47c11.639,0.167,23.281,0.191,34.922,0.183
		c2.837-0.003,5.695-0.133,8.502-0.512c1.333-0.181,2.554-1.125,3.856-1.645c0.587-0.233,1.251-0.273,2.105-0.445
		c-0.276,4.751-0.534,9.21-0.799,13.777c-0.787,0-1.448,0-2.096,0c-0.077-0.126-0.187-0.223-0.194-0.327
		c-0.415-5.403-1.164-6.509-6.49-6.924c-4.826-0.379-9.705-0.08-14.695-0.08c-0.025,0.149-0.118,0.444-0.118,0.739
		c0.012,15.819,0.025,31.639,0.064,47.457c0.003,1.068,0.163,2.143,0.324,3.202c0.496,3.275,1.656,4.338,4.964,4.61
		c1.063,0.088,2.127,0.165,3.273,0.254c0,0.727,0,1.333,0,2.064c-8.747,0-17.44,0-26.246,0c0-0.665,0-1.264,0-2.054
		c1.314-0.1,2.621-0.169,3.921-0.302c3.003-0.312,4.269-1.566,4.605-4.552c0.07-0.628,0.088-1.264,0.088-1.896
		c0.004-16.072,0.004-32.146,0-48.218C426.124,631.308,426.084,630.873,426.059,630.347z"/>
</g>
<g>
	<path fill-rule="evenodd" clip-rule="evenodd" fill="#FFFFFF" d="M405.778,612.039c-1.829,0-3.662,0.087-5.479-0.048
		c-0.641-0.047-1.468-0.489-1.823-1.011c-2.443-3.609-4.833-7.255-7.139-10.953c-1.486-2.384-1.856-2.616-4.939-1.984
		c0,3.385-0.026,6.782,0.011,10.18c0.019,1.722,0.872,2.698,2.692,2.718c0.29,0.003,0.576,0.28,0.809,0.851
		c-3.694,0-7.389,0-11.422,0c0.367-0.338,0.653-0.83,0.949-0.835c1.943-0.036,2.705-1.076,2.708-2.894
		c0.007-7.465,0.022-14.931,0.029-22.396c0.001-1.563-0.674-2.486-2.354-2.581c-0.444-0.024-0.869-0.421-1.303-0.646
		c0.07-0.293,0.139-0.587,0.208-0.879c5.174,0.311,10.382,0.366,15.511,1.029c2.98,0.386,5.135,2.459,5.534,5.713
		c0.41,3.347-0.949,5.907-3.764,7.71c-0.567,0.364-1.17,0.672-1.915,1.094c3.719,5.172,5.952,11.375,12.126,14.471
		C406.069,611.732,405.924,611.885,405.778,612.039z M386.334,595.872c3.605,0.847,6.941-0.269,8.406-2.7
		c1.376-2.287,1.123-5.885-0.552-7.844c-1.588-1.858-5.384-2.652-7.854-1.625C386.334,587.719,386.334,591.746,386.334,595.872z"/>
</g>
<g>
	<path fill-rule="evenodd" clip-rule="evenodd" fill="#FFFFFF" d="M175.541,581.868c2.134,0,4.274-0.074,6.402,0.051
		c0.564,0.032,1.202,0.581,1.619,1.056c5.916,6.754,11.798,13.536,17.692,20.308c0.396,0.455,0.823,0.883,1.348,1.442
		c0-6.119,0.145-12.034-0.063-17.938c-0.098-2.783-0.796-3.171-3.581-3.777c-0.299-0.065-0.591-0.181-0.867-0.314
		c-0.077-0.037-0.084-0.22-0.217-0.612c3.643,0,7.188,0,10.733,0c0.036,0.153,0.073,0.306,0.11,0.459
		c-0.331,0.186-0.651,0.503-0.997,0.533c-1.956,0.165-2.738,1.375-2.883,3.147c-0.092,1.133-0.136,2.271-0.138,3.407
		c-0.012,7.583-0.006,15.165-0.006,23.354c-0.895-0.692-1.5-1.022-1.924-1.51c-6.406-7.333-12.789-14.687-19.178-22.034
		c-0.354-0.407-0.725-0.801-1.242-1.373c-0.122,0.474-0.23,0.694-0.229,0.915c0.034,5.817,0.009,11.637,0.149,17.452
		c0.077,3.193,0.798,3.829,3.993,4.445c0.378,0.072,0.717,0.354,1.074,0.539c-0.048,0.156-0.097,0.312-0.145,0.469
		c-3.665,0-7.33,0-11.611,0c0.749-0.529,1.08-0.959,1.443-0.987c2.179-0.168,2.927-1.55,2.973-3.46
		c0.102-4.171,0.159-8.344,0.19-12.516c0.02-2.655,0.058-5.315-0.09-7.964c-0.137-2.461-1.026-3.299-3.42-3.829
		c-0.477-0.107-0.907-0.424-1.359-0.643C175.392,582.281,175.466,582.075,175.541,581.868z"/>
</g>
<g>
	<path fill-rule="evenodd" clip-rule="evenodd" fill="#FFFFFF" d="M339.872,612.787c-7.255-8.015-14.162-16.35-21.31-24.365
		c-0.258,0.111-0.367,0.136-0.367,0.161c0.032,6.439,0.009,12.88,0.15,19.317c0.041,1.849,1.474,2.648,3.202,2.935
		c0.549,0.091,1.07,0.345,1.604,0.524c-0.046,0.177-0.093,0.353-0.139,0.528c-3.698,0-7.396,0-11.094,0
		c-0.046-0.162-0.093-0.325-0.14-0.488c0.421-0.181,0.833-0.482,1.267-0.521c1.86-0.166,2.639-1.307,2.823-2.997
		c0.095-0.878,0.134-1.767,0.137-2.65c0.012-5.818,0.014-11.637,0.002-17.456c-0.007-3.15-0.636-3.889-3.758-4.68
		c-0.403-0.103-0.739-0.472-1.105-0.718c0.064-0.172,0.129-0.344,0.193-0.514c2.25,0,4.502-0.067,6.744,0.051
		c0.496,0.026,1.028,0.645,1.423,1.096c5.779,6.619,11.538,13.257,17.304,19.887c0.471,0.541,0.964,1.064,1.859,1.421
		c0-2.375,0.013-4.75-0.003-7.124c-0.022-3.286,0.096-6.585-0.147-9.856c-0.245-3.313-0.688-3.609-3.872-4.363
		c-0.277-0.065-0.525-0.254-1.278-0.634c0.842-0.271,1.24-0.509,1.642-0.513c2.714-0.033,5.429-0.039,8.144,0.002
		c0.433,0.007,0.861,0.294,1.291,0.45c-0.394,0.285-0.753,0.74-1.186,0.825c-1.443,0.279-2.271,1.095-2.413,2.523
		c-0.147,1.506-0.257,3.023-0.263,4.537c-0.027,6.703-0.012,13.408-0.012,20.112c0,0.685,0,1.369,0,2.054
		C340.337,612.483,340.104,612.636,339.872,612.787z"/>
</g>
<g>
	<path fill-rule="evenodd" clip-rule="evenodd" fill="#FFFFFF" d="M297.115,597.14c3.725,5.163,5.929,11.429,12.234,14.475
		c-0.12,0.146-0.241,0.291-0.362,0.437c-1.952,0-3.912,0.094-5.853-0.055c-0.626-0.047-1.403-0.597-1.774-1.144
		c-2.333-3.452-4.79-6.851-6.761-10.507c-1.218-2.257-2.728-2.832-5.065-2.45c0,3.74-0.087,7.501,0.089,11.248
		c0.028,0.604,1.203,1.203,1.918,1.702c0.367,0.258,0.892,0.288,1.346,0.422c-0.031,0.188-0.062,0.377-0.093,0.566
		c-3.694,0-7.389,0-11.083,0c-0.058-0.102-0.115-0.205-0.173-0.307c0.385-0.209,0.762-0.585,1.156-0.601
		c1.797-0.073,2.457-1.147,2.461-2.73c0.026-7.592,0.021-15.182,0.013-22.773c-0.001-1.711-1.077-2.249-2.596-2.36
		c-0.325-0.023-0.623-0.43-0.932-0.659c0.331-0.195,0.662-0.557,0.993-0.556c3.973,0.009,7.949,0.026,11.92,0.149
		c1.051,0.032,2.122,0.345,3.133,0.683c2.615,0.87,4.573,2.414,5.012,5.351c0.475,3.168-0.559,5.723-3.154,7.608
		C298.838,596.151,298.058,596.562,297.115,597.14z M289.37,595.918c3.756,0.731,6.882-0.337,8.326-2.7
		c1.292-2.116,1.168-5.653-0.267-7.557c-1.559-2.066-4.994-2.977-8.06-2.062c0,0.647,0,1.336,0,2.024
		C289.37,589.027,289.37,592.43,289.37,595.918z"/>
</g>
<g>
	<path fill-rule="evenodd" clip-rule="evenodd" fill="#FFFFFF" d="M481.495,582.013c3.499,0,6.997,0,10.496,0
		c0.052,0.158,0.105,0.315,0.158,0.473c-0.412,0.21-0.806,0.545-1.238,0.61c-1.728,0.262-2.579,1.276-2.613,2.955
		c-0.113,5.371-0.205,10.743-0.266,16.116c-0.038,3.404-0.007,6.808-0.462,10.542c-0.587-0.526-1.24-0.995-1.752-1.586
		c-6.186-7.106-12.35-14.232-18.521-21.352c-0.45-0.518-0.921-1.019-1.599-1.768c-0.06,0.8-0.132,1.325-0.133,1.851
		c-0.009,5.06-0.015,10.121-0.002,15.183c0.01,4.204,0.343,4.618,4.395,5.884c0.261,0.081,0.426,0.469,0.865,0.979
		c-4.006,0-7.651,0-11.296,0c-0.058-0.139-0.115-0.279-0.174-0.418c0.34-0.204,0.668-0.562,1.021-0.587
		c2.038-0.148,2.912-1.331,2.975-3.235c0.104-3.157,0.2-6.314,0.237-9.471c0.041-3.417,0.021-6.834,0.006-10.249
		c-0.014-3.212-0.749-4.096-3.848-4.851c-0.403-0.098-0.744-0.458-1.113-0.696c0.061-0.184,0.122-0.366,0.183-0.55
		c2.243,0,4.493-0.097,6.725,0.064c0.599,0.044,1.216,0.807,1.695,1.354c5.827,6.664,11.628,13.35,17.438,20.029
		c0.329,0.378,0.672,0.743,1.242,1.37c0.095-0.714,0.202-1.155,0.203-1.598c0.012-4.808,0.023-9.616-0.007-14.424
		c-0.007-0.941-0.154-1.887-0.306-2.818c-0.271-1.642-1.26-2.547-2.926-2.743c-0.497-0.06-0.978-0.259-1.466-0.394
		C481.436,582.461,481.465,582.237,481.495,582.013z"/>
</g>
<g>
	<path fill-rule="evenodd" clip-rule="evenodd" fill="#FFFFFF" d="M409.518,611.364c0.432-0.156,0.854-0.415,1.295-0.452
		c1.548-0.131,2.306-1.011,2.313-2.476c0.028-7.717,0.022-15.435,0.01-23.151c-0.002-1.379-0.795-2.017-2.133-2.171
		c-0.523-0.061-1.016-0.378-1.522-0.578c0.07-0.28,0.14-0.562,0.209-0.843c5.575,0.289,11.232,0.083,16.704,0.99
		c7.119,1.181,11.615,7.328,11.503,14.403c-0.118,7.562-4.537,12.942-11.978,14.45c-1.661,0.336-3.382,0.47-5.08,0.505
		c-3.712,0.073-7.428,0.022-11.142,0.022C409.638,611.831,409.578,611.597,409.518,611.364z M417.271,583.624
		c0,2.725-0.001,5.367,0,8.009c0.003,4.863-0.044,9.725,0.029,14.585c0.051,3.434,1.074,4.322,4.536,4.261
		c5.717-0.104,10.002-3.598,11.058-9.242c0.355-1.898,0.466-3.897,0.327-5.825C432.637,587.338,425.495,582,417.271,583.624z"/>
</g>
<g>
	<path fill-rule="evenodd" clip-rule="evenodd" fill="#FFFFFF" d="M511.813,612.698c-8.395,0.016-15.043-6.944-15.058-15.764
		c-0.015-8.727,6.5-15.697,14.661-15.688c8.351,0.012,15.196,7.066,15.213,15.682C526.646,605.688,520.074,612.681,511.813,612.698z
		 M521.949,598.303c-0.039-4.273-0.994-8.287-3.756-11.65c-4.671-5.689-12.001-4.805-15.271,1.775
		c-2.98,6.001-1.708,14.729,2.871,19.679c3.949,4.269,10.164,3.878,13.562-0.868C521.263,604.571,521.971,601.541,521.949,598.303z"
		/>
</g>
<g>
	<path fill-rule="evenodd" clip-rule="evenodd" fill="#FFFFFF" d="M226.109,611.446c0.408-0.181,0.808-0.491,1.225-0.519
		c1.628-0.107,2.415-0.94,2.416-2.545c0.005-7.652,0.002-15.304,0.017-22.955c0.001-1.465-0.68-2.197-2.146-2.328
		c-0.523-0.045-1.024-0.352-1.601-0.563c0.245-0.383,0.312-0.578,0.378-0.579c4.148-0.003,8.303-0.116,12.443,0.07
		c2.375,0.106,4.591,1.019,6.055,3.079c1.875,2.64,1.318,6.389-1.284,8.534c-0.903,0.744-1.971,1.288-3.076,1.994
		c0.986,0.305,1.899,0.526,2.769,0.864c3.46,1.341,5.323,4.049,5.243,7.549c-0.083,3.552-1.986,6.09-5.633,7.197
		c-1.492,0.454-3.085,0.732-4.642,0.782c-3.539,0.113-7.083,0.042-10.624,0.029c-0.473-0.001-0.944-0.092-1.416-0.141
		C226.192,611.76,226.15,611.603,226.109,611.446z M233.931,596.518c0,3.583-0.002,6.734,0.001,9.885
		c0,0.441-0.001,0.886,0.042,1.324c0.134,1.333,0.504,2.458,2.078,2.756c3.862,0.729,7.226-1.299,7.994-4.87
		c0.895-4.161-1.135-7.766-5.032-8.635C237.446,596.628,235.788,596.673,233.931,596.518z M234.036,595.238
		c2.799-0.033,5.376-0.184,6.776-2.807c1.264-2.369,1.38-4.943-0.171-7.188c-1.559-2.256-4.079-2.104-6.605-1.97
		C234.036,587.266,234.036,591.145,234.036,595.238z"/>
</g>
<g>
	<path fill-rule="evenodd" clip-rule="evenodd" fill="#FFFFFF" d="M261.647,597.555c0,3.51-0.051,6.913,0.022,10.314
		c0.034,1.529,0.97,2.5,2.518,2.558c2.14,0.079,4.296,0.136,6.424-0.044c2.365-0.199,3.819-1.74,4.78-3.836
		c0.209-0.459,0.688-0.792,1.044-1.184c0.141,0.116,0.283,0.231,0.425,0.346c-0.572,2.121-1.144,4.242-1.69,6.27
		c-7.15,0-14.269,0-21.387,0c-0.036-0.214-0.073-0.427-0.108-0.641c0.384-0.146,0.766-0.407,1.154-0.418
		c1.879-0.047,2.561-1.166,2.565-2.836c0.019-7.462,0.006-14.927,0.013-22.389c0.001-1.587-0.682-2.489-2.343-2.594
		c-0.471-0.031-0.927-0.299-1.389-0.457c0.035-0.188,0.07-0.378,0.106-0.565c6.718,0,13.436,0,20.128,0c0,2.115,0,4.248,0,6.381
		c-0.165,0.028-0.329,0.057-0.495,0.085c-0.137-0.403-0.322-0.796-0.403-1.21c-0.437-2.215-1.849-3.47-4.002-3.701
		c-2.37-0.257-4.767-0.263-7.291-0.385c0,4.128,0,8.008,0,12.045c2.124,0,4.193,0.048,6.257-0.018
		c1.433-0.046,2.042-1.045,2.367-2.321c0.112-0.44,0.42-0.83,0.64-1.243c0.15,0.065,0.3,0.129,0.451,0.194c0,3.228,0,6.455,0,9.684
		c-0.164,0.047-0.327,0.095-0.49,0.141c-0.17-0.455-0.456-0.903-0.49-1.369c-0.127-1.728-0.991-2.728-2.723-2.79
		C265.781,597.501,263.827,597.555,261.647,597.555z"/>
</g>
<g>
	<path fill-rule="evenodd" clip-rule="evenodd" fill="#FFFFFF" d="M375.019,611.926c-3.562,0-7.125,0-11.325,0
		c0.764-0.557,1.086-0.992,1.442-1.02c1.9-0.146,2.158-1.217,1.679-2.758c-0.656-2.111-1.262-4.241-2.04-6.306
		c-0.177-0.467-0.963-0.968-1.49-0.991c-2.336-0.107-4.684-0.12-7.019,0.006c-0.561,0.03-1.363,0.607-1.578,1.13
		c-0.669,1.631-1.153,3.343-1.632,5.044c-0.786,2.791-0.254,3.557,2.574,3.893c0.294,0.034,0.582,0.123,0.905,0.194
		c-0.69,1.214-8.945,1.324-10.069,0.022c3.372-0.215,4.027-2.824,4.872-5.263c2.001-5.788,4.012-11.572,5.978-17.374
		c0.445-1.312,0.972-2.675,1.004-4.025c0.035-1.482,0.795-2.218,1.768-3.071c1.268-1.112,1.668-0.454,2.075,0.725
		c1.913,5.552,3.855,11.093,5.787,16.638c1.018,2.922,2.049,5.839,3.044,8.768c0.601,1.771,1.407,3.271,3.565,3.406
		c0.289,0.019,0.569,0.209,0.853,0.319C375.28,611.484,375.149,611.705,375.019,611.926z M359.408,586.452
		c-1.333,4.405-2.506,8.283-3.708,12.256c2.758,0,5.269,0,7.956,0C362.245,594.638,360.912,590.791,359.408,586.452z"/>
</g>
<g>
	<path fill-rule="evenodd" clip-rule="evenodd" fill="#FFFFFF" d="M154.513,611.942c-3.239,0-6.478,0-9.987,0
		c0.308-0.466,0.468-0.947,0.66-0.959c2.359-0.158,3.131-1.914,3.77-3.737c2.026-5.78,4.054-11.561,5.975-17.375
		c0.688-2.081,0.894-4.332,1.676-6.369c0.401-1.042,1.588-1.782,2.419-2.659c0.416,0.443,1.031,0.814,1.218,1.339
		c2.44,6.839,4.819,13.698,7.213,20.553c0.5,1.431,1.01,2.859,1.491,4.295c0.639,1.908,1.315,3.751,3.772,3.946
		c0.181,0.015,0.322,0.524,0.583,0.983c-3.81,0-7.383,0-10.957,0c-0.061-0.133-0.123-0.266-0.184-0.397
		c0.374-0.229,0.731-0.621,1.125-0.66c1.838-0.186,2.206-1.116,1.644-2.748c-0.7-2.028-1.233-4.117-1.998-6.118
		c-0.201-0.525-0.974-1.146-1.515-1.176c-2.334-0.129-4.684-0.127-7.019-0.004c-0.571,0.03-1.409,0.586-1.607,1.101
		c-0.701,1.82-1.236,3.713-1.726,5.604c-0.585,2.26-0.055,2.961,2.269,3.333c0.454,0.073,0.888,0.271,1.331,0.411
		C154.616,611.517,154.564,611.729,154.513,611.942z M161.837,598.809c-1.431-4.087-2.773-7.918-4.115-11.75
		c-0.126,0.009-0.251,0.018-0.377,0.025c-1.168,3.86-2.336,7.719-3.549,11.725C156.537,598.809,159.039,598.809,161.837,598.809z"/>
</g>
<g>
	<path fill-rule="evenodd" clip-rule="evenodd" fill="#FFFFFF" d="M124.372,604.534c0.313,0.594,0.667,1.171,0.933,1.785
		c1.389,3.205,3.506,4.761,6.262,4.559c2.146-0.158,3.707-1.213,4.577-3.172c0.904-2.033,0.703-4.026-0.848-5.638
		c-1.125-1.17-2.479-2.133-3.789-3.11c-1.163-0.866-2.462-1.556-3.604-2.447c-3.207-2.507-4.229-5.967-2.989-9.808
		c1.05-3.255,3.932-5.24,7.885-5.427c0.378-0.018,0.758-0.016,1.137-0.002c4.586,0.181,5.466,1.268,4.798,6.447
		c-0.442-0.575-0.761-0.863-0.922-1.22c-1.165-2.595-2.837-3.863-5.13-3.716c-2.065,0.133-3.589,1.128-4.36,3.105
		c-0.858,2.203-0.223,5.004,1.75,6.526c1.639,1.265,3.495,2.252,5.275,3.33c2.214,1.339,4.128,2.903,4.815,5.575
		c1.572,6.117-2.77,11.372-9.424,11.375c-5.134,0.001-6.246-0.95-6.855-5.901c-0.083-0.67-0.086-1.35-0.125-2.026
		C123.962,604.692,124.167,604.613,124.372,604.534z"/>
</g>
<g>
	<path fill-rule="evenodd" clip-rule="evenodd" fill="#FFFFFF" d="M455.06,582.464c-0.394,0.213-0.772,0.568-1.184,0.613
		c-1.609,0.173-2.384,1.06-2.386,2.622c-0.01,7.521-0.008,15.039,0.013,22.56c0.004,1.637,0.798,2.596,2.527,2.678
		c0.339,0.016,0.667,0.276,1,0.424c-0.03,0.156-0.061,0.312-0.091,0.468c-3.69,0-7.38,0-11.642,0
		c0.689-0.477,1.002-0.878,1.323-0.885c2.11-0.047,2.652-1.32,2.649-3.136c-0.011-7.331-0.021-14.662,0.006-21.992
		c0.006-1.681-0.65-2.611-2.398-2.74c-0.382-0.028-0.734-0.451-1.099-0.693c0.4-0.16,0.8-0.457,1.203-0.461
		c3.273-0.038,6.548-0.021,9.823-0.021C454.889,582.087,454.975,582.275,455.06,582.464z"/>
</g>
<g>
	<path fill-rule="evenodd" clip-rule="evenodd" fill="#CB9C0C" d="M206.13,474.684c0.105,0.048,0.209,0.096,0.315,0.143
		c-0.063,0.05-0.126,0.101-0.189,0.15c-0.039-0.108-0.078-0.216-0.118-0.333C206.138,474.634,206.13,474.684,206.13,474.684z"/>
</g>
<g>
	<path fill-rule="evenodd" clip-rule="evenodd" fill="#CB9C0C" d="M250.851,511.213c0.135-0.042,0.27-0.082,0.405-0.122
		c-0.062,0.11-0.125,0.222-0.187,0.332C250.995,511.354,250.922,511.283,250.851,511.213z"/>
</g>
<g>
	<path fill-rule="evenodd" clip-rule="evenodd" fill="#CB9C0C" d="M25.854,473.774c-0.094-0.045-0.189-0.089-0.284-0.134
		c0.087,0.052,0.175,0.103,0.263,0.154C25.833,473.795,25.854,473.774,25.854,473.774z"/>
</g>
<g>
	<rect x="653.9" y="509.229" fill="#FFFFFF" width="1" height="247.859"/>
</g>
<g>
	<path fill="#FFFFFF" d="M837.412,637.404l1.722,0.364l-6.052,19.202h-54.789v-1.931h2.661c2.991,0,5.131-0.974,6.418-2.923
		c0.73-1.112,1.096-3.687,1.096-7.722v-45.657c0-4.417-0.487-7.183-1.461-8.296c-1.356-1.53-3.374-2.296-6.053-2.296h-2.661v-1.932
		h32.039v1.932c-3.758-0.035-6.394,0.313-7.905,1.044c-1.514,0.729-2.549,1.651-3.105,2.766c-0.558,1.113-0.835,3.774-0.835,7.983
		v44.456c0,2.888,0.277,4.871,0.835,5.948c0.418,0.731,1.061,1.271,1.93,1.617c0.87,0.35,3.583,0.522,8.142,0.522h5.165
		c5.426,0,9.235-0.399,11.428-1.2c2.191-0.8,4.191-2.218,6.001-4.252C833.795,644.995,835.603,641.786,837.412,637.404z"/>
	<path fill="#FFFFFF" d="M861.258,607.765v38.405c0,2.992,0.217,4.983,0.652,5.975s1.078,1.73,1.931,2.217
		c0.853,0.488,2.409,0.731,4.67,0.731v1.878h-23.22v-1.878c2.331,0,3.896-0.227,4.696-0.68c0.8-0.451,1.436-1.198,1.905-2.242
		s0.704-3.044,0.704-6.001v-18.419c0-5.184-0.156-8.54-0.47-10.071c-0.244-1.112-0.626-1.887-1.148-2.322
		c-0.521-0.434-1.235-0.651-2.14-0.651c-0.974,0-2.157,0.26-3.548,0.782l-0.73-1.878l14.401-5.846H861.258z M856.928,582.771
		c1.46,0,2.704,0.514,3.73,1.539c1.026,1.027,1.539,2.271,1.539,3.731s-0.513,2.713-1.539,3.756
		c-1.026,1.044-2.271,1.566-3.73,1.566c-1.462,0-2.714-0.522-3.758-1.566c-1.043-1.043-1.565-2.295-1.565-3.756
		s0.513-2.704,1.54-3.731C854.17,583.285,855.431,582.771,856.928,582.771z"/>
	<path fill="#FFFFFF" d="M887.558,617.418c4.625-6.435,9.618-9.653,14.976-9.653c4.905,0,9.183,2.098,12.836,6.288
		c3.652,4.192,5.479,9.924,5.479,17.193c0,8.488-2.816,15.323-8.452,20.507c-4.837,4.453-10.228,6.68-16.177,6.68
		c-2.782,0-5.609-0.506-8.479-1.514c-2.87-1.009-5.801-2.522-8.792-4.54v-49.518c0-5.428-0.131-8.768-0.392-10.02
		c-0.262-1.252-0.671-2.104-1.227-2.556c-0.557-0.453-1.253-0.68-2.087-0.68c-0.974,0-2.191,0.279-3.652,0.836l-0.731-1.826
		l14.351-5.845h2.348V617.418z M887.558,620.758v28.595c1.774,1.739,3.608,3.053,5.504,3.94c1.896,0.886,3.836,1.33,5.819,1.33
		c3.165,0,6.112-1.74,8.844-5.218c2.73-3.479,4.096-8.54,4.096-15.185c0-6.122-1.365-10.827-4.096-14.115
		c-2.731-3.287-5.835-4.931-9.313-4.931c-1.845,0-3.688,0.47-5.531,1.409C891.488,617.279,889.714,618.672,887.558,620.758z"/>
	<path fill="#FFFFFF" d="M941.877,607.765v10.75c3.999-7.166,8.104-10.75,12.313-10.75c1.913,0,3.496,0.584,4.749,1.748
		c1.252,1.167,1.878,2.515,1.878,4.044c0,1.357-0.453,2.506-1.357,3.445c-0.903,0.938-1.982,1.408-3.234,1.408
		c-1.218,0-2.583-0.601-4.096-1.8c-1.514-1.2-2.636-1.801-3.365-1.801c-0.626,0-1.306,0.349-2.036,1.044
		c-1.565,1.426-3.182,3.775-4.852,7.044v22.906c0,2.645,0.329,4.646,0.99,6.001c0.451,0.939,1.252,1.723,2.4,2.349
		c1.147,0.626,2.8,0.939,4.957,0.939v1.878h-24.472v-1.878c2.435,0,4.244-0.383,5.427-1.148c0.869-0.557,1.479-1.442,1.826-2.661
		c0.173-0.591,0.261-2.278,0.261-5.062v-18.524c0-5.564-0.112-8.878-0.339-9.939c-0.227-1.061-0.645-1.835-1.252-2.322
		c-0.609-0.486-1.365-0.729-2.27-0.729c-1.079,0-2.296,0.26-3.653,0.782l-0.522-1.878l14.455-5.846H941.877z"/>
	<path fill="#FFFFFF" d="M990.559,650.083c-4.904,3.792-7.983,5.983-9.235,6.575c-1.878,0.869-3.879,1.304-6.001,1.304
		c-3.305,0-6.026-1.13-8.166-3.392c-2.14-2.26-3.209-5.235-3.209-8.923c0-2.33,0.521-4.348,1.565-6.053
		c1.426-2.365,3.904-4.592,7.436-6.679c3.53-2.087,9.4-4.626,17.61-7.618v-1.879c0-4.766-0.756-8.035-2.27-9.809
		c-1.514-1.775-3.714-2.662-6.602-2.662c-2.19,0-3.931,0.592-5.218,1.774c-1.321,1.183-1.982,2.539-1.982,4.069l0.104,3.027
		c0,1.6-0.409,2.835-1.226,3.704c-0.818,0.87-1.888,1.305-3.21,1.305c-1.287,0-2.339-0.452-3.156-1.356
		c-0.818-0.904-1.227-2.14-1.227-3.704c0-2.992,1.531-5.741,4.593-8.245c3.061-2.504,7.357-3.758,12.888-3.758
		c4.243,0,7.723,0.714,10.437,2.14c2.052,1.079,3.564,2.766,4.539,5.062c0.626,1.496,0.938,4.558,0.938,9.184v16.229
		c0,4.557,0.087,7.349,0.262,8.375c0.173,1.026,0.461,1.713,0.86,2.061c0.4,0.349,0.861,0.521,1.384,0.521
		c0.555,0,1.043-0.121,1.46-0.364c0.731-0.452,2.14-1.723,4.228-3.81v2.922c-3.897,5.218-7.619,7.827-11.167,7.827
		c-1.705,0-3.062-0.593-4.07-1.773C991.115,654.954,990.594,652.937,990.559,650.083z M990.559,646.691V628.48
		c-5.253,2.088-8.645,3.565-10.175,4.436c-2.748,1.531-4.715,3.131-5.896,4.801c-1.183,1.669-1.773,3.495-1.773,5.479
		c0,2.505,0.747,4.583,2.244,6.235c1.494,1.652,3.217,2.479,5.165,2.479C982.767,651.909,986.245,650.171,990.559,646.691z"/>
	<path fill="#FFFFFF" d="M1024.894,607.765v10.75c3.999-7.166,8.104-10.75,12.313-10.75c1.913,0,3.497,0.584,4.749,1.748
		c1.252,1.167,1.878,2.515,1.878,4.044c0,1.357-0.453,2.506-1.356,3.445c-0.904,0.938-1.983,1.408-3.235,1.408
		c-1.217,0-2.582-0.601-4.096-1.8c-1.514-1.2-2.636-1.801-3.365-1.801c-0.626,0-1.305,0.349-2.036,1.044
		c-1.565,1.426-3.182,3.775-4.852,7.044v22.906c0,2.645,0.329,4.646,0.99,6.001c0.452,0.939,1.253,1.723,2.401,2.349
		c1.147,0.626,2.799,0.939,4.956,0.939v1.878h-24.472v-1.878c2.435,0,4.244-0.383,5.427-1.148c0.869-0.557,1.479-1.442,1.826-2.661
		c0.174-0.591,0.262-2.278,0.262-5.062v-18.524c0-5.564-0.113-8.878-0.34-9.939c-0.227-1.061-0.645-1.835-1.252-2.322
		c-0.609-0.486-1.365-0.729-2.27-0.729c-1.079,0-2.296,0.26-3.653,0.782l-0.522-1.878l14.455-5.846H1024.894z"/>
	<path fill="#FFFFFF" d="M1043.782,609.175h22.28v1.93h-1.096c-1.564,0-2.738,0.34-3.521,1.018c-0.782,0.679-1.175,1.522-1.175,2.53
		c0,1.357,0.574,3.235,1.723,5.636l11.636,24.107l10.697-26.403c0.591-1.425,0.887-2.834,0.887-4.226
		c0-0.626-0.123-1.097-0.365-1.41c-0.279-0.382-0.713-0.686-1.305-0.912s-1.635-0.34-3.13-0.34v-1.93h15.549v1.93
		c-1.287,0.14-2.279,0.418-2.974,0.836c-0.697,0.416-1.462,1.2-2.296,2.348c-0.313,0.487-0.905,1.826-1.774,4.018l-19.464,47.692
		c-1.878,4.626-4.339,8.122-7.383,10.487c-3.044,2.366-5.975,3.549-8.792,3.549c-2.053,0-3.74-0.592-5.062-1.773
		c-1.322-1.184-1.983-2.541-1.983-4.071c0-1.46,0.479-2.635,1.436-3.521c0.956-0.887,2.27-1.33,3.939-1.33
		c1.148,0,2.714,0.382,4.696,1.147c1.391,0.521,2.26,0.782,2.609,0.782c1.042,0,2.182-0.539,3.417-1.617s2.479-3.166,3.73-6.262
		l3.392-8.296l-17.167-36.057c-0.521-1.077-1.355-2.417-2.504-4.018c-0.869-1.217-1.584-2.036-2.14-2.452
		c-0.801-0.557-2.087-1.044-3.861-1.462V609.175z"/>
</g>
</svg>
