<?xml version="1.0" encoding="utf-8"?>
<!-- Generator: Adobe Illustrator 16.0.0, SVG Export Plug-In . SVG Version: 6.00 Build 0)  -->
<!DOCTYPE svg PUBLIC "-//W3C//DTD SVG 1.1//EN" "http://www.w3.org/Graphics/SVG/1.1/DTD/svg11.dtd">
<svg version="1.1" id="Layer_1" xmlns="http://www.w3.org/2000/svg" xmlns:xlink="http://www.w3.org/1999/xlink" x="0px" y="0px"
	 width="192.42px" height="48.811px" viewBox="0 0 192.42 48.811" enable-background="new 0 0 192.42 48.811" xml:space="preserve">
<path fill="#ED1C2E" d="M24.406,32.667c4.649,0,8.418-3.771,8.418-8.418c0-4.648-3.769-8.418-8.418-8.418
	c-4.646,0-8.416,3.77-8.416,8.418C15.99,28.896,19.76,32.667,24.406,32.667L24.406,32.667z M24.406,40.615
	c8.953,0,16.21-7.258,16.21-16.211c0-8.952-7.257-16.208-16.21-16.208c-8.951,0-16.209,7.256-16.209,16.208
	C8.197,33.357,15.455,40.615,24.406,40.615L24.406,40.615z M0,24.404C0,10.926,10.927,0,24.406,0
	c13.479,0,24.407,10.926,24.407,24.404c0,13.48-10.929,24.406-24.407,24.406C10.927,48.811,0,37.885,0,24.404L0,24.404z"/>
<polygon fill="#FFFFFF" points="56.947,10.586 78.865,10.586 78.865,16.116 71.326,16.116 71.326,38.28 64.629,38.28 64.629,16.158 
	56.947,16.158 56.947,10.586 "/>
<path fill="#FFFFFF" d="M111.876,16.158h-6.145v5.529c0,0,4.793,0.017,5.511,0c1.926-0.04,3.414-0.9,3.414-2.786
	C114.656,16.85,113.393,16.158,111.876,16.158L111.876,16.158z M99.34,10.586c0,0,5.04,0,13.007,0c7.395,0,8.418,5.06,8.418,8.008
	c0,4.282-3.687,6.433-4.015,6.515c0,0,3.237,1.208,3.237,4.875v5.163c0,2.069,1.271,2.642,1.495,3.133h-5.285
	c-2.52-0.286-2.478-2.293-2.458-3.441v-4.444c-0.062-1.085-0.39-2.296-2.663-2.336h-5.346V38.28H99.32L99.34,10.586L99.34,10.586z"
	/>
<polygon fill="#FFFFFF" points="149.036,10.586 149.036,38.28 168.986,38.28 168.986,32.586 155.549,32.586 155.549,26.398 
	167.021,26.398 167.021,21.156 155.549,21.156 155.549,16.158 168.986,16.158 168.986,10.586 149.036,10.586 "/>
<polygon fill="#FFFFFF" points="169.93,16.158 177.838,16.158 177.838,38.28 184.391,38.28 184.391,16.158 192.42,16.158 
	192.42,10.586 169.93,10.586 169.93,16.158 "/>
<path fill="#FFFFFF" d="M85.789,20.357l-2.356,7.149h4.856L85.789,20.357L85.789,20.357z M82.076,10.581h7.109l9.684,27.699h-6.89
	l-2-5.756h-8.174l-1.886,5.756h-6.833L82.076,10.581L82.076,10.581z"/>
<path fill="#FFFFFF" d="M146.741,22.815H134.84v5.386h5.653c-0.011,1.108,0.164,2.215-1.164,3.771
	c-0.452,0.53-2.001,1.719-4.162,1.719c-1.823,0-3.133-0.521-4.271-1.486c-2.513-2.133-3.104-6.119-3.104-8.203
	c0-2.622,1.044-9.134,7.455-9.401c0,0,4.324-0.279,5.451,4.936h6c-0.121-2.643-3.195-10.066-11.451-10.078
	c-2.85-0.004-6.465,0.854-9.459,3.852c-2.169,2.172-4.121,5.819-4.121,10.958c0,5.574,2.052,9.197,3.929,11.188
	c3.294,3.496,6.613,3.765,8.342,3.765c1.371,0,3.994-0.204,7.395-2.499l0.9,1.557h4.508V22.815L146.741,22.815z"/>
<path fill="#FFFFFF" d="M187.431,36.458h0.345c0.221,0,0.384-0.034,0.384-0.271c0-0.211-0.224-0.243-0.402-0.243h-0.326V36.458
	L187.431,36.458z M187.043,35.642h0.737c0.489,0,0.767,0.152,0.767,0.579c0,0.359-0.225,0.497-0.514,0.522l0.521,0.854h-0.405
	l-0.476-0.835h-0.243v0.835h-0.388V35.642L187.043,35.642z M187.738,37.999c0.724,0,1.316-0.58,1.316-1.377
	c0-0.793-0.593-1.367-1.316-1.367c-0.733,0-1.317,0.574-1.317,1.367C186.421,37.419,187.005,37.999,187.738,37.999L187.738,37.999z
	 M187.738,34.879c0.947,0,1.792,0.682,1.792,1.742c0,1.064-0.845,1.75-1.792,1.75c-0.948,0-1.793-0.686-1.793-1.75
	C185.945,35.561,186.79,34.879,187.738,34.879L187.738,34.879z"/>
</svg>
