<?xml version="1.0" encoding="utf-8"?>
<!-- Generator: Adobe Illustrator 16.0.0, SVG Export Plug-In . SVG Version: 6.00 Build 0)  -->
<!DOCTYPE svg PUBLIC "-//W3C//DTD SVG 1.1//EN" "http://www.w3.org/Graphics/SVG/1.1/DTD/svg11.dtd">
<svg version="1.1" id="Layer_1" xmlns="http://www.w3.org/2000/svg" xmlns:xlink="http://www.w3.org/1999/xlink" x="0px" y="0px"
	 width="235.707px" height="31.373px" viewBox="0 0 235.707 31.373" enable-background="new 0 0 235.707 31.373"
	 xml:space="preserve">
<g>
	<g>
		<path fill-rule="evenodd" clip-rule="evenodd" fill="#FFFFFF" d="M17.464,15.668c0.034-0.303,0.056-0.609,0.056-0.92
			c0-0.312-0.021-0.617-0.056-0.919v-0.181h-0.028c-0.453-3.305-2.903-5.988-6.126-6.854v7.54c0.11,0.246,0.176,0.511,0.176,0.791
			c0,1.12-0.971,2.032-2.216,2.156v4.737H8.708v-4.737c-1.245-0.124-2.215-1.036-2.215-2.156c0-0.279,0.065-0.545,0.175-0.791V6.841
			c-3.495,1.011-6.047,4.167-6.047,7.908c0,0.419,0.042,0.827,0.104,1.229v5.892c-0.062,0.402-0.104,0.812-0.104,1.229
			c0,4.556,3.783,8.25,8.449,8.25c4.667,0,8.45-3.694,8.45-8.25c0-0.313-0.021-0.618-0.056-0.92V15.668z"/>
		<ellipse fill-rule="evenodd" clip-rule="evenodd" fill="#FFFFFF" cx="9.024" cy="11.292" rx="1.196" ry="2.708"/>
		<g>
			<path fill="#FFFFFF" d="M9.235,7.178H8.11c0-0.705-0.167-1.204-0.498-1.486C7.319,5.444,6.941,5.404,6.733,5.404
				C6.324,5.49,5.471,5.49,3.679,5.49c-1.39,0-2.414-0.38-3.043-1.134c-0.824-0.984-0.615-2.218-0.605-2.271l1.107,0.199l-0.554-0.1
				L1.139,2.28C1.138,2.288,1.017,3.066,1.506,3.643c0.407,0.479,1.138,0.722,2.173,0.722c1.447,0,2.142-0.012,2.475-0.022
				l0.249-0.041c0.044-0.007,1.113-0.17,1.938,0.534C8.935,5.34,9.235,6.128,9.235,7.178z"/>
		</g>
	</g>
</g>
<path fill="#FFFFFF" d="M215.595,11.257c0.014-0.612,0.066-2.938,0.066-4.571c0-0.292,0.048-0.677,0.274-0.864
	c0.251-0.206,0.661-0.133,0.661-0.133l0.06,0.012L226.736,5.7c0.104,0.007,1.062,0.052,1.814-0.652
	c0.549-0.512,0.827-1.263,0.827-2.23c0-0.986-0.281-1.737-0.832-2.234c-0.687-0.615-1.521-0.592-1.725-0.58h-21.287v1.125h21.312
	l0.061-0.003c0.004,0,0.516-0.039,0.887,0.295c0.305,0.274,0.459,0.744,0.459,1.396c0,0.638-0.155,1.108-0.461,1.399
	c-0.403,0.384-0.979,0.36-1.016,0.359h-10.008c-0.233-0.037-0.952-0.102-1.533,0.367c-0.463,0.373-0.697,0.959-0.697,1.743
	c0,1.645-0.053,4.006-0.067,4.571h-19.556v20.116h40.793V11.257H215.595z M213.728,13.719h2.321v1.477h-2.321V13.719z
	 M213.728,17.692h2.321v1.478h-2.321V17.692z M213.728,20.788h2.321v1.477h-2.321V20.788z M213.728,23.881h2.321v1.478h-2.321
	V23.881z M209.93,13.719h2.321v1.477h-2.321V13.719z M209.93,17.692h2.321v1.478h-2.321V17.692z M209.93,20.788h2.321v1.477h-2.321
	V20.788z M209.93,23.881h2.321v1.478h-2.321V23.881z M206.061,13.719h2.321v1.477h-2.321V13.719z M206.061,17.692h2.321v1.478
	h-2.321V17.692z M206.061,20.788h2.321v1.477h-2.321V20.788z M206.061,23.881h2.321v1.478h-2.321V23.881z M202.159,13.719h2.32
	v1.477h-2.32V13.719z M202.159,17.692h2.32v1.478h-2.32V17.692z M202.159,20.788h2.32v1.477h-2.32V20.788z M202.159,23.881h2.32
	v1.478h-2.32V23.881z M200.048,28.455h-2.32v-1.478h2.32V28.455z M200.048,25.359h-2.32v-1.478h2.32V25.359z M200.048,22.264h-2.32
	v-1.477h2.32V22.264z M200.048,19.17h-2.32v-1.478h2.32V19.17z M200.048,15.196h-2.32v-1.477h2.32V15.196z M216.577,28.455h-14.418
	v-1.478h14.418V28.455z M220.972,28.455h-2.321v-1.478h2.321V28.455z M220.972,25.359h-2.321v-1.478h2.321V25.359z M220.972,22.264
	h-2.321v-1.477h2.321V22.264z M220.972,19.17h-2.321v-1.478h2.321V19.17z M220.972,15.196h-2.321v-1.477h2.321V15.196z
	 M225.122,28.455h-2.32v-1.478h2.32V28.455z M225.122,25.359h-2.32v-1.478h2.32V25.359z M225.122,22.264h-2.32v-1.477h2.32V22.264z
	 M225.122,19.17h-2.32v-1.478h2.32V19.17z M225.122,15.196h-2.32v-1.477h2.32V15.196z M228.708,28.455h-2.32v-1.478h2.32V28.455z
	 M228.708,25.359h-2.32v-1.478h2.32V25.359z M228.708,22.264h-2.32v-1.477h2.32V22.264z M228.708,19.17h-2.32v-1.478h2.32V19.17z
	 M228.708,15.196h-2.32v-1.477h2.32V15.196z M232.718,28.455h-2.322v-1.478h2.322V28.455z M232.718,25.359h-2.322v-1.478h2.322
	V25.359z M232.718,22.264h-2.322v-1.477h2.322V22.264z M232.718,19.17h-2.322v-1.478h2.322V19.17z M232.718,15.196h-2.322v-1.477
	h2.322V15.196z"/>
<g>
	<path fill="#FFFFFF" d="M34.555,9.064h-5.353V7.132H42.23v1.933h-5.378V24.73h-2.297V9.064z"/>
	<path fill="#FFFFFF" d="M43.745,18.803c0.052,3.107,2.01,4.387,4.308,4.387c1.645,0,2.663-0.287,3.499-0.627l0.417,1.619
		c-0.81,0.364-2.219,0.809-4.229,0.809c-3.864,0-6.214-2.584-6.214-6.37c0-3.837,2.272-6.841,5.953-6.841
		c4.125,0,5.196,3.629,5.196,5.954c0,0.469-0.027,0.835-0.079,1.095L43.745,18.803z M50.455,17.158
		c0.026-1.436-0.601-3.733-3.16-3.733c-2.35,0-3.342,2.141-3.524,3.733H50.455z"/>
	<path fill="#FFFFFF" d="M64.527,24.287c-0.601,0.286-1.932,0.729-3.629,0.729c-3.812,0-6.292-2.583-6.292-6.474
		c0-3.89,2.663-6.736,6.788-6.736c1.358,0,2.559,0.339,3.186,0.679l-0.522,1.749c-0.548-0.287-1.41-0.601-2.664-0.601
		c-2.897,0-4.465,2.167-4.465,4.805c0,2.923,1.88,4.726,4.387,4.726c1.306,0,2.167-0.314,2.82-0.601L64.527,24.287z"/>
	<path fill="#FFFFFF" d="M67.215,6.193h2.298v7.885h0.052c0.366-0.653,0.94-1.253,1.645-1.619c0.679-0.418,1.488-0.653,2.35-0.653
		c1.697,0,4.412,1.044,4.412,5.404v7.52h-2.297v-7.258c0-2.063-0.757-3.76-2.924-3.76c-1.488,0-2.637,1.045-3.081,2.299
		c-0.131,0.313-0.157,0.652-0.157,1.096v7.624h-2.298V6.193z"/>
	<path fill="#FFFFFF" d="M87.319,7.367c1.096-0.208,2.533-0.365,4.36-0.365c2.245,0,3.89,0.521,4.934,1.461
		c0.967,0.835,1.567,2.116,1.567,3.681c0,1.593-0.47,2.847-1.383,3.76c-1.202,1.28-3.16,1.933-5.379,1.933
		c-0.678,0-1.305-0.027-1.827-0.157v7.049h-2.271V7.367z M89.59,15.827c0.496,0.13,1.149,0.184,1.879,0.184
		c2.768,0,4.413-1.358,4.413-3.734c0-2.349-1.645-3.473-4.151-3.473c-0.992,0-1.75,0.105-2.141,0.184V15.827z"/>
	<path fill="#FFFFFF" d="M105.621,25.016c-3.394,0-6.057-2.505-6.057-6.5c0-4.229,2.794-6.71,6.267-6.71
		c3.629,0,6.083,2.637,6.083,6.476c0,4.698-3.264,6.734-6.266,6.734H105.621z M105.7,23.294c2.192,0,3.837-2.063,3.837-4.936
		c0-2.14-1.07-4.83-3.785-4.83c-2.69,0-3.866,2.506-3.866,4.909c0,2.767,1.568,4.856,3.786,4.856H105.7z"/>
	<path fill="#FFFFFF" d="M114.497,22.407c0.706,0.417,1.907,0.888,3.057,0.888c1.645,0,2.427-0.81,2.427-1.88
		c0-1.097-0.651-1.697-2.323-2.324c-2.297-0.835-3.368-2.063-3.368-3.577c0-2.037,1.671-3.708,4.361-3.708
		c1.278,0,2.4,0.339,3.079,0.783l-0.548,1.645c-0.496-0.287-1.409-0.73-2.584-0.73c-1.358,0-2.089,0.784-2.089,1.723
		c0,1.071,0.73,1.541,2.375,2.167c2.167,0.81,3.316,1.906,3.316,3.812c0,2.246-1.75,3.811-4.699,3.811
		c-1.385,0-2.663-0.365-3.552-0.887L114.497,22.407z"/>
	<path fill="#FFFFFF" d="M126.247,9.77c-0.861,0-1.437-0.68-1.437-1.488c0-0.81,0.601-1.462,1.488-1.462s1.462,0.652,1.462,1.462
		c0,0.809-0.574,1.488-1.487,1.488H126.247z M125.15,24.73V12.093h2.298V24.73H125.15z"/>
	<path fill="#FFFFFF" d="M134.027,9.064v3.028h3.29v1.75h-3.29v6.814c0,1.567,0.443,2.455,1.723,2.455
		c0.626,0,0.992-0.053,1.331-0.157l0.105,1.749c-0.444,0.157-1.149,0.313-2.037,0.313c-1.07,0-1.932-0.365-2.48-0.965
		c-0.626-0.706-0.888-1.827-0.888-3.316v-6.892h-1.958v-1.75h1.958V9.77L134.027,9.064z"/>
	<path fill="#FFFFFF" d="M140.998,9.77c-0.862,0-1.437-0.68-1.437-1.488c0-0.81,0.601-1.462,1.488-1.462s1.461,0.652,1.461,1.462
		c0,0.809-0.573,1.488-1.487,1.488H140.998z M139.901,24.73V12.093h2.297V24.73H139.901z"/>
	<path fill="#FFFFFF" d="M151.152,25.016c-3.393,0-6.057-2.505-6.057-6.5c0-4.229,2.794-6.71,6.267-6.71
		c3.629,0,6.083,2.637,6.083,6.476c0,4.698-3.263,6.734-6.267,6.734H151.152z M151.232,23.294c2.191,0,3.837-2.063,3.837-4.936
		c0-2.14-1.07-4.83-3.785-4.83c-2.689,0-3.864,2.506-3.864,4.909c0,2.767,1.566,4.856,3.786,4.856H151.232z"/>
	<path fill="#FFFFFF" d="M160.343,15.514c0-1.332-0.026-2.376-0.104-3.421h2.036l0.131,2.063h0.053
		c0.626-1.175,2.089-2.35,4.177-2.35c1.749,0,4.465,1.044,4.465,5.378v7.545h-2.298v-7.285c0-2.037-0.758-3.76-2.925-3.76
		c-1.488,0-2.663,1.071-3.081,2.35c-0.104,0.287-0.156,0.705-0.156,1.07v7.624h-2.297V15.514z"/>
	<path fill="#FFFFFF" d="M174.52,22.407c0.704,0.417,1.905,0.888,3.054,0.888c1.646,0,2.429-0.81,2.429-1.88
		c0-1.097-0.652-1.697-2.323-2.324c-2.299-0.835-3.369-2.063-3.369-3.577c0-2.037,1.671-3.708,4.36-3.708
		c1.281,0,2.403,0.339,3.08,0.783l-0.548,1.645c-0.495-0.287-1.409-0.73-2.584-0.73c-1.356,0-2.089,0.784-2.089,1.723
		c0,1.071,0.732,1.541,2.377,2.167c2.167,0.81,3.315,1.906,3.315,3.812c0,2.246-1.75,3.811-4.7,3.811
		c-1.384,0-2.663-0.365-3.55-0.887L174.52,22.407z"/>
</g>
<rect x="27.803" y="26.731" fill="#FFFFFF" width="156.982" height="1.827"/>
</svg>
